<svg width="24" height="24" viewBox="0 0 24 24" fill="none" xmlns="http://www.w3.org/2000/svg">
<path d="M17.0859 2.63311C17.3486 2.37047 17.6604 2.16213 18.0035 2.01999C18.3467 1.87785 18.7145 1.80469 19.0859 1.80469C19.4574 1.80469 19.8252 1.87785 20.1683 2.01999C20.5115 2.16213 20.8233 2.37047 21.0859 2.63311C21.3486 2.89576 21.5569 3.20756 21.6991 3.55072C21.8412 3.89388 21.9144 4.26168 21.9144 4.63311C21.9144 5.00455 21.8412 5.37235 21.6991 5.71551C21.5569 6.05867 21.3486 6.37047 21.0859 6.63311L7.58594 20.1331L2.08594 21.6331L3.58594 16.1331L17.0859 2.63311Z" stroke="#05793C" stroke-width="3" stroke-linecap="round" stroke-linejoin="round"/>
</svg>
