<svg width="200" height="40" viewBox="0 0 200 40" fill="none" xmlns="http://www.w3.org/2000/svg">
<path d="M26.5341 4.2459H11.8112C-3.20209 4.2459 -2.74589 21.7301 7.99565 21.7301C16.0829 21.7301 16.1244 11.7865 11.1891 11.7865C8.90806 11.7865 8.86658 14.1067 7.12471 14.1067C4.63633 14.1067 5.09253 8.34765 11.5623 8.34765C14.424 8.34765 16.4562 10.4607 16.4562 13.4852V24.8375C16.4562 25.9562 16.1659 26.5777 15.2534 27.282C12.9309 29.0221 13.0554 33.2482 17.0368 33.2482H22.7186C26.7 33.2482 26.8244 29.0221 24.5019 27.282C23.5895 26.5777 23.2992 25.9562 23.2992 24.879C23.2992 24.1332 23.7969 23.636 24.5434 23.636H26.5341C35.4923 23.636 41.1327 20.1143 41.1327 13.941C41.1327 7.76761 35.4923 4.2459 26.5341 4.2459ZM26.5341 19.9071C24.5849 19.9071 23.2992 18.4156 23.2992 15.9711V11.9108C23.2992 9.46631 24.5849 7.97477 26.5341 7.97477C31.2206 7.97477 33.8749 9.8392 33.8749 13.941C33.8749 18.0427 31.2206 19.9071 26.5341 19.9071ZM43.7915 6.77324C43.7915 4.70165 45.8652 3.3344 48.9342 3.3344C52.0032 3.3344 54.0354 4.70165 54.0354 6.77324C54.0354 8.84483 51.9618 10.2121 48.9342 10.2121C45.9067 10.2121 43.7915 8.84483 43.7915 6.77324ZM52.1691 33.2482H46.6947C42.7132 33.2482 42.5888 29.0221 44.9113 27.282C45.8237 26.5777 46.114 25.9562 46.114 24.8375V22.0616C46.114 20.9429 45.8237 20.3215 44.9113 19.6171C42.5888 17.877 42.5059 14.1481 46.3629 13.0295L48.8927 12.2837C49.4734 12.118 49.971 12.0351 50.4272 12.0351C51.8788 12.0351 52.7497 12.9052 52.7497 14.7282V24.8375C52.7497 25.9562 53.0401 26.5777 53.9525 27.282C56.275 29.0221 56.1505 33.2482 52.1691 33.2482ZM82.5182 15.2253C82.486 16.6386 82.1035 17.7573 81.3662 18.5859C80.6289 19.4146 79.5275 19.9394 78.0714 20.1649C77.6935 20.2248 77.3479 20.2984 77.0345 20.3905C76.7166 20.4826 76.4125 20.5977 76.1221 20.7404C75.8318 20.8831 75.5369 21.0534 75.2512 21.2468C74.9655 21.4447 74.6706 21.6749 74.3711 21.9465C73.2421 22.9086 72.3573 23.659 71.7168 24.2022C71.3712 24.4923 71.0809 24.7455 70.8274 24.9664C70.9288 24.9802 71.0302 24.994 71.1408 25.0125C71.6983 25.1045 72.279 25.192 72.878 25.2841C73.4817 25.3761 74.0208 25.4176 74.5047 25.4176C75.2143 25.4176 75.818 25.2933 76.3249 25.0447C76.8272 24.7961 77.2465 24.4232 77.5783 23.9306C77.8778 23.4933 78.1635 23.2033 78.4262 23.0514C78.6889 22.8994 78.9561 22.8258 79.228 22.8258C79.5736 22.8258 79.8501 22.9823 80.0529 23.2907C80.2556 23.5992 80.357 24.1148 80.357 24.8375C80.357 26.5823 79.9745 28.1291 79.205 29.4825C78.4354 30.8359 77.4308 31.8947 76.1774 32.6635C74.9286 33.4323 73.5831 33.8144 72.1361 33.8144C71.0809 33.8144 70.2284 33.6625 69.574 33.3541C68.9196 33.0456 68.3943 32.6635 67.9934 32.2032C67.5925 31.7428 67.2653 31.2871 67.0119 30.8405C66.7538 30.3894 66.5096 30.0119 66.2792 29.7035C66.0442 29.395 65.7631 29.2385 65.4313 29.2385C65.0995 29.2385 64.8415 29.395 64.6064 29.7035C64.3714 30.0119 64.1364 30.394 63.8968 30.8544C63.6572 31.3147 63.3715 31.7659 63.0397 32.217C62.7079 32.6681 62.3024 33.0456 61.8185 33.3541C61.3393 33.6625 60.7448 33.8144 60.0352 33.8144C59.132 33.8144 58.4223 33.5428 57.9016 33.0042C57.3809 32.4656 57.1228 31.7106 57.1228 30.7485C57.1228 29.9797 57.3164 29.2385 57.7081 28.5158C58.0998 27.793 58.7726 27.1347 59.731 26.5408C60.6849 25.947 61.9936 25.4636 63.6479 25.0861C63.9659 25.0125 64.2562 24.925 64.5281 24.8283C64.8 24.7316 65.0488 24.6166 65.2838 24.4877C65.5189 24.3588 65.7446 24.2114 65.9612 24.0457C66.1778 23.88 66.4082 23.6866 66.6478 23.4611C67.3713 22.7982 67.9796 22.2411 68.4773 21.79C68.8643 21.4355 69.2007 21.1271 69.5141 20.837C69.4634 20.8232 69.4219 20.8094 69.3712 20.7956C68.7445 20.6023 68.081 20.3767 67.3713 20.1189C66.6617 19.8611 65.9797 19.6401 65.3161 19.4514C64.6525 19.2626 64.1042 19.1706 63.6664 19.1706C63.2286 19.1706 62.9245 19.2442 62.754 19.3869C62.5789 19.5296 62.4959 19.7 62.4959 19.8933C62.4959 20.0452 62.542 20.1926 62.6296 20.3445C62.7171 20.4964 62.8922 20.6391 63.1503 20.7726C63.4498 20.9245 63.6618 21.1409 63.7816 21.4263C63.9014 21.7117 63.9613 22.0202 63.9613 22.3516C63.9613 22.8948 63.7355 23.3092 63.2839 23.6038C62.8323 23.8984 62.3208 24.0457 61.7494 24.0457C60.7402 24.0457 59.9292 23.7097 59.3117 23.0283C58.6942 22.3516 58.3855 21.3803 58.3855 20.1189C58.3855 18.7332 58.6896 17.4212 59.2979 16.1691C59.9062 14.9169 60.8047 13.9041 61.9982 13.1123C63.1871 12.3251 64.6387 11.9292 66.3575 11.9292C67.6063 11.9292 68.6247 12.0811 69.4081 12.3896C70.1915 12.698 70.809 13.0801 71.2698 13.5404C71.7306 14.0008 72.0993 14.4519 72.3757 14.9031C72.6522 15.3542 72.8965 15.7363 73.1084 16.0402C73.3204 16.3486 73.5739 16.5005 73.878 16.5005C74.2559 16.5005 74.5876 16.3486 74.8733 16.0402C75.159 15.7317 75.4493 15.3496 75.7443 14.9031C76.0392 14.4565 76.3664 13.9962 76.7258 13.5404C77.0852 13.0801 77.5092 12.698 77.9884 12.3896C78.4677 12.0811 79.0621 11.9292 79.7718 11.9292C80.7349 11.9292 81.4399 12.2284 81.8823 12.8315C82.3247 13.4346 82.5413 14.231 82.5274 15.2253H82.5182ZM107.31 12.8315C107.752 13.4346 107.969 14.231 107.955 15.2253C107.923 16.6386 107.54 17.7573 106.803 18.5859C106.066 19.4146 104.964 19.9394 103.508 20.1649C103.13 20.2248 102.785 20.2984 102.471 20.3905C102.153 20.4826 101.849 20.5977 101.559 20.7404C101.269 20.8831 100.974 21.0534 100.688 21.2468C100.402 21.4447 100.107 21.6749 99.8079 21.9465C98.6789 22.9086 97.7941 23.659 97.1536 24.2022C96.808 24.4923 96.5177 24.7455 96.2643 24.9664C96.3656 24.9802 96.467 24.994 96.5776 25.0125C97.1352 25.1045 97.7158 25.192 98.3149 25.2841C98.9185 25.3761 99.4577 25.4176 99.9415 25.4176C100.651 25.4176 101.255 25.2933 101.762 25.0447C102.264 24.7961 102.683 24.4232 103.015 23.9306C103.315 23.4933 103.6 23.2033 103.863 23.0514C104.126 22.8994 104.393 22.8258 104.665 22.8258C105.01 22.8258 105.287 22.9823 105.49 23.2907C105.692 23.5992 105.794 24.1148 105.794 24.8375C105.794 26.5823 105.411 28.1291 104.642 29.4825C103.872 30.8359 102.868 31.8947 101.614 32.6635C100.365 33.4323 99.0199 33.8144 97.573 33.8144C96.5177 33.8144 95.6652 33.6625 95.0108 33.3541C94.3565 33.0456 93.8312 32.6635 93.4303 32.2032C93.0293 31.7428 92.7022 31.2871 92.4487 30.8405C92.1907 30.3894 91.9464 30.0119 91.716 29.7035C91.481 29.395 91.1999 29.2385 90.8681 29.2385C90.5363 29.2385 90.2783 29.395 90.0433 29.7035C89.8083 30.0119 89.5732 30.394 89.3336 30.8544C89.094 31.3147 88.8083 31.7659 88.4765 32.217C88.1447 32.6681 87.7392 33.0456 87.2554 33.3541C86.7761 33.6625 86.1817 33.8144 85.472 33.8144C84.5688 33.8144 83.8592 33.5428 83.3385 33.0042C82.8177 32.4656 82.5597 31.7106 82.5597 30.7485C82.5597 29.9797 82.7532 29.2385 83.1449 28.5158C83.5366 27.793 84.2094 27.1347 85.1679 26.5408C86.1218 25.947 87.4305 25.4636 89.0848 25.0861C89.4028 25.0125 89.6931 24.925 89.9649 24.8283C90.2368 24.7316 90.4857 24.6166 90.7207 24.4877C90.9557 24.3588 91.1815 24.2114 91.3981 24.0457C91.6146 23.88 91.8451 23.6866 92.0847 23.4611C92.8082 22.7982 93.4164 22.2411 93.9141 21.79C94.3012 21.4355 94.6376 21.1271 94.9509 20.837C94.9002 20.8232 94.8588 20.8094 94.8081 20.7956C94.1814 20.6023 93.5178 20.3767 92.8082 20.1189C92.0985 19.8611 91.4165 19.6401 90.7529 19.4514C90.0894 19.2626 89.541 19.1706 89.1032 19.1706C88.6655 19.1706 88.3613 19.2442 88.1908 19.3869C88.0157 19.5296 87.9328 19.7 87.9328 19.8933C87.9328 20.0452 87.9788 20.1926 88.0664 20.3445C88.1539 20.4964 88.3291 20.6391 88.5871 20.7726C88.8866 20.9245 89.0986 21.1409 89.2184 21.4263C89.3382 21.7117 89.3981 22.0202 89.3981 22.3516C89.3981 22.8948 89.1723 23.3092 88.7207 23.6038C88.2691 23.8984 87.7577 24.0457 87.1862 24.0457C86.1771 24.0457 85.366 23.7097 84.7486 23.0283C84.1311 22.3516 83.8223 21.3803 83.8223 20.1189C83.8223 18.7332 84.1264 17.4212 84.7347 16.1691C85.343 14.9169 86.2416 13.9041 87.4351 13.1123C88.624 12.3251 90.0755 11.9292 91.7944 11.9292C93.0432 11.9292 94.0616 12.0811 94.8449 12.3896C95.6283 12.698 96.2458 13.0801 96.7066 13.5404C97.1674 14.0008 97.5361 14.4519 97.8126 14.9031C98.0891 15.3542 98.3333 15.7363 98.5453 16.0402C98.7572 16.3486 99.0107 16.5005 99.3148 16.5005C99.6927 16.5005 100.024 16.3486 100.31 16.0402C100.596 15.7317 100.886 15.3496 101.181 14.9031C101.476 14.4565 101.803 13.9962 102.163 13.5404C102.522 13.0801 102.946 12.698 103.425 12.3896C103.905 12.0811 104.499 11.9292 105.209 11.9292C106.172 11.9292 106.877 12.2284 107.319 12.8315H107.31ZM127.341 31.3838C127.341 28.1106 129.415 23.8846 129.415 20.0314C129.415 15.101 126.139 12.1179 119.71 12.1179C112.784 12.1179 109.757 14.7696 109.757 17.3384C109.757 18.8713 110.586 20.4043 112.577 20.4043C114.236 20.4043 115.273 19.6585 115.646 18.5399C116.227 16.924 117.263 16.2197 119.13 16.2197C121.908 16.2197 122.655 18.8713 122.655 21.1501C117.678 20.7772 108.222 21.1087 108.222 28.2349C108.222 31.7981 110.628 33.6625 114.029 33.6625C116.641 33.6625 118.839 32.3367 120.457 30.5966C120.25 31.6738 120.125 32.751 120.125 33.8282C120.125 37.1842 121.826 39.8359 125.475 39.8359C129.415 39.8359 130.452 37.8057 130.452 36.4799C130.452 33.4968 127.341 34.4497 127.341 31.3838ZM121.867 25.2104C121.038 27.7378 119.669 28.6493 118.093 28.6493C116.434 28.6493 115.397 27.5306 115.397 26.2462C115.397 23.3874 118.922 22.9317 122.406 22.9317C122.282 23.6774 122.074 24.4232 121.867 25.2104ZM155.709 18.0427C157.949 16.6755 159.11 14.6867 159.11 12.2008C159.11 7.14613 154.299 4.20447 144.926 4.20447H135.719C131.447 4.20447 131.323 8.43052 133.645 10.1707C134.558 10.875 134.848 11.4965 134.848 12.6151V24.7961C134.848 25.9148 134.558 26.5362 133.645 27.2406C131.323 28.9807 131.447 33.2068 135.429 33.2068L144.926 33.2482C156.165 33.2896 161.183 30.2237 161.183 24.9204C161.183 21.813 159.442 19.4514 155.709 18.0427ZM141.691 11.2479C141.691 9.01056 142.977 7.93333 144.926 7.93333C150.027 7.93333 151.852 9.25915 151.852 12.2008C151.852 15.1425 150.027 16.5512 144.926 16.5512C142.977 16.5512 141.691 15.4739 141.691 13.2366V11.2479ZM146.336 29.5193H144.926C142.977 29.5193 141.691 28.4421 141.691 26.2048V23.5946C141.691 21.3573 142.977 20.28 144.926 20.28H146.336C151.935 20.28 153.926 21.813 153.926 24.9204C153.926 28.0278 151.935 29.5193 146.336 29.5193ZM173.874 12.2008C168.151 12.2008 163.257 15.6811 163.257 22.9317C163.257 30.1822 168.151 33.6625 173.874 33.6625C179.598 33.6625 184.533 30.1822 184.533 22.9317C184.533 15.6811 179.556 12.2008 173.874 12.2008ZM173.874 29.7679C171.469 29.7679 170.308 26.992 170.308 22.9317C170.308 18.8713 171.469 16.0954 173.874 16.0954C176.28 16.0954 177.482 18.8713 177.482 22.9317C177.482 26.992 176.28 29.7679 173.874 29.7679ZM199.173 29.4365C199.173 31.2595 197.597 33.6625 193.615 33.6625C190.215 33.6625 188.348 31.7566 188.348 27.3234V18.7885C188.348 14.6453 180.676 8.38908 173.667 8.38908C169.146 8.38908 168.856 10.0049 166.077 10.0049C161.806 10.0049 161.847 0.765625 169.063 0.765625C174.953 0.765625 181.339 5.53029 185.943 10.2535C186.607 10.9164 187.312 11.2064 187.892 11.2064C188.556 11.2064 189.095 10.8336 189.344 10.2535C190.173 8.34765 189.924 5.73745 192.537 5.73745H192.827C194.113 5.73745 194.984 6.52465 194.984 8.14049V12.1179H197.224C198.302 12.1179 199.09 12.9052 199.09 13.9824V14.3967C199.09 15.4739 198.302 16.2611 197.224 16.2611H194.984V25.3347C194.984 27.572 195.855 28.1106 197.307 27.7792C198.717 27.4477 199.173 28.3178 199.173 29.4365Z" fill="#05793C"/>
</svg>
