<svg width="17" height="17" viewBox="0 0 17 17" fill="none" xmlns="http://www.w3.org/2000/svg">
<path d="M13.2204 14.1494L13.2204 2.14936C13.2201 2.02786 13.1866 1.90877 13.1235 1.80491C13.0605 1.70104 12.9703 1.61633 12.8627 1.55989C12.7552 1.50346 12.6342 1.47743 12.5129 1.48462C12.3916 1.49181 12.2746 1.53194 12.1744 1.60069L3.50778 7.60069C3.14845 7.84936 3.14845 8.44802 3.50778 8.69736L12.1744 14.6974C12.2744 14.7668 12.3915 14.8075 12.513 14.8151C12.6345 14.8227 12.7557 14.7968 12.8635 14.7403C12.9713 14.6839 13.0616 14.5989 13.1245 14.4947C13.1875 14.3905 13.2206 14.2711 13.2204 14.1494Z" fill="#C1C1C1"/>
</svg>
