<svg width="17" height="17" viewBox="0 0 17 17" fill="none" xmlns="http://www.w3.org/2000/svg">
<path d="M4.20533 2.14947L4.20533 14.1495C4.20571 14.271 4.23922 14.3901 4.30225 14.4939C4.36528 14.5978 4.45544 14.6825 4.56304 14.7389C4.67063 14.7954 4.79157 14.8214 4.91286 14.8142C5.03414 14.807 5.15116 14.7669 5.25133 14.6981L13.918 8.69814C14.2773 8.44947 14.2773 7.85081 13.918 7.60147L5.25133 1.60147C5.15137 1.53202 5.03429 1.49129 4.9128 1.48371C4.79132 1.47613 4.67008 1.50199 4.56226 1.55848C4.45444 1.61497 4.36417 1.69992 4.30124 1.80411C4.23831 1.90831 4.20514 2.02775 4.20533 2.14947Z" fill="#05793C"/>
</svg>
