<svg width="25" height="25" viewBox="0 0 25 25" fill="none" xmlns="http://www.w3.org/2000/svg">
<path d="M6.25197 3.08993L6.25197 3.08914C6.25183 2.99794 6.27668 2.90845 6.32383 2.83038C6.37097 2.75232 6.43861 2.68867 6.5194 2.64634C6.60018 2.60402 6.69102 2.58464 6.78204 2.59032C6.87306 2.596 6.96079 2.62652 7.03568 2.67855L7.03637 2.67902L20.0359 11.6787C20.1466 11.7555 20.2252 11.905 20.2252 12.0908C20.2252 12.2766 20.1466 12.4255 20.0364 12.5018L20.0364 12.5018L7.03803 21.5007C7.03777 21.5009 7.0375 21.501 7.03724 21.5012C6.96214 21.5526 6.87449 21.5825 6.78367 21.5879C6.69252 21.5933 6.60163 21.5738 6.52078 21.5313C6.43992 21.4889 6.37217 21.4253 6.3248 21.3472C6.27756 21.2694 6.25239 21.1801 6.25197 21.0891L6.25197 3.08993Z" fill="#05793C" stroke="#05793C"/>
</svg>
