<svg width="544" height="362" viewBox="0 0 544 362" fill="none" xmlns="http://www.w3.org/2000/svg">
<g clip-path="url(#clip0_3274_2383)">
<g opacity="0.8">
<path d="M0 0V-3H-4V0H0ZM178 0H181V-3H178V0ZM0 3H178V-3H0V3ZM175 0V301H181V0H175ZM4 301V0H-4V301H4Z" fill="#05793C" mask="url(#path-3-inside-2_3274_2383)"/>
<rect width="178" height="36" transform="translate(0 162)" fill="#9AE59D"/>
</g>
<path d="M52.6819 37.0314V41.2874H45.8019V58.1514H40.2979V41.2874H33.3859V37.0314H52.6819ZM60.2834 58.4714C58.5128 58.4714 56.9768 58.1407 55.6754 57.4794C54.3954 56.818 53.4034 55.8687 52.6994 54.6314C51.9954 53.394 51.6434 51.9007 51.6434 50.1514C51.6434 48.402 51.9954 46.9087 52.6994 45.6714C53.4034 44.434 54.3848 43.4847 55.6434 42.8234C56.9234 42.162 58.3848 41.8314 60.0274 41.8314C61.7128 41.8314 63.1421 42.162 64.3154 42.8234C65.5101 43.4634 66.4168 44.3594 67.0354 45.5114C67.6541 46.642 67.9634 47.9434 67.9634 49.4154C67.9634 49.7994 67.9528 50.1834 67.9314 50.5674C67.9101 50.9514 67.8781 51.2714 67.8354 51.5274H55.1634V48.6154H65.4354L62.8434 49.6074C62.8434 48.3274 62.6088 47.346 62.1394 46.6634C61.6914 45.9807 60.9874 45.6394 60.0274 45.6394C59.3448 45.6394 58.7581 45.7994 58.2674 46.1194C57.7981 46.4394 57.4354 46.9407 57.1794 47.6234C56.9448 48.306 56.8274 49.1807 56.8274 50.2474C56.8274 51.2927 56.9661 52.146 57.2434 52.8074C57.5208 53.4474 57.9154 53.9167 58.4274 54.2154C58.9394 54.4927 59.5581 54.6314 60.2834 54.6314C61.0941 54.6314 61.7341 54.4714 62.2034 54.1514C62.6941 53.8314 63.0568 53.3834 63.2914 52.8074L67.6434 54.2474C67.3448 55.1647 66.8221 55.9434 66.0754 56.5834C65.3501 57.202 64.4754 57.6714 63.4514 57.9914C62.4488 58.3114 61.3928 58.4714 60.2834 58.4714ZM79.9347 48.0074C79.9347 47.2607 79.7214 46.674 79.2947 46.2474C78.8894 45.7994 78.3347 45.5754 77.6307 45.5754C76.9267 45.5754 76.3187 45.7567 75.8067 46.1194C75.316 46.4607 74.9747 47.0794 74.7827 47.9754L70.1747 46.8874C70.4734 45.3514 71.2627 44.1247 72.5427 43.2074C73.8227 42.29 75.6254 41.8314 77.9507 41.8314C79.508 41.8314 80.8307 42.066 81.9187 42.5354C83.028 42.9834 83.8707 43.666 84.4467 44.5834C85.044 45.4794 85.3427 46.5887 85.3427 47.9114V53.7674C85.3427 54.5994 85.716 55.0154 86.4627 55.0154C86.8467 55.0154 87.156 54.9727 87.3907 54.8874L87.0707 57.9914C86.4307 58.29 85.652 58.4394 84.7347 58.4394C83.9027 58.4394 83.1667 58.3114 82.5267 58.0554C81.8867 57.778 81.3854 57.3727 81.0227 56.8394C80.66 56.2847 80.4787 55.5914 80.4787 54.7594V54.5674L81.0867 54.3434C81.0867 55.2607 80.8094 56.0287 80.2547 56.6474C79.7214 57.266 79.0174 57.7247 78.1427 58.0234C77.2894 58.322 76.3934 58.4714 75.4547 58.4714C74.3667 58.4714 73.4174 58.3007 72.6067 57.9594C71.796 57.618 71.1667 57.1274 70.7187 56.4874C70.292 55.826 70.0787 55.0154 70.0787 54.0554C70.0787 52.9034 70.42 51.954 71.1027 51.2074C71.8067 50.4394 72.9054 49.906 74.3987 49.6074L80.4467 48.3594L80.4147 51.2394L77.3427 51.8794C76.7027 52.0074 76.2227 52.1994 75.9027 52.4554C75.604 52.69 75.4547 53.0527 75.4547 53.5434C75.4547 54.0127 75.6254 54.3647 75.9667 54.5994C76.308 54.834 76.7134 54.9514 77.1827 54.9514C77.5454 54.9514 77.8867 54.898 78.2067 54.7914C78.548 54.6847 78.8467 54.5247 79.1027 54.3114C79.3587 54.0767 79.5614 53.7887 79.7107 53.4474C79.86 53.106 79.9347 52.7007 79.9347 52.2314V48.0074ZM89.5379 58.1514V42.1514H94.4019L94.5619 45.2554C95.0739 44.1247 95.7886 43.2714 96.7059 42.6954C97.6446 42.1194 98.7219 41.8314 99.9379 41.8314C101.133 41.8314 102.167 42.098 103.042 42.6314C103.917 43.1647 104.567 43.954 104.994 44.9994C105.335 44.2954 105.773 43.7087 106.306 43.2394C106.861 42.77 107.49 42.418 108.194 42.1834C108.898 41.9487 109.623 41.8314 110.37 41.8314C111.437 41.8314 112.375 42.0447 113.186 42.4714C113.997 42.8767 114.637 43.506 115.106 44.3594C115.597 45.1914 115.842 46.2367 115.842 47.4954V58.1514H110.402V48.7434C110.402 47.7194 110.199 47.0047 109.794 46.5994C109.41 46.194 108.887 45.9914 108.226 45.9914C107.693 45.9914 107.202 46.13 106.754 46.4074C106.327 46.6634 105.997 47.058 105.762 47.5914C105.527 48.1247 105.41 48.7967 105.41 49.6074V58.1514H99.9699V48.7434C99.9699 47.7194 99.7673 47.0047 99.3619 46.5994C98.9566 46.194 98.4339 45.9914 97.7939 45.9914C97.3033 45.9914 96.8339 46.1194 96.3859 46.3754C95.9593 46.6314 95.6179 47.0367 95.3619 47.5914C95.1059 48.1247 94.9779 48.8287 94.9779 49.7034V58.1514H89.5379Z" fill="#05793C"/>
<path d="M45.1859 129.54L42.5459 145.38H40.9139L43.5539 129.54H45.1859ZM46.3859 139.476V140.94H33.0659V139.476H46.3859ZM39.5699 129.54L36.9299 145.38H35.2979L37.9379 129.54H39.5699ZM47.4419 133.956V135.42H34.1219V133.956H47.4419ZM60.2501 131.172L60.6821 132.876C60.6661 132.876 60.6421 132.876 60.6101 132.876C60.5781 132.876 60.5461 132.876 60.5141 132.876C59.7301 132.876 59.1221 133.036 58.6901 133.356C58.2741 133.66 58.0661 134.156 58.0661 134.844L56.8901 134.244C56.8901 133.62 57.0341 133.076 57.3221 132.612C57.6101 132.148 58.0021 131.796 58.4981 131.556C58.9941 131.3 59.5381 131.172 60.1301 131.172C60.1461 131.172 60.1621 131.172 60.1781 131.172C60.2101 131.172 60.2341 131.172 60.2501 131.172ZM56.6021 143.844C57.7381 143.844 58.6261 144.108 59.2661 144.636C59.9061 145.148 60.2261 145.836 60.2261 146.7C60.2261 147.484 59.9621 148.164 59.4341 148.74C58.9221 149.316 58.2261 149.756 57.3461 150.06C56.4821 150.38 55.5061 150.54 54.4181 150.54C52.5301 150.54 51.1141 150.22 50.1701 149.58C49.2421 148.94 48.7781 148.172 48.7781 147.276C48.7781 146.636 48.9861 146.06 49.4021 145.548C49.8341 145.052 50.5541 144.772 51.5621 144.708L51.3941 145.068C50.8501 144.924 50.3861 144.684 50.0021 144.348C49.6341 143.996 49.4501 143.492 49.4501 142.836C49.4501 142.18 49.6901 141.62 50.1701 141.156C50.6661 140.676 51.3941 140.38 52.3541 140.268L53.6261 140.916H53.3861C52.6021 140.996 52.0421 141.196 51.7061 141.516C51.3861 141.82 51.2261 142.156 51.2261 142.524C51.2261 142.972 51.3861 143.308 51.7061 143.532C52.0421 143.74 52.5061 143.844 53.0981 143.844H56.6021ZM54.3941 148.932C55.3221 148.932 56.0821 148.836 56.6741 148.644C57.2821 148.452 57.7301 148.204 58.0181 147.9C58.3061 147.596 58.4501 147.268 58.4501 146.916C58.4501 146.484 58.2741 146.14 57.9221 145.884C57.5861 145.628 56.9701 145.5 56.0741 145.5H52.3781C51.8661 145.5 51.4341 145.628 51.0821 145.884C50.7301 146.156 50.5541 146.524 50.5541 146.988C50.5541 147.58 50.8901 148.052 51.5621 148.404C52.2501 148.756 53.1941 148.932 54.3941 148.932ZM54.2261 133.14C55.1861 133.14 56.0341 133.316 56.7701 133.668C57.5221 134.004 58.1061 134.476 58.5221 135.084C58.9381 135.692 59.1461 136.396 59.1461 137.196C59.1461 137.98 58.9381 138.684 58.5221 139.308C58.1061 139.916 57.5221 140.396 56.7701 140.748C56.0341 141.084 55.1861 141.252 54.2261 141.252C52.6421 141.252 51.4261 140.876 50.5781 140.124C49.7301 139.356 49.3061 138.38 49.3061 137.196C49.3061 136.396 49.5141 135.692 49.9301 135.084C50.3621 134.476 50.9461 134.004 51.6821 133.668C52.4181 133.316 53.2661 133.14 54.2261 133.14ZM54.2261 134.7C53.3941 134.7 52.6981 134.932 52.1381 135.396C51.5781 135.844 51.2981 136.444 51.2981 137.196C51.2981 137.932 51.5781 138.532 52.1381 138.996C52.6981 139.46 53.3941 139.692 54.2261 139.692C55.0581 139.692 55.7541 139.46 56.3141 138.996C56.8741 138.532 57.1541 137.932 57.1541 137.196C57.1541 136.444 56.8741 135.844 56.3141 135.396C55.7541 134.932 55.0581 134.7 54.2261 134.7ZM67.9355 145.62C66.7995 145.62 65.7835 145.372 64.8875 144.876C64.0075 144.38 63.3195 143.668 62.8235 142.74C62.3275 141.796 62.0795 140.676 62.0795 139.38C62.0795 138.084 62.3275 136.972 62.8235 136.044C63.3195 135.1 63.9995 134.38 64.8635 133.884C65.7275 133.388 66.7115 133.14 67.8155 133.14C68.9355 133.14 69.8875 133.38 70.6715 133.86C71.4715 134.34 72.0795 134.996 72.4955 135.828C72.9115 136.644 73.1195 137.564 73.1195 138.588C73.1195 138.86 73.1115 139.108 73.0955 139.332C73.0795 139.556 73.0555 139.756 73.0235 139.932H63.3275V138.228H72.1835L71.1995 138.42C71.1995 137.268 70.8795 136.38 70.2395 135.756C69.6155 135.132 68.7915 134.82 67.7675 134.82C66.9835 134.82 66.3035 135.004 65.7275 135.372C65.1675 135.724 64.7275 136.244 64.4075 136.932C64.1035 137.604 63.9515 138.42 63.9515 139.38C63.9515 140.324 64.1115 141.14 64.4315 141.828C64.7515 142.516 65.1995 143.044 65.7755 143.412C66.3675 143.764 67.0715 143.94 67.8875 143.94C68.7675 143.94 69.4795 143.772 70.0235 143.436C70.5835 143.1 71.0315 142.644 71.3675 142.068L72.8795 142.956C72.5755 143.5 72.1835 143.972 71.7035 144.372C71.2395 144.772 70.6875 145.084 70.0475 145.308C69.4235 145.516 68.7195 145.62 67.9355 145.62ZM76.7711 145.38V133.38H78.4511L78.6191 136.068L78.3071 135.804C78.5631 135.164 78.9071 134.652 79.3391 134.268C79.7711 133.868 80.2671 133.58 80.8271 133.404C81.4031 133.228 81.9951 133.14 82.6031 133.14C83.4671 133.14 84.2511 133.308 84.9551 133.644C85.6591 133.964 86.2191 134.46 86.6351 135.132C87.0671 135.804 87.2831 136.66 87.2831 137.7V145.38H85.3631V138.372C85.3631 137.044 85.0751 136.124 84.4991 135.612C83.9391 135.084 83.2431 134.82 82.4111 134.82C81.8351 134.82 81.2591 134.956 80.6831 135.228C80.1071 135.5 79.6271 135.94 79.2431 136.548C78.8751 137.156 78.6911 137.972 78.6911 138.996V145.38H76.7711ZM96.6464 145.62C95.5104 145.62 94.4944 145.372 93.5984 144.876C92.7184 144.38 92.0304 143.668 91.5344 142.74C91.0384 141.796 90.7904 140.676 90.7904 139.38C90.7904 138.084 91.0384 136.972 91.5344 136.044C92.0304 135.1 92.7104 134.38 93.5744 133.884C94.4384 133.388 95.4224 133.14 96.5264 133.14C97.6464 133.14 98.5984 133.38 99.3824 133.86C100.182 134.34 100.79 134.996 101.206 135.828C101.622 136.644 101.83 137.564 101.83 138.588C101.83 138.86 101.822 139.108 101.806 139.332C101.79 139.556 101.766 139.756 101.734 139.932H92.0384V138.228H100.894L99.9104 138.42C99.9104 137.268 99.5904 136.38 98.9504 135.756C98.3264 135.132 97.5024 134.82 96.4784 134.82C95.6944 134.82 95.0144 135.004 94.4384 135.372C93.8784 135.724 93.4384 136.244 93.1184 136.932C92.8144 137.604 92.6624 138.42 92.6624 139.38C92.6624 140.324 92.8224 141.14 93.1424 141.828C93.4624 142.516 93.9104 143.044 94.4864 143.412C95.0784 143.764 95.7824 143.94 96.5984 143.94C97.4784 143.94 98.1904 143.772 98.7344 143.436C99.2944 143.1 99.7424 142.644 100.078 142.068L101.59 142.956C101.286 143.5 100.894 143.972 100.414 144.372C99.9504 144.772 99.3984 145.084 98.7584 145.308C98.1344 145.516 97.4304 145.62 96.6464 145.62ZM105.482 145.38V133.38H107.042L107.306 135.348C107.642 134.612 108.13 134.06 108.77 133.692C109.426 133.324 110.218 133.14 111.146 133.14C111.354 133.14 111.578 133.156 111.818 133.188C112.074 133.22 112.29 133.284 112.466 133.38L112.13 135.132C111.954 135.068 111.762 135.02 111.554 134.988C111.346 134.956 111.05 134.94 110.666 134.94C110.17 134.94 109.666 135.084 109.154 135.372C108.658 135.66 108.242 136.1 107.906 136.692C107.57 137.268 107.402 138.004 107.402 138.9V145.38H105.482ZM121.959 137.628C121.959 136.732 121.719 136.044 121.239 135.564C120.759 135.068 120.079 134.82 119.199 134.82C118.367 134.82 117.663 135.004 117.087 135.372C116.511 135.724 116.087 136.3 115.815 137.1L114.255 136.14C114.575 135.244 115.167 134.524 116.031 133.98C116.895 133.42 117.967 133.14 119.247 133.14C120.111 133.14 120.895 133.292 121.599 133.596C122.303 133.884 122.855 134.332 123.255 134.94C123.671 135.532 123.879 136.3 123.879 137.244V143.052C123.879 143.628 124.183 143.916 124.791 143.916C125.095 143.916 125.391 143.876 125.679 143.796L125.583 145.308C125.263 145.468 124.847 145.548 124.335 145.548C123.871 145.548 123.455 145.46 123.087 145.284C122.719 145.108 122.431 144.844 122.223 144.492C122.015 144.124 121.911 143.668 121.911 143.124V142.884L122.391 142.956C122.199 143.58 121.871 144.092 121.407 144.492C120.943 144.876 120.423 145.164 119.847 145.356C119.271 145.532 118.703 145.62 118.143 145.62C117.439 145.62 116.783 145.5 116.175 145.26C115.567 145.02 115.079 144.66 114.711 144.18C114.359 143.684 114.183 143.076 114.183 142.356C114.183 141.46 114.479 140.724 115.071 140.148C115.679 139.556 116.519 139.156 117.591 138.948L122.343 138.012V139.596L118.479 140.388C117.695 140.548 117.111 140.772 116.727 141.06C116.343 141.348 116.151 141.748 116.151 142.26C116.151 142.756 116.343 143.164 116.727 143.484C117.127 143.788 117.687 143.94 118.407 143.94C118.871 143.94 119.311 143.884 119.727 143.772C120.159 143.644 120.543 143.46 120.879 143.22C121.215 142.964 121.479 142.652 121.671 142.284C121.863 141.9 121.959 141.452 121.959 140.94V137.628ZM130.369 127.86V142.332C130.369 142.94 130.481 143.364 130.705 143.604C130.929 143.828 131.289 143.94 131.785 143.94C132.105 143.94 132.369 143.916 132.577 143.868C132.785 143.82 133.065 143.732 133.417 143.604L133.105 145.284C132.849 145.396 132.569 145.476 132.265 145.524C131.961 145.588 131.649 145.62 131.329 145.62C130.353 145.62 129.625 145.356 129.145 144.828C128.681 144.3 128.449 143.492 128.449 142.404V127.86H130.369ZM45.1859 211.54L42.5459 227.38H40.9139L43.5539 211.54H45.1859ZM46.3859 221.476V222.94H33.0659V221.476H46.3859ZM39.5699 211.54L36.9299 227.38H35.2979L37.9379 211.54H39.5699ZM47.4419 215.956V217.42H34.1219V215.956H47.4419ZM54.4661 227.62C53.2981 227.62 52.2181 227.372 51.2261 226.876C50.2501 226.38 49.4981 225.676 48.9701 224.764L50.6021 223.588C50.9541 224.324 51.4661 224.9 52.1381 225.316C52.8261 225.732 53.6501 225.94 54.6101 225.94C55.4581 225.94 56.1221 225.78 56.6021 225.46C57.0821 225.124 57.3221 224.692 57.3221 224.164C57.3221 223.828 57.2101 223.524 56.9861 223.252C56.7781 222.964 56.3701 222.756 55.7621 222.628L52.8821 222.028C51.7141 221.788 50.8741 221.388 50.3621 220.828C49.8661 220.268 49.6181 219.572 49.6181 218.74C49.6181 218.084 49.8021 217.484 50.1701 216.94C50.5541 216.396 51.0901 215.964 51.7781 215.644C52.4821 215.308 53.3061 215.14 54.2501 215.14C55.4341 215.14 56.4341 215.372 57.2501 215.836C58.0661 216.3 58.6741 216.956 59.0741 217.804L57.4661 218.86C57.1941 218.156 56.7541 217.644 56.1461 217.324C55.5381 216.988 54.9061 216.82 54.2501 216.82C53.6741 216.82 53.1781 216.9 52.7621 217.06C52.3621 217.22 52.0501 217.444 51.8261 217.732C51.6181 218.004 51.5141 218.316 51.5141 218.668C51.5141 219.02 51.6341 219.348 51.8741 219.652C52.1141 219.94 52.5621 220.148 53.2181 220.276L56.2181 220.9C57.3381 221.124 58.1221 221.492 58.5701 222.004C59.0181 222.516 59.2421 223.14 59.2421 223.876C59.2421 224.628 59.0421 225.292 58.6421 225.868C58.2421 226.428 57.6821 226.86 56.9621 227.164C56.2421 227.468 55.4101 227.62 54.4661 227.62ZM67.7703 215.14C68.9063 215.14 69.9063 215.388 70.7703 215.884C71.6503 216.38 72.3383 217.1 72.8343 218.044C73.3303 218.972 73.5783 220.084 73.5783 221.38C73.5783 222.676 73.3303 223.796 72.8343 224.74C72.3383 225.668 71.6503 226.38 70.7703 226.876C69.9063 227.372 68.9063 227.62 67.7703 227.62C66.6503 227.62 65.6503 227.372 64.7703 226.876C63.8903 226.38 63.2023 225.668 62.7063 224.74C62.2103 223.796 61.9623 222.676 61.9623 221.38C61.9623 220.084 62.2103 218.972 62.7063 218.044C63.2023 217.1 63.8903 216.38 64.7703 215.884C65.6503 215.388 66.6503 215.14 67.7703 215.14ZM67.7703 216.796C66.9543 216.796 66.2583 216.98 65.6823 217.348C65.1063 217.716 64.6583 218.244 64.3383 218.932C64.0343 219.604 63.8823 220.42 63.8823 221.38C63.8823 222.324 64.0343 223.14 64.3383 223.828C64.6583 224.516 65.1063 225.044 65.6823 225.412C66.2583 225.78 66.9543 225.964 67.7703 225.964C68.5863 225.964 69.2823 225.78 69.8583 225.412C70.4343 225.044 70.8743 224.516 71.1783 223.828C71.4983 223.14 71.6583 222.324 71.6583 221.38C71.6583 220.42 71.4983 219.604 71.1783 218.932C70.8743 218.244 70.4343 217.716 69.8583 217.348C69.2823 216.98 68.5863 216.796 67.7703 216.796ZM82.1609 215.14C82.9929 215.14 83.7209 215.268 84.3449 215.524C84.9849 215.78 85.5369 216.148 86.0009 216.628C86.4649 217.108 86.8409 217.676 87.1289 218.332L85.3049 219.196C85.0489 218.428 84.6569 217.844 84.1289 217.444C83.6169 217.028 82.9449 216.82 82.1129 216.82C81.3129 216.82 80.6249 217.004 80.0489 217.372C79.4729 217.724 79.0329 218.244 78.7289 218.932C78.4249 219.604 78.2729 220.42 78.2729 221.38C78.2729 222.324 78.4249 223.14 78.7289 223.828C79.0329 224.516 79.4729 225.044 80.0489 225.412C80.6249 225.764 81.3129 225.94 82.1129 225.94C82.7369 225.94 83.2729 225.844 83.7209 225.652C84.1849 225.46 84.5609 225.18 84.8489 224.812C85.1529 224.444 85.3609 223.996 85.4729 223.468L87.2489 224.092C86.9769 224.828 86.6009 225.46 86.1209 225.988C85.6569 226.516 85.0889 226.924 84.4169 227.212C83.7609 227.484 83.0089 227.62 82.1609 227.62C81.0409 227.62 80.0409 227.372 79.1609 226.876C78.2809 226.38 77.5929 225.668 77.0969 224.74C76.6009 223.796 76.3529 222.676 76.3529 221.38C76.3529 220.084 76.6009 218.972 77.0969 218.044C77.5929 217.1 78.2809 216.38 79.1609 215.884C80.0409 215.388 81.0409 215.14 82.1609 215.14ZM91.5826 213.076C91.1506 213.076 90.7986 212.948 90.5266 212.692C90.2706 212.42 90.1426 212.068 90.1426 211.636C90.1426 211.204 90.2706 210.86 90.5266 210.604C90.7986 210.332 91.1506 210.196 91.5826 210.196C92.0146 210.196 92.3586 210.332 92.6146 210.604C92.8866 210.86 93.0226 211.204 93.0226 211.636C93.0226 212.068 92.8866 212.42 92.6146 212.692C92.3586 212.948 92.0146 213.076 91.5826 213.076ZM92.5426 215.38V227.38H90.6226V215.38H92.5426ZM104.006 219.628C104.006 218.732 103.766 218.044 103.286 217.564C102.806 217.068 102.126 216.82 101.246 216.82C100.414 216.82 99.7096 217.004 99.1336 217.372C98.5576 217.724 98.1336 218.3 97.8616 219.1L96.3016 218.14C96.6216 217.244 97.2136 216.524 98.0776 215.98C98.9416 215.42 100.014 215.14 101.294 215.14C102.158 215.14 102.942 215.292 103.646 215.596C104.35 215.884 104.902 216.332 105.302 216.94C105.718 217.532 105.926 218.3 105.926 219.244V225.052C105.926 225.628 106.23 225.916 106.838 225.916C107.142 225.916 107.438 225.876 107.726 225.796L107.63 227.308C107.31 227.468 106.894 227.548 106.382 227.548C105.918 227.548 105.502 227.46 105.134 227.284C104.766 227.108 104.478 226.844 104.27 226.492C104.062 226.124 103.958 225.668 103.958 225.124V224.884L104.438 224.956C104.246 225.58 103.918 226.092 103.454 226.492C102.99 226.876 102.47 227.164 101.894 227.356C101.318 227.532 100.75 227.62 100.19 227.62C99.4856 227.62 98.8296 227.5 98.2216 227.26C97.6136 227.02 97.1256 226.66 96.7576 226.18C96.4056 225.684 96.2296 225.076 96.2296 224.356C96.2296 223.46 96.5256 222.724 97.1176 222.148C97.7256 221.556 98.5656 221.156 99.6376 220.948L104.39 220.012V221.596L100.526 222.388C99.7416 222.548 99.1576 222.772 98.7736 223.06C98.3896 223.348 98.1976 223.748 98.1976 224.26C98.1976 224.756 98.3896 225.164 98.7736 225.484C99.1736 225.788 99.7336 225.94 100.454 225.94C100.918 225.94 101.358 225.884 101.774 225.772C102.206 225.644 102.59 225.46 102.926 225.22C103.262 224.964 103.526 224.652 103.718 224.284C103.91 223.9 104.006 223.452 104.006 222.94V219.628ZM112.415 209.86V224.332C112.415 224.94 112.527 225.364 112.751 225.604C112.975 225.828 113.335 225.94 113.831 225.94C114.151 225.94 114.415 225.916 114.623 225.868C114.831 225.82 115.111 225.732 115.463 225.604L115.151 227.284C114.895 227.396 114.615 227.476 114.311 227.524C114.007 227.588 113.695 227.62 113.375 227.62C112.399 227.62 111.671 227.356 111.191 226.828C110.727 226.3 110.495 225.492 110.495 224.404V209.86H112.415ZM45.1859 252.54L42.5459 268.38H40.9139L43.5539 252.54H45.1859ZM46.3859 262.476V263.94H33.0659V262.476H46.3859ZM39.5699 252.54L36.9299 268.38H35.2979L37.9379 252.54H39.5699ZM47.4419 256.956V258.42H34.1219V256.956H47.4419ZM65.1941 256.38H67.3301L63.1541 268.38H61.2341L57.8501 258.828L54.6581 268.38H52.7381L48.5621 256.38H50.6981L53.7221 266.148L56.9861 256.38H58.9061L62.1701 266.148L65.1941 256.38ZM74.8016 256.14C75.9376 256.14 76.9376 256.388 77.8016 256.884C78.6816 257.38 79.3696 258.1 79.8656 259.044C80.3616 259.972 80.6096 261.084 80.6096 262.38C80.6096 263.676 80.3616 264.796 79.8656 265.74C79.3696 266.668 78.6816 267.38 77.8016 267.876C76.9376 268.372 75.9376 268.62 74.8016 268.62C73.6816 268.62 72.6816 268.372 71.8016 267.876C70.9216 267.38 70.2336 266.668 69.7376 265.74C69.2416 264.796 68.9936 263.676 68.9936 262.38C68.9936 261.084 69.2416 259.972 69.7376 259.044C70.2336 258.1 70.9216 257.38 71.8016 256.884C72.6816 256.388 73.6816 256.14 74.8016 256.14ZM74.8016 257.796C73.9856 257.796 73.2896 257.98 72.7136 258.348C72.1376 258.716 71.6896 259.244 71.3696 259.932C71.0656 260.604 70.9136 261.42 70.9136 262.38C70.9136 263.324 71.0656 264.14 71.3696 264.828C71.6896 265.516 72.1376 266.044 72.7136 266.412C73.2896 266.78 73.9856 266.964 74.8016 266.964C75.6176 266.964 76.3136 266.78 76.8896 266.412C77.4656 266.044 77.9056 265.516 78.2096 264.828C78.5296 264.14 78.6896 263.324 78.6896 262.38C78.6896 261.42 78.5296 260.604 78.2096 259.932C77.9056 259.244 77.4656 258.716 76.8896 258.348C76.3136 257.98 75.6176 257.796 74.8016 257.796ZM84.2242 268.38V256.38H85.7842L86.0482 258.348C86.3842 257.612 86.8722 257.06 87.5122 256.692C88.1682 256.324 88.9602 256.14 89.8882 256.14C90.0962 256.14 90.3202 256.156 90.5602 256.188C90.8162 256.22 91.0322 256.284 91.2082 256.38L90.8722 258.132C90.6962 258.068 90.5042 258.02 90.2962 257.988C90.0882 257.956 89.7922 257.94 89.4082 257.94C88.9122 257.94 88.4082 258.084 87.8962 258.372C87.4002 258.66 86.9842 259.1 86.6482 259.692C86.3122 260.268 86.1442 261.004 86.1442 261.9V268.38H84.2242ZM104.557 256.38L99.3731 261.564L98.9171 262.02L94.9811 265.956V263.556L102.133 256.38H104.557ZM95.9411 250.86V268.38H94.0211V250.86H95.9411ZM99.5411 260.58L104.845 268.38H102.517L97.9331 261.66L99.5411 260.58Z" fill="#05793C"/>
<path d="M45.1859 170.54L42.5459 186.38H40.9139L43.5539 170.54H45.1859ZM46.3859 180.476V181.94H33.0659V180.476H46.3859ZM39.5699 170.54L36.9299 186.38H35.2979L37.9379 170.54H39.5699ZM47.4419 174.956V176.42H34.1219V174.956H47.4419ZM50.1461 191.42V174.38H51.8261L51.9941 177.308L51.7301 176.972C51.9381 176.412 52.2501 175.924 52.6661 175.508C53.0821 175.076 53.5861 174.74 54.1781 174.5C54.7701 174.26 55.4101 174.14 56.0981 174.14C57.0741 174.14 57.9701 174.388 58.7861 174.884C59.6181 175.38 60.2821 176.092 60.7781 177.02C61.2741 177.948 61.5221 179.068 61.5221 180.38C61.5221 181.676 61.2661 182.796 60.7541 183.74C60.2581 184.668 59.5941 185.38 58.7621 185.876C57.9301 186.372 57.0181 186.62 56.0261 186.62C55.0341 186.62 54.1621 186.38 53.4101 185.9C52.6741 185.404 52.1461 184.78 51.8261 184.028L52.0661 183.668V191.42H50.1461ZM55.8341 184.94C57.0181 184.94 57.9381 184.524 58.5941 183.692C59.2661 182.86 59.6021 181.756 59.6021 180.38C59.6021 179.004 59.2741 177.9 58.6181 177.068C57.9781 176.236 57.0741 175.82 55.9061 175.82C55.1381 175.82 54.4661 176.012 53.8901 176.396C53.3141 176.764 52.8661 177.292 52.5461 177.98C52.2261 178.652 52.0661 179.452 52.0661 180.38C52.0661 181.292 52.2181 182.092 52.5221 182.78C52.8421 183.468 53.2821 184.004 53.8421 184.388C54.4181 184.756 55.0821 184.94 55.8341 184.94ZM66.1529 172.076C65.7209 172.076 65.3689 171.948 65.0969 171.692C64.8409 171.42 64.7129 171.068 64.7129 170.636C64.7129 170.204 64.8409 169.86 65.0969 169.604C65.3689 169.332 65.7209 169.196 66.1529 169.196C66.5849 169.196 66.9289 169.332 67.1849 169.604C67.4569 169.86 67.5929 170.204 67.5929 170.636C67.5929 171.068 67.4569 171.42 67.1849 171.692C66.9289 171.948 66.5849 172.076 66.1529 172.076ZM67.1129 174.38V186.38H65.1929V174.38H67.1129ZM70.7039 186.38V184.916L76.9919 177.548L78.5039 175.988L76.3679 176.036H70.7759V174.38H80.6399V175.844L74.3519 183.212L72.8639 184.772L75.1919 184.724H80.8319V186.38H70.7039ZM83.5243 186.38V184.916L89.8123 177.548L91.3243 175.988L89.1883 176.036H83.5963V174.38H93.4603V175.844L87.1723 183.212L85.6842 184.772L88.0123 184.724H93.6523V186.38H83.5243ZM104.217 178.628C104.217 177.732 103.977 177.044 103.497 176.564C103.017 176.068 102.337 175.82 101.457 175.82C100.625 175.82 99.9206 176.004 99.3446 176.372C98.7686 176.724 98.3446 177.3 98.0726 178.1L96.5126 177.14C96.8326 176.244 97.4246 175.524 98.2886 174.98C99.1526 174.42 100.225 174.14 101.505 174.14C102.369 174.14 103.153 174.292 103.857 174.596C104.561 174.884 105.113 175.332 105.513 175.94C105.929 176.532 106.137 177.3 106.137 178.244V184.052C106.137 184.628 106.441 184.916 107.049 184.916C107.353 184.916 107.649 184.876 107.937 184.796L107.841 186.308C107.521 186.468 107.105 186.548 106.593 186.548C106.129 186.548 105.713 186.46 105.345 186.284C104.977 186.108 104.689 185.844 104.481 185.492C104.273 185.124 104.169 184.668 104.169 184.124V183.884L104.649 183.956C104.457 184.58 104.129 185.092 103.665 185.492C103.201 185.876 102.681 186.164 102.105 186.356C101.529 186.532 100.961 186.62 100.401 186.62C99.6966 186.62 99.0406 186.5 98.4326 186.26C97.8246 186.02 97.3366 185.66 96.9686 185.18C96.6166 184.684 96.4406 184.076 96.4406 183.356C96.4406 182.46 96.7366 181.724 97.3286 181.148C97.9366 180.556 98.7766 180.156 99.8486 179.948L104.601 179.012V180.596L100.737 181.388C99.9526 181.548 99.3686 181.772 98.9846 182.06C98.6006 182.348 98.4086 182.748 98.4086 183.26C98.4086 183.756 98.6006 184.164 98.9846 184.484C99.3846 184.788 99.9446 184.94 100.665 184.94C101.129 184.94 101.569 184.884 101.985 184.772C102.417 184.644 102.801 184.46 103.137 184.22C103.473 183.964 103.737 183.652 103.929 183.284C104.121 182.9 104.217 182.452 104.217 181.94V178.628Z" fill="#003A1C"/>
<path d="M250.282 38.2765L246.858 59.3965H243.178L246.57 38.2765H250.282ZM251.786 51.0445V54.3085H232.81V51.0445H251.786ZM242.442 38.2765L239.05 59.3965H235.338L238.73 38.2765H242.442ZM253.162 43.3645V46.6285H234.186V43.3645H253.162ZM255.961 66.1165V43.3965H260.857L261.145 49.1885L260.505 48.5165C260.654 47.4498 260.985 46.5112 261.497 45.7005C262.009 44.8898 262.67 44.2498 263.481 43.7805C264.291 43.3111 265.219 43.0765 266.265 43.0765C267.587 43.0765 268.739 43.4071 269.721 44.0685C270.702 44.7085 271.459 45.6472 271.993 46.8845C272.547 48.1005 272.825 49.5832 272.825 51.3325C272.825 53.0818 272.547 54.5858 271.993 55.8445C271.438 57.1032 270.659 58.0632 269.657 58.7245C268.675 59.3858 267.523 59.7165 266.201 59.7165C264.75 59.7165 263.577 59.2898 262.681 58.4365C261.785 57.5618 261.187 56.4632 260.889 55.1405L261.401 54.3725V66.1165H255.961ZM264.345 55.7165C265.283 55.7165 266.019 55.3752 266.553 54.6925C267.086 53.9885 267.353 52.8898 267.353 51.3965C267.353 49.9032 267.086 48.8152 266.553 48.1325C266.041 47.4285 265.315 47.0765 264.377 47.0765C263.779 47.0765 263.257 47.2472 262.809 47.5885C262.361 47.9085 262.009 48.3885 261.753 49.0285C261.518 49.6685 261.401 50.4578 261.401 51.3965C261.401 52.2925 261.507 53.0712 261.721 53.7325C261.955 54.3725 262.297 54.8632 262.745 55.2045C263.193 55.5458 263.726 55.7165 264.345 55.7165ZM278.743 41.5405C277.634 41.5405 276.823 41.3378 276.311 40.9325C275.821 40.5058 275.575 39.8445 275.575 38.9485C275.575 38.0311 275.821 37.3698 276.311 36.9645C276.823 36.5378 277.634 36.3245 278.743 36.3245C279.831 36.3245 280.631 36.5378 281.143 36.9645C281.655 37.3698 281.911 38.0311 281.911 38.9485C281.911 39.8445 281.655 40.5058 281.143 40.9325C280.631 41.3378 279.831 41.5405 278.743 41.5405ZM281.463 43.3965V59.3965H276.023V43.3965H281.463ZM284.504 59.3965V56.0685L290.872 48.8365L292.568 47.1405L290.04 47.2045H284.568V43.3965H298.584V46.7245L292.312 53.8925L290.552 55.6525L293.368 55.5885H298.872V59.3965H284.504ZM301.004 59.3965V56.0685L307.372 48.8365L309.068 47.1405L306.54 47.2045H301.068V43.3965H315.084V46.7245L308.812 53.8925L307.052 55.6525L309.868 55.5885H315.372V59.3965H301.004ZM327.264 49.2525C327.264 48.5058 327.05 47.9192 326.624 47.4925C326.218 47.0445 325.664 46.8205 324.96 46.8205C324.256 46.8205 323.648 47.0018 323.136 47.3645C322.645 47.7058 322.304 48.3245 322.112 49.2205L317.504 48.1325C317.802 46.5965 318.592 45.3698 319.872 44.4525C321.152 43.5351 322.954 43.0765 325.28 43.0765C326.837 43.0765 328.16 43.3111 329.248 43.7805C330.357 44.2285 331.2 44.9112 331.776 45.8285C332.373 46.7245 332.672 47.8338 332.672 49.1565V55.0125C332.672 55.8445 333.045 56.2605 333.792 56.2605C334.176 56.2605 334.485 56.2178 334.72 56.1325L334.4 59.2365C333.76 59.5352 332.981 59.6845 332.064 59.6845C331.232 59.6845 330.496 59.5565 329.856 59.3005C329.216 59.0232 328.714 58.6178 328.352 58.0845C327.989 57.5298 327.808 56.8365 327.808 56.0045V55.8125L328.416 55.5885C328.416 56.5058 328.138 57.2738 327.584 57.8925C327.05 58.5112 326.346 58.9698 325.472 59.2685C324.618 59.5672 323.722 59.7165 322.784 59.7165C321.696 59.7165 320.746 59.5458 319.936 59.2045C319.125 58.8632 318.496 58.3725 318.048 57.7325C317.621 57.0712 317.408 56.2605 317.408 55.3005C317.408 54.1485 317.749 53.1992 318.432 52.4525C319.136 51.6845 320.234 51.1512 321.728 50.8525L327.776 49.6045L327.744 52.4845L324.672 53.1245C324.032 53.2525 323.552 53.4445 323.232 53.7005C322.933 53.9352 322.784 54.2978 322.784 54.7885C322.784 55.2578 322.954 55.6098 323.296 55.8445C323.637 56.0792 324.042 56.1965 324.512 56.1965C324.874 56.1965 325.216 56.1432 325.536 56.0365C325.877 55.9298 326.176 55.7698 326.432 55.5565C326.688 55.3218 326.89 55.0338 327.04 54.6925C327.189 54.3512 327.264 53.9458 327.264 53.4765V49.2525Z" fill="#05793C"/>
<path d="M127.144 43.424C127.049 43.3338 126.937 43.2633 126.814 43.2165C126.691 43.1696 126.56 43.1475 126.429 43.1512C126.298 43.1549 126.168 43.1844 126.049 43.2381C125.929 43.2918 125.82 43.3686 125.73 43.464C125.64 43.5595 125.57 43.6718 125.523 43.7945C125.476 43.9173 125.454 44.048 125.457 44.1793C125.461 44.3106 125.491 44.4399 125.544 44.5598C125.598 44.6797 125.675 44.7878 125.77 44.878L134.77 53.378C134.956 53.5536 135.202 53.6514 135.457 53.6514C135.713 53.6514 135.959 53.5536 136.144 53.378L145.145 44.878C145.243 44.7884 145.322 44.6803 145.377 44.56C145.432 44.4396 145.463 44.3095 145.468 44.1771C145.473 44.0447 145.451 43.9127 145.404 43.7887C145.358 43.6648 145.287 43.5513 145.196 43.455C145.105 43.3587 144.996 43.2814 144.875 43.2277C144.754 43.1739 144.623 43.1447 144.491 43.1418C144.358 43.1389 144.226 43.1624 144.103 43.2108C143.98 43.2593 143.867 43.3318 143.772 43.424L135.457 51.276L127.144 43.424Z" fill="#05793C"/>
<path d="M0 89.2656L563.441 89.2657" stroke="#05793C" stroke-width="3"/>
<path d="M240.541 286.973C240.642 286.886 240.667 286.852 240.693 286.847C242.579 286.377 242.832 285.317 241.674 283.802C239.05 280.381 235.632 277.736 232.485 274.826C230.793 273.262 229.082 271.718 227.456 270.094C225.142 267.795 223.57 265.009 222.092 262.168C220.573 259.252 219.476 256.209 219.079 252.94C218.748 250.219 218.291 247.511 218.08 244.78C217.899 242.41 218.256 240.041 219 237.744C219.039 237.617 219.112 237.496 219.196 237.318C219.425 237.315 219.663 237.293 219.896 237.316C221.998 237.495 224.049 237.198 226.069 236.601C228.6 235.851 229.944 234.177 230.166 231.677C230.236 230.869 230.192 230.056 230.2 229.13C230.434 229.26 230.649 229.333 230.8 229.469C232.056 230.635 232.73 232.078 232.998 233.737C233.327 235.784 233.389 237.84 233.347 239.916C233.31 241.677 233.377 243.44 233.403 245.198C233.446 247.77 234.475 249.991 236.001 252.024C236.899 253.221 238.111 253.991 239.6 254.332C243.102 255.131 246.484 254.873 249.57 252.871C250.827 252.055 252.034 251.132 253.125 250.113C255.171 248.2 255.746 245.814 255.296 243.174C254.757 240.016 253.375 237.239 251.07 234.965C249.83 233.74 248.458 232.629 247.063 231.566C244.803 229.841 243.231 227.671 242.23 225.087C242.13 224.834 242.065 224.571 242.008 224.306C241.968 224.111 241.963 223.91 241.939 223.652C242.591 223.534 243.026 223.877 243.486 224.164C245.154 225.195 246.921 226.037 248.941 226.162C250.054 226.232 251.213 226.216 252.305 225.997C254.153 225.62 255.61 224.712 255.784 222.548C256.059 222.679 256.306 222.729 256.445 222.876C257.274 223.737 258.213 224.538 258.869 225.512C260.517 227.949 261.819 230.564 262.588 233.4C262.779 234.109 262.851 234.857 262.934 235.59C263.04 236.551 263.75 237.175 264.686 237.066C265.368 236.99 265.754 236.641 265.963 236.006C266.107 235.563 266.298 235.129 266.504 234.704C267.031 233.625 267.564 232.548 268.126 231.484C270.556 226.87 271.321 221.938 271.465 216.87C271.512 215.244 271.681 213.623 271.838 212.004C272.212 208.085 272.622 204.171 272.986 200.249C273.14 198.588 273.354 196.941 273.882 195.341C274.38 193.824 275.488 192.927 277.213 192.315C276.951 192.779 276.802 193.072 276.628 193.349C273.843 197.786 276.119 202.68 280.189 204.339C280.891 204.625 281.619 204.855 282.173 205.434C282.395 205.669 282.864 205.683 283.361 205.847C283.391 207.48 283.489 209.169 283.435 210.855C283.316 214.57 282.605 218.185 281.399 221.747C279.863 226.289 277.99 230.708 276.015 235.08C274.72 237.949 273.038 240.661 271.52 243.437C271.024 244.343 270.493 245.23 269.986 246.13C269.85 246.37 269.72 246.617 269.645 246.875C269.414 247.635 269.725 248.361 270.392 248.697C271.062 249.031 271.858 248.866 272.395 248.257C272.533 248.103 272.649 247.928 272.752 247.75C274.366 244.905 275.984 242.063 277.572 239.201C278.124 238.207 278.647 237.197 279.073 236.153C280.798 231.937 282.663 227.778 284.195 223.486C286.159 217.985 286.968 212.401 286.621 206.651C286.601 206.315 286.611 205.974 286.581 205.635C286.529 205.077 286.582 204.62 287.121 204.2C287.412 203.976 287.601 203.383 287.531 203.017C287.12 200.89 288.044 199.223 289.494 197.757C290.245 196.998 291.087 196.291 291.98 195.692C292.825 195.126 293.519 195.242 294.322 195.862C294.194 195.975 294.087 196.102 293.949 196.183C290.372 198.248 289.451 201.643 290.188 205.078C290.588 206.945 291.594 208.513 292.806 209.979C293.15 210.394 293.465 210.845 293.72 211.314C294.124 212.058 294.792 211.903 295.435 211.813C295.478 211.904 295.535 211.967 295.526 212.02C294.853 216.32 294.211 220.615 292.306 224.656C290.993 227.451 289.918 230.346 288.6 233.137C287.724 234.994 286.644 236.767 285.586 238.54C283.834 241.466 282.029 244.367 280.233 247.271C279.962 247.707 279.591 248.088 279.339 248.533C279.023 249.093 278.678 249.667 278.527 250.275C278.349 251.004 278.791 251.659 279.436 251.929C280.077 252.196 280.849 252.022 281.352 251.45C281.601 251.164 281.807 250.839 282.005 250.519C284.522 246.441 287.064 242.374 289.541 238.273C291.361 235.252 292.708 232.021 294.069 228.8C294.361 228.107 294.595 227.386 294.921 226.708C297.525 221.37 298.335 215.644 299.077 209.912C299.187 209.076 299.473 208.551 300.256 208.164C301.18 207.71 302.097 207.273 303.138 207.171C303.8 207.107 304.395 207.219 304.719 207.87C301.741 209.797 300.872 212.589 300.994 215.752C301.059 217.4 301.792 218.824 303.026 219.968C303.953 220.824 304.92 221.634 306.039 222.61C306.013 223.01 305.993 223.646 305.923 224.277C305.425 228.8 304.335 233.18 302.25 237.314C301.598 238.601 301.001 239.913 300.418 241.235C299.179 244.042 297.651 246.687 295.786 249.161C294.076 251.426 292.535 253.828 290.647 255.949C286.793 260.278 283.092 264.76 278.521 268.453C278.278 268.647 278.06 268.884 277.876 269.133C276.9 270.435 275.943 271.748 275.019 272.998C274.998 273.427 275.058 273.833 274.958 274.195C274.265 276.625 274.177 279.091 274.328 281.566C274.662 287.219 276.296 292.44 279.442 297.233C281.76 300.769 284.091 304.282 286.9 307.48C288.261 309.027 289.732 310.46 291.402 311.706C292.481 312.512 293.534 313.345 294.591 314.178C296.035 315.314 297.596 316.253 299.293 317.025C303.895 319.118 308.743 320.439 313.769 321.255C317.39 321.843 321.022 322.219 324.707 322.146C325.092 322.137 325.486 322.16 325.862 322.23C327.936 322.625 329.996 322.476 332.062 322.064C336.409 321.206 340.654 319.983 344.736 318.304C346.746 317.477 348.629 316.35 350.541 315.304C355.602 312.533 360.008 308.921 364.416 305.3C367.371 302.87 370.13 300.278 372.496 297.301C373.666 295.826 375.122 294.617 376.623 293.46C380.205 290.702 383.599 287.755 386.802 284.588C388.855 282.558 391.146 280.755 393.346 278.87C395.127 277.349 396.958 275.883 398.73 274.359C401.212 272.226 404.084 270.658 406.868 268.947C411.069 266.361 415.644 264.657 420.378 263.282C425.781 261.708 431.236 260.353 436.821 259.637C443.107 258.832 449.289 259.263 455.235 261.465C456.413 261.901 457.605 262.309 458.799 262.708C463.151 264.162 467.166 266.192 470.737 268.987C473.371 271.047 476.085 273.025 478.613 275.195C482.719 278.718 485.931 282.957 488.78 287.468C491.861 292.35 494.299 297.524 496.474 302.832C497.116 304.397 497.838 305.934 498.506 307.491C498.662 307.862 498.757 308.262 498.859 308.652C499.652 311.699 500.466 314.737 501.21 317.793C501.577 319.3 501.828 320.837 502.1 322.37C502.538 324.87 502.942 327.377 503.376 329.878C503.422 330.136 503.546 330.397 503.693 330.616C504.062 331.168 504.7 331.393 505.341 331.242C506.013 331.087 506.497 330.535 506.549 329.851C506.566 329.65 506.547 329.443 506.515 329.242C505.952 325.801 505.454 322.349 504.786 318.927C504.384 316.876 503.713 314.873 503.154 312.85C503.047 312.457 502.928 312.07 502.804 311.684C502.678 311.281 502.66 310.932 502.952 310.539C503.446 309.87 503.298 309.222 502.817 308.573C502.396 308.004 502.015 307.39 501.728 306.745C500.001 302.874 498.378 298.958 496.589 295.12C493.316 288.106 489.26 281.556 483.882 275.834C481.598 273.404 479.042 271.257 476.366 269.238C475.151 268.327 473.914 267.441 472.713 266.51C469.046 263.677 464.974 261.537 460.538 260.012C458.72 259.386 456.904 258.751 455.086 258.13C450.006 256.395 444.729 256.007 439.356 256.281C436.843 256.408 434.369 256.799 431.905 257.296C425.486 258.585 419.16 260.192 413.019 262.47C409.59 263.743 406.476 265.583 403.356 267.419C400.439 269.137 397.709 271.07 395.17 273.291C392.547 275.592 389.791 277.754 387.114 280.004C386.152 280.815 385.219 281.662 384.354 282.562C381.721 285.308 378.847 287.809 375.814 290.124C373.182 292.13 370.746 294.298 368.712 296.88C367.248 298.739 365.502 300.353 363.644 301.845C360.7 304.208 357.786 306.609 354.779 308.898C351.764 311.192 348.466 313.112 345.049 314.77C342.85 315.838 340.438 316.501 338.104 317.293C336.298 317.907 334.451 318.365 332.539 318.59C331.159 318.754 329.796 318.712 328.425 318.577C327.959 318.532 327.468 318.668 326.992 318.741C326.616 318.801 326.251 318.94 325.878 318.96C320.787 319.252 315.822 318.502 310.882 317.52C307.101 316.767 303.509 315.516 300.074 313.871C298.891 313.306 297.831 312.509 296.732 311.792C296.299 311.509 295.942 311.122 295.513 310.834C290.393 307.365 286.781 302.626 283.525 297.596C282.044 295.31 280.5 293.048 279.527 290.498C277.746 285.828 277.098 281.001 277.778 276.02C277.906 275.086 278.244 274.174 278.533 273.266C278.726 272.646 278.957 272.033 279.771 271.869C279.979 271.827 280.225 271.602 280.307 271.406C280.602 270.704 281.201 270.269 281.748 269.792C284.252 267.607 286.64 265.322 288.746 262.767C289.537 261.803 290.468 260.942 291.28 259.996C292.792 258.231 294.314 256.468 295.739 254.642C296.997 253.03 298.135 251.333 299.321 249.674C300.716 247.728 301.892 245.667 302.889 243.509C303.567 242.046 304.197 240.56 304.934 239.125C307.758 233.615 309.077 227.774 309.36 221.709C309.48 219.069 309.576 216.425 309.566 213.783C309.558 211.527 309.034 209.347 308.096 207.286C306.748 204.318 304.439 203.368 301.232 204.446C300.698 204.624 300.182 204.846 299.545 205.094C299.522 204.793 299.476 204.539 299.489 204.292C299.577 202.29 299.593 200.292 299.165 198.323C298.869 196.954 298.388 195.66 297.531 194.517C295.61 191.958 292.715 191.466 289.926 193.242C288.637 194.06 287.536 195.067 286.647 196.285C286.446 196.562 286.228 196.825 285.933 197.205C285.81 196.897 285.725 196.697 285.658 196.498C285.216 195.22 284.898 193.884 284.307 192.675C283.824 191.692 283.095 190.784 282.321 189.978C281.286 188.896 279.888 188.56 278.362 188.737C274.52 189.186 271.517 191.615 270.586 195.21C270.171 196.815 269.92 198.482 269.783 200.131C269.415 204.458 269.098 208.789 268.422 213.094C267.825 216.899 267.668 220.724 267.552 224.554C267.523 225.587 267.3 226.564 266.851 227.509C266.443 228.378 266.107 229.277 265.728 230.159C265.627 230.396 265.469 230.614 265.243 231.003C265.029 230.44 264.901 230.033 264.728 229.647C263.437 226.724 262.089 223.834 259.741 221.52C259.496 221.28 259.269 221.016 258.99 220.813C255.125 217.977 250.892 216.136 245.844 216.494C245.667 216.508 245.489 216.519 245.316 216.529C241.192 216.784 238.203 220.286 238.718 224.256C239.005 226.465 240.052 228.361 241.315 230.162C242.399 231.712 243.686 233.074 245.279 234.162C247.118 235.425 248.744 236.894 250.037 238.685C251.343 240.5 252.054 242.521 252.185 244.737C252.246 245.797 251.935 246.756 251.188 247.566C248.531 250.449 245.375 252.111 241.247 251.477C239.858 251.263 238.849 250.62 238.135 249.477C237.132 247.878 236.619 246.152 236.617 244.278C236.617 241.87 236.668 239.467 236.601 237.062C236.542 234.997 236.422 232.916 235.632 230.974C234.551 228.319 232.818 226.258 229.825 225.415C227.985 224.896 226.219 225.034 224.47 225.836C221.365 227.257 219.061 229.41 217.623 232.434C215.257 237.427 214.304 242.608 215.057 248.022C215.367 250.236 215.712 252.444 216.066 254.65C216.415 256.831 217 258.952 217.976 260.951C218.897 262.84 219.81 264.743 220.85 266.571C222.404 269.309 224.375 271.747 226.76 273.87C229.739 276.522 232.692 279.204 235.641 281.887C236.248 282.439 236.802 283.044 237.201 283.441C237.237 284.582 237.143 285.506 237.319 286.377C237.905 289.298 238.499 292.217 239.245 295.101C240.151 298.604 241.112 302.106 242.244 305.543C243.983 310.818 245.92 316.027 248.278 321.078C249.838 324.42 251.936 327.438 254.015 330.476C256.253 333.747 258.819 336.77 261.382 339.798C262.826 341.511 264.57 342.915 266.423 344.201C266.992 344.593 267.565 344.984 268.119 345.391C274.625 350.149 281.861 353.605 289.629 356.032C292.793 357.021 296.082 357.665 299.342 358.366C307.271 360.068 315.354 360.611 323.479 360.794C324.115 360.808 324.752 360.805 325.384 360.828C325.624 360.836 325.902 360.838 326.097 360.949C326.856 361.371 327.635 361.286 328.456 361.159C329.64 360.979 330.837 360.901 332.027 360.75C332.474 360.695 332.923 360.593 333.356 360.454C334.289 360.152 335.185 359.698 336.141 359.5C341.429 358.407 346.467 356.607 351.454 354.622C353.284 353.892 355.168 353.29 357.008 352.57C360.249 351.305 363.119 349.398 366.059 347.612C370.059 345.182 373.873 342.516 377.547 339.647C380.359 337.449 383.355 335.472 386.145 333.253C389.375 330.683 392.475 327.965 395.62 325.299C398.847 322.566 401.972 319.714 405.297 317.098C409.996 313.394 414.832 309.851 420.126 306.955C423.978 304.849 428.13 303.437 432.42 302.486C436.045 301.681 439.688 301.947 443.196 302.93C446.34 303.81 448.866 305.74 450.993 308.073C454.196 311.592 456.775 315.511 458.47 319.925C459.149 321.694 459.688 323.51 460.312 325.297C460.57 326.029 460.846 326.74 461.465 327.307C461.733 327.551 461.851 328.003 461.924 328.381C462.52 331.609 463.091 334.842 463.68 338.076C463.756 338.501 463.868 338.945 464.079 339.32C464.484 340.02 465.34 340.236 466.096 339.901C466.911 339.543 467.27 338.872 467.11 338.084C466.573 335.434 466.07 332.774 465.511 330.127C465.094 328.139 464.633 326.163 464.143 324.192C463.947 323.407 463.627 322.652 463.337 321.892C463.253 321.679 463.126 321.423 462.936 321.315C462.227 320.919 462.043 320.221 461.799 319.564C459.998 314.714 457.248 310.4 453.844 306.462C451.847 304.157 449.433 302.319 446.66 300.958C445.483 300.384 444.206 299.923 442.918 299.648C439.88 299.006 436.783 298.809 433.667 299.127C431.08 299.392 428.65 300.278 426.19 301.045C420.125 302.927 414.928 306.286 409.824 309.857C405.388 312.958 401.249 316.38 397.187 319.912C392.97 323.576 388.744 327.241 384.347 330.701C379.509 334.507 374.566 338.203 369.489 341.7C365.568 344.399 361.38 346.733 357.282 349.193C356.501 349.661 355.712 350.087 354.669 350.108C353.842 350.124 353.022 350.676 352.198 350.989C348.927 352.211 345.679 353.486 342.381 354.636C340.655 355.241 338.85 355.64 337.077 356.11C336.191 356.348 335.292 356.536 334.402 356.757C333.724 356.927 333.082 357.125 332.344 356.867C332.004 356.748 331.39 356.927 331.098 357.178C330.648 357.568 330.185 357.639 329.649 357.65C324.104 357.766 318.578 357.591 313.054 357.148C306.605 356.633 300.285 355.513 294.029 354.025C290.464 353.177 287.028 351.992 283.716 350.505C280.028 348.85 276.374 347.111 272.999 344.926C270.936 343.592 268.943 342.151 267.015 340.646C265.798 339.697 264.669 338.615 263.65 337.471C260.115 333.505 256.987 329.238 254.069 324.834C252.328 322.208 251.034 319.368 249.823 316.491C247.308 310.518 245.092 304.44 243.445 298.177C242.574 294.869 241.677 291.57 240.806 288.263C240.693 287.84 240.646 287.406 240.564 286.952L240.541 286.973ZM283.301 203.283C282.733 203.093 282.365 202.996 282.016 202.853C281.469 202.629 280.91 202.416 280.4 202.13C278.224 200.919 277.152 198.564 277.64 196.167C277.874 195.007 278.493 194.009 279.159 193.047C279.535 192.497 280.37 192.475 280.745 193.005C281.094 193.501 281.424 194.035 281.642 194.593C282.434 196.621 282.909 198.727 283.177 200.88C283.268 201.608 283.258 202.349 283.301 203.283ZM242.615 221.204C243.083 220.539 243.592 219.931 244.47 219.794C247.479 219.311 250.364 219.602 253.055 221.008C253.66 221.324 253.789 221.864 253.79 222.466C253.791 223.067 253.518 223.547 252.914 223.729C252.216 223.941 251.491 224.149 250.768 224.198C248.614 224.351 246.686 223.689 244.9 222.601C244.169 222.153 243.438 221.709 242.61 221.205L242.615 221.204ZM219.963 235.128C220.397 233.902 220.989 232.755 221.778 231.709C222.984 230.107 224.648 229.084 226.541 228.407C227.506 228.061 227.958 228.323 228.127 229.26C228.315 230.301 228.288 231.346 227.977 232.382C227.705 233.287 227.157 233.953 226.247 234.333C224.356 235.117 222.38 235.388 220.348 235.295C220.253 235.291 220.163 235.217 219.964 235.133L219.963 235.128ZM294.746 197.961C295.714 198.074 295.993 198.604 296.067 199.308C296.11 199.748 296.22 200.179 296.209 200.62C296.166 202.988 296.122 205.356 296.011 207.723C295.979 208.391 295.712 209.05 295.5 209.935C294.725 208.953 294.052 208.18 293.471 207.348C292.682 206.214 292.198 204.951 292.109 203.566C291.96 201.246 292.656 199.288 294.747 197.965L294.746 197.961ZM304.504 210.609C304.986 210.792 305.459 210.974 305.931 211.151C306.454 213.176 306.541 218.13 306.081 219.683C302.764 217.995 302.023 213.696 304.504 210.609ZM229.63 201.951C234.739 204.889 239.923 207.718 244.7 211.154C244.979 211.358 245.284 211.53 245.537 211.764C246.237 212.411 246.266 213.193 245.671 213.945C245.123 214.642 244.44 215.131 243.584 215.462C241.054 216.443 238.543 217.473 236.024 218.487C235.744 218.602 235.48 218.757 235.172 218.916C235.334 219.338 235.451 219.687 235.597 220.026C238.266 226.328 240.944 232.628 243.614 238.934C243.761 239.277 243.918 239.623 243.996 239.983C244.172 240.759 243.797 241.463 243.1 241.757C242.345 242.074 241.536 241.846 241.086 241.14C240.868 240.802 240.717 240.416 240.559 240.04C237.886 233.739 235.221 227.432 232.547 221.131C232.407 220.8 232.233 220.483 232.065 220.152C227.501 221.746 223.159 223.601 218.465 225.021C218.639 223.872 218.741 222.895 218.945 221.938C219.674 218.547 220.427 215.157 221.197 211.772C222.043 208.055 222.921 204.345 223.785 200.629C223.926 200.019 224.118 199.443 224.862 199.111C226.472 200.075 228.033 201.036 229.621 201.952L229.63 201.951ZM277.373 297.503C277.724 298.029 277.661 298.677 277.188 299.188C276.906 299.492 276.577 299.758 276.296 300.063C273.345 303.235 270.121 306.186 267.713 309.799C267.339 310.361 266.643 310.534 266.023 310.357C265.37 310.17 264.882 309.605 264.958 308.912C265.012 308.39 265.181 307.831 265.465 307.393C265.989 306.589 266.568 305.796 267.242 305.103C269.709 302.559 272.214 300.056 274.724 297.552C275.01 297.268 275.405 297.094 275.557 296.993C276.466 296.807 277.042 297.013 277.368 297.5L277.373 297.503ZM285.228 327.12C286.424 323.31 288.465 319.872 290.511 316.437C290.596 316.288 290.7 316.144 290.817 316.02C291.312 315.479 292.044 315.334 292.633 315.64C293.243 315.96 293.502 316.597 293.264 317.293C293.168 317.582 293.011 317.855 292.868 318.13C291.331 321.052 289.774 323.964 288.693 327.074C288.449 327.785 288.229 328.504 287.965 329.205C287.656 330.03 287.051 330.432 286.298 330.362C285.622 330.299 285.082 329.769 284.871 328.724C284.95 328.365 285.037 327.731 285.228 327.124L285.228 327.12ZM442.65 266.709C442.657 266.776 442.669 266.843 442.673 266.911C442.864 270.63 443.064 274.347 443.23 278.07C443.263 278.825 443.072 279.56 442.516 280.155C442.071 280.627 441.526 280.811 440.889 280.617C440.272 280.432 439.9 279.888 439.895 279.214C439.878 277.085 439.857 274.952 439.836 272.823C439.816 270.828 439.801 268.827 439.772 266.829C439.764 266.237 439.984 265.768 440.531 265.467C441.009 265.204 441.534 265.204 441.921 265.534C442.266 265.828 442.479 266.263 442.754 266.639C442.717 266.662 442.686 266.685 442.65 266.709ZM428.908 274.72C428.649 273.288 428.369 271.86 428.145 270.425C428.064 269.899 428.034 269.336 428.129 268.816C428.271 268.017 429.155 267.517 429.984 267.656C430.771 267.789 431.156 268.355 431.115 269.223C431.091 269.687 431.088 270.169 431.188 270.62C431.812 273.357 432.476 276.083 433.113 278.818C433.212 279.243 433.292 279.685 433.304 280.121C433.333 281.152 432.712 281.986 431.788 282.218C431.119 282.386 430.518 282.241 430.05 281.762C429.62 281.324 429.619 280.821 429.826 280.251C429.946 279.919 429.969 279.524 429.916 279.181C429.675 277.677 429.388 276.185 429.117 274.687C429.048 274.699 428.982 274.711 428.913 274.724L428.908 274.72ZM453.975 266.142C453.911 266.781 453.77 267.417 453.746 268.058C453.665 270.493 453.629 272.924 453.553 275.358C453.526 276.133 453.497 276.916 453.361 277.68C453.187 278.679 452.494 279.212 451.635 279.131C450.713 279.044 450.176 278.359 450.233 277.334C450.272 276.626 450.296 275.917 450.343 275.207C450.506 272.607 450.665 270.007 450.86 267.41C450.904 266.809 451.05 266.202 451.218 265.617C451.381 265.054 451.796 264.691 452.418 264.583C453.355 264.448 454.076 265.161 453.975 266.142ZM282.613 308.474C282.91 309.001 282.829 309.57 282.391 310.075C282.142 310.361 281.852 310.619 281.633 310.925C280.254 312.83 278.899 314.747 277.519 316.647C277.095 317.235 276.647 317.81 276.167 318.357C275.347 319.288 274.442 319.468 273.684 318.9C272.946 318.346 272.902 317.429 273.651 316.456C275.648 313.846 277.666 311.251 279.71 308.676C280.013 308.29 280.506 308.042 280.711 307.88C281.681 307.688 282.306 307.94 282.61 308.479L282.613 308.474ZM299.604 324.114C299.008 326.531 298.435 328.947 298.196 331.424C298.145 331.966 297.872 332.54 297.552 333.006C297.098 333.673 296.336 333.849 295.691 333.587C295.071 333.334 294.743 332.787 294.857 332.001C295.096 330.389 295.32 328.775 295.665 327.182C296.07 325.32 296.6 323.484 297.083 321.638C297.288 320.857 297.851 320.424 298.595 320.466C299.294 320.508 299.78 320.962 299.957 322.017C299.877 322.518 299.804 323.33 299.604 324.114ZM412.591 274.512C413.09 274.194 413.619 274.193 414.079 274.501C414.415 274.724 414.709 275.032 414.951 275.354C415.86 276.587 416.766 277.825 417.632 279.087C418.571 280.461 419.487 281.856 420.374 283.261C420.813 283.951 420.697 284.626 420.156 285.11C419.631 285.583 418.877 285.659 418.216 285.181C417.782 284.864 417.388 284.449 417.098 284.007C415.494 281.563 413.926 279.095 412.35 276.636C412.188 276.382 412.053 276.11 411.96 275.942C411.916 275.275 412.09 274.822 412.59 274.508L412.591 274.512ZM309.745 334.432C309.636 332.238 309.49 330.041 309.381 327.847C309.354 327.276 309.338 326.69 309.429 326.127C309.572 325.302 310.22 324.836 310.993 324.895C311.703 324.947 312.204 325.484 312.281 326.261C312.455 327.941 312.655 329.62 312.802 331.305C312.907 332.481 312.977 333.663 313.011 334.848C313.034 335.545 312.787 336.191 312.25 336.697C311.809 337.112 311.272 337.247 310.685 337.052C310.145 336.87 309.822 336.499 309.691 335.8C309.703 335.445 309.765 334.94 309.741 334.437L309.745 334.432ZM271.805 291.231C272.12 291.707 272.101 292.2 271.79 292.665C271.621 292.919 271.375 293.127 271.16 293.351C269.343 295.218 267.531 297.089 266.335 299.416C265.957 300.155 265.295 300.442 264.602 300.279C263.866 300.107 263.302 299.422 263.417 298.589C263.496 298.007 263.74 297.399 264.073 296.905C265.533 294.75 267.377 292.908 269.344 291.172C269.623 290.928 269.99 290.772 270.172 290.662C270.933 290.528 271.494 290.754 271.804 291.227L271.805 291.231Z" fill="#05793C"/>
</g>
<path d="M0 8C0 1.37258 5.37258 -4 12 -4H544V4H8C3.58172 4 0 5.79086 0 8ZM544 362H0H544ZM0 362V0V362ZM544 0V362V0Z" fill="#05793C" mask="url(#path-1-inside-1_3274_2383)"/>
<defs>
<clipPath id="clip0_3274_2383">
<path d="M0 8C0 3.58172 3.58172 0 8 0H544V362H0V8Z" fill="white"/>
</clipPath>
</defs>
</svg>
