<svg width="505" height="469" viewBox="0 0 505 469" fill="none" xmlns="http://www.w3.org/2000/svg">
<g clip-path="url(#clip0_3274_2429)">
<path d="M51.4431 75.9288H52.1631C54.0298 75.9288 55.4431 75.4355 56.4031 74.4488C57.3631 73.4355 57.8431 71.9422 57.8431 69.9688C57.8431 68.2888 57.5098 67.0088 56.8431 66.1288C56.2031 65.2222 55.2565 64.7688 54.0031 64.7688C52.8565 64.7688 51.9765 65.1155 51.3631 65.8088C50.7765 66.5022 50.4165 67.5555 50.2831 68.9688C50.1765 70.0888 49.6831 70.6488 48.8031 70.6488C47.8431 70.6488 47.3631 70.1022 47.3631 69.0088C47.3631 68.0488 47.6831 67.1822 48.3231 66.4088C48.9631 65.6355 49.8165 65.0222 50.8831 64.5688C51.9765 64.0888 53.1765 63.8488 54.4831 63.8488C55.9765 63.8488 57.2698 64.1022 58.3631 64.6088C59.4565 65.1155 60.3098 65.8355 60.9231 66.7688C61.5365 67.6755 61.8431 68.7422 61.8431 69.9688C61.8431 71.5955 61.2965 72.9555 60.2031 74.0488C59.1365 75.1422 57.6431 75.8888 55.7231 76.2888V76.4088C58.0965 76.6755 59.9231 77.4755 61.2031 78.8088C62.4831 80.1155 63.1231 81.7955 63.1231 83.8488C63.1231 85.3955 62.7631 86.7422 62.0431 87.8888C61.3498 89.0088 60.3631 89.8888 59.0831 90.5288C57.8298 91.1422 56.3498 91.4488 54.6431 91.4488C53.5231 91.4488 52.4698 91.3022 51.4831 91.0088C50.4965 90.6888 49.6165 90.2755 48.8431 89.7688C48.0965 89.2355 47.5098 88.6222 47.0831 87.9288C46.6565 87.2088 46.4431 86.4622 46.4431 85.6888C46.4431 85.1555 46.5765 84.7288 46.8431 84.4088C47.1098 84.0888 47.4831 83.9288 47.9631 83.9288C48.8431 83.9288 49.3631 84.5422 49.5231 85.7688C49.7631 87.3955 50.2698 88.5955 51.0431 89.3688C51.8165 90.1422 52.8965 90.5288 54.2831 90.5288C55.7765 90.5288 56.9365 89.9822 57.7631 88.8888C58.5898 87.7688 59.0031 86.1555 59.0031 84.0488C59.0031 81.7822 58.4298 80.0488 57.2831 78.8488C56.1631 77.6222 54.4831 77.0088 52.2431 77.0088H51.4431V75.9288ZM74.8166 91.0488V90.6488C75.3232 90.5422 75.6832 90.3022 75.8966 89.9288C76.1099 89.5555 76.2166 88.9822 76.2166 88.2088V67.0888C76.2166 66.3155 76.1099 65.7422 75.8966 65.3688C75.6832 64.9955 75.3232 64.7555 74.8166 64.6488V64.2488H81.8166C85.0699 64.2488 87.5366 64.8755 89.2166 66.1288C90.9232 67.3822 91.7766 69.1822 91.7766 71.5288C91.7766 73.9555 90.9099 75.8355 89.1766 77.1688C87.4432 78.5022 84.9899 79.1688 81.8166 79.1688H79.9766V87.9688C79.9766 88.8222 80.0966 89.4488 80.3366 89.8488C80.6032 90.2222 81.0832 90.4888 81.7766 90.6488V91.0488H74.8166ZM79.9766 78.2488H81.8166C83.8432 78.2488 85.3632 77.6755 86.3766 76.5288C87.3899 75.3822 87.8966 73.7155 87.8966 71.5288C87.8966 69.4222 87.3899 67.8355 86.3766 66.7688C85.3899 65.7022 83.8699 65.1688 81.8166 65.1688H79.9766V78.2488ZM97.1403 63.4488C97.7803 63.4488 98.3003 63.6622 98.7003 64.0888C99.127 64.4888 99.3403 64.9955 99.3403 65.6088C99.3403 66.2222 99.127 66.7422 98.7003 67.1688C98.3003 67.5955 97.7803 67.8088 97.1403 67.8088C96.5003 67.8088 95.967 67.5955 95.5403 67.1688C95.1403 66.7422 94.9403 66.2222 94.9403 65.6088C94.9403 64.9955 95.1403 64.4888 95.5403 64.0888C95.967 63.6622 96.5003 63.4488 97.1403 63.4488ZM94.4203 71.1688L99.1803 70.5688V88.3688C99.1803 89.1155 99.2736 89.6622 99.4603 90.0088C99.647 90.3555 99.9536 90.5822 100.38 90.6888V91.0488H94.4203V90.6888C94.847 90.5822 95.1536 90.3555 95.3403 90.0088C95.5536 89.6355 95.6603 89.0888 95.6603 88.3688V74.6888C95.6603 73.7288 95.567 73.0355 95.3803 72.6088C95.2203 72.1555 94.9003 71.7955 94.4203 71.5288V71.1688ZM104.041 71.0088H116.841V71.3688L106.881 90.2088H109.361C110.588 90.2088 111.681 90.0088 112.641 89.6088C113.628 89.1822 114.481 88.4222 115.201 87.3288C115.948 86.2088 116.601 84.6222 117.161 82.5688H117.481L116.601 91.0488H102.881V90.6888L112.801 71.8488H110.721C109.548 71.8488 108.521 72.0222 107.641 72.3688C106.788 72.6888 106.028 73.2888 105.361 74.1688C104.721 75.0222 104.161 76.2222 103.681 77.7688H103.321L104.041 71.0088ZM120.721 71.0088H133.521V71.3688L123.561 90.2088H126.041C127.267 90.2088 128.361 90.0088 129.321 89.6088C130.307 89.1822 131.161 88.4222 131.881 87.3288C132.627 86.2088 133.281 84.6222 133.841 82.5688H134.161L133.281 91.0488H119.561V90.6888L129.481 71.8488H127.401C126.227 71.8488 125.201 72.0222 124.321 72.3688C123.467 72.6888 122.707 73.2888 122.041 74.1688C121.401 75.0222 120.841 76.2222 120.361 77.7688H120.001L120.721 71.0088ZM142.28 91.4488C141.134 91.4488 140.12 91.2088 139.24 90.7288C138.387 90.2488 137.707 89.5955 137.2 88.7688C136.72 87.9155 136.48 86.9288 136.48 85.8088C136.48 83.8088 137.2 81.9422 138.64 80.2088C140.08 78.4755 142.36 76.7288 145.48 74.9688C145.16 73.5555 144.76 72.5688 144.28 72.0088C143.8 71.4222 143.12 71.1288 142.24 71.1288C141.44 71.1288 140.827 71.3688 140.4 71.8488C139.974 72.3022 139.707 73.0222 139.6 74.0088C139.494 74.9688 139.067 75.4488 138.32 75.4488C137.947 75.4488 137.64 75.3288 137.4 75.0888C137.16 74.8222 137.04 74.5022 137.04 74.1288C137.04 73.4088 137.294 72.7555 137.8 72.1688C138.307 71.5822 139 71.1288 139.88 70.8088C140.76 70.4622 141.747 70.2888 142.84 70.2888C144.814 70.2888 146.32 70.7688 147.36 71.7288C148.4 72.6888 149.094 74.2355 149.44 76.3688L151.16 87.7288C151.427 89.5422 151.907 90.5288 152.6 90.6888V91.0488H151.16C150.147 91.0488 149.374 90.7955 148.84 90.2888C148.334 89.7555 147.947 88.8222 147.68 87.4888C147.094 88.7955 146.347 89.7822 145.44 90.4488C144.534 91.1155 143.48 91.4488 142.28 91.4488ZM140.08 84.6888C140.08 86.1555 140.414 87.3155 141.08 88.1688C141.747 89.0222 142.654 89.4488 143.8 89.4488C144.547 89.4488 145.267 89.2222 145.96 88.7688C146.654 88.2888 147.187 87.6888 147.56 86.9688L145.72 76.2088C145.667 75.9955 145.627 75.7955 145.6 75.6088C143.654 77.0488 142.24 78.5022 141.36 79.9688C140.507 81.4088 140.08 82.9822 140.08 84.6888ZM162.668 91.0488V90.6488C163.175 90.5422 163.535 90.3022 163.748 89.9288C163.961 89.5555 164.068 88.9822 164.068 88.2088V67.0888C164.068 66.3155 163.961 65.7422 163.748 65.3688C163.535 64.9955 163.175 64.7555 162.668 64.6488V64.2488H169.668C172.921 64.2488 175.388 64.8755 177.068 66.1288C178.775 67.3822 179.628 69.1822 179.628 71.5288C179.628 73.9555 178.761 75.8355 177.028 77.1688C175.295 78.5022 172.841 79.1688 169.668 79.1688H167.828V87.9688C167.828 88.8222 167.948 89.4488 168.188 89.8488C168.455 90.2222 168.935 90.4888 169.628 90.6488V91.0488H162.668ZM167.828 78.2488H169.668C171.695 78.2488 173.215 77.6755 174.228 76.5288C175.241 75.3822 175.748 73.7155 175.748 71.5288C175.748 69.4222 175.241 67.8355 174.228 66.7688C173.241 65.7022 171.721 65.1688 169.668 65.1688H167.828V78.2488ZM182.152 91.0488V90.6888C182.552 90.5822 182.845 90.3688 183.032 90.0488C183.245 89.7288 183.352 89.2088 183.352 88.4888V66.8888C183.352 66.0355 183.272 65.3822 183.112 64.9288C182.979 64.4488 182.659 64.0755 182.152 63.8088V63.4488L186.872 63.2488V88.4888C186.872 89.1822 186.965 89.7022 187.152 90.0488C187.365 90.3688 187.685 90.5822 188.112 90.6888V91.0488H182.152ZM196.616 91.4488C195.47 91.4488 194.456 91.2088 193.576 90.7288C192.723 90.2488 192.043 89.5955 191.536 88.7688C191.056 87.9155 190.816 86.9288 190.816 85.8088C190.816 83.8088 191.536 81.9422 192.976 80.2088C194.416 78.4755 196.696 76.7288 199.816 74.9688C199.496 73.5555 199.096 72.5688 198.616 72.0088C198.136 71.4222 197.456 71.1288 196.576 71.1288C195.776 71.1288 195.163 71.3688 194.736 71.8488C194.31 72.3022 194.043 73.0222 193.936 74.0088C193.83 74.9688 193.403 75.4488 192.656 75.4488C192.283 75.4488 191.976 75.3288 191.736 75.0888C191.496 74.8222 191.376 74.5022 191.376 74.1288C191.376 73.4088 191.63 72.7555 192.136 72.1688C192.643 71.5822 193.336 71.1288 194.216 70.8088C195.096 70.4622 196.083 70.2888 197.176 70.2888C199.15 70.2888 200.656 70.7688 201.696 71.7288C202.736 72.6888 203.43 74.2355 203.776 76.3688L205.496 87.7288C205.763 89.5422 206.243 90.5288 206.936 90.6888V91.0488H205.496C204.483 91.0488 203.71 90.7955 203.176 90.2888C202.67 89.7555 202.283 88.8222 202.016 87.4888C201.43 88.7955 200.683 89.7822 199.776 90.4488C198.87 91.1155 197.816 91.4488 196.616 91.4488ZM194.416 84.6888C194.416 86.1555 194.75 87.3155 195.416 88.1688C196.083 89.0222 196.99 89.4488 198.136 89.4488C198.883 89.4488 199.603 89.2222 200.296 88.7688C200.99 88.2888 201.523 87.6888 201.896 86.9688L200.056 76.2088C200.003 75.9955 199.963 75.7955 199.936 75.6088C197.99 77.0488 196.576 78.5022 195.696 79.9688C194.843 81.4088 194.416 82.9822 194.416 84.6888ZM215.485 91.4488C213.938 91.4488 212.591 90.9955 211.445 90.0888C210.298 89.1822 209.405 87.9155 208.765 86.2888C208.125 84.6622 207.805 82.7688 207.805 80.6088C207.805 78.6088 208.098 76.8355 208.685 75.2888C209.271 73.7422 210.085 72.5288 211.125 71.6488C212.165 70.7422 213.338 70.2888 214.645 70.2888C215.285 70.2888 215.845 70.3555 216.325 70.4888C216.831 70.5955 217.258 70.7155 217.605 70.8488C217.951 70.9555 218.245 71.0088 218.485 71.0088C218.858 71.0088 219.151 70.8355 219.365 70.4888H219.605L220.245 77.4488H219.885C218.311 73.2622 216.498 71.1688 214.445 71.1688C213.671 71.1688 212.991 71.4488 212.405 72.0088C211.818 72.5422 211.365 73.3155 211.045 74.3288C210.725 75.3155 210.565 76.4755 210.565 77.8088C210.565 79.3288 210.725 80.7288 211.045 82.0088C211.391 83.2888 211.858 84.4088 212.445 85.3688C213.058 86.3288 213.765 87.0755 214.565 87.6088C215.391 88.1422 216.271 88.4088 217.205 88.4088C218.511 88.4088 219.631 87.8355 220.565 86.6888L220.805 86.8088C220.191 88.3822 219.445 89.5555 218.565 90.3288C217.711 91.0755 216.685 91.4488 215.485 91.4488ZM230.646 91.4488C229.046 91.4488 227.646 91.0222 226.446 90.1688C225.272 89.2888 224.366 88.0488 223.726 86.4488C223.086 84.8488 222.766 82.9555 222.766 80.7688C222.766 78.7422 223.072 76.9422 223.686 75.3688C224.326 73.7688 225.192 72.5288 226.286 71.6488C227.406 70.7422 228.672 70.2888 230.086 70.2888C231.339 70.2888 232.432 70.5822 233.366 71.1688C234.299 71.7555 235.019 72.5822 235.526 73.6488C236.032 74.7155 236.286 75.9688 236.286 77.4088V78.3288H225.486C225.512 80.2755 225.819 82.0088 226.406 83.5288C227.019 85.0488 227.846 86.2488 228.886 87.1288C229.926 87.9822 231.099 88.4088 232.406 88.4088C233.872 88.4088 235.099 87.8222 236.086 86.6488L236.326 86.7688C235.739 88.2622 234.979 89.4222 234.046 90.2488C233.112 91.0488 231.979 91.4488 230.646 91.4488ZM229.846 71.1688C228.619 71.1688 227.606 71.7555 226.806 72.9288C226.006 74.0755 225.566 75.6355 225.486 77.6088L229.486 77.4888C230.792 77.4355 231.712 77.2088 232.246 76.8088C232.779 76.4088 233.046 75.7555 233.046 74.8488C233.046 73.7288 232.752 72.8355 232.166 72.1688C231.579 71.5022 230.806 71.1688 229.846 71.1688ZM239.192 83.8088C240.792 88.3422 242.978 90.6088 245.752 90.6088C246.712 90.6088 247.472 90.3155 248.032 89.7288C248.592 89.1422 248.872 88.3688 248.872 87.4088C248.872 86.5555 248.698 85.8355 248.352 85.2488C248.005 84.6355 247.538 84.1022 246.952 83.6488C246.392 83.1955 245.765 82.7688 245.072 82.3688C244.378 81.9688 243.685 81.5688 242.992 81.1688C242.325 80.7422 241.698 80.2755 241.112 79.7688C240.525 79.2622 240.058 78.6755 239.712 78.0088C239.365 77.3155 239.192 76.4888 239.192 75.5288C239.192 74.5155 239.418 73.6222 239.872 72.8488C240.352 72.0488 240.992 71.4222 241.792 70.9688C242.618 70.5155 243.578 70.2888 244.672 70.2888C245.285 70.2888 245.818 70.3555 246.272 70.4888C246.752 70.5955 247.152 70.7155 247.472 70.8488C247.818 70.9555 248.125 71.0088 248.392 71.0088C248.898 71.0088 249.232 70.8355 249.392 70.4888H249.712L250.312 76.8088H249.952C249.232 74.8888 248.432 73.4622 247.552 72.5288C246.698 71.5955 245.712 71.1288 244.592 71.1288C243.738 71.1288 243.045 71.3822 242.512 71.8888C241.978 72.3955 241.712 73.0755 241.712 73.9288C241.712 74.5955 241.885 75.1688 242.232 75.6488C242.605 76.1288 243.072 76.5688 243.632 76.9688C244.218 77.3688 244.845 77.7555 245.512 78.1288C246.205 78.5022 246.898 78.9022 247.592 79.3288C248.285 79.7555 248.912 80.2488 249.472 80.8088C250.058 81.3422 250.525 81.9955 250.872 82.7688C251.245 83.5422 251.432 84.4488 251.432 85.4888C251.432 86.6888 251.192 87.7422 250.712 88.6488C250.232 89.5288 249.565 90.2222 248.712 90.7288C247.858 91.2088 246.845 91.4488 245.672 91.4488C244.952 91.4488 244.298 91.3822 243.712 91.2488C243.152 91.1422 242.645 91.0355 242.192 90.9288C241.738 90.8222 241.352 90.7688 241.032 90.7688C240.445 90.7688 240.032 90.9288 239.792 91.2488H239.512L238.832 83.8088H239.192Z" fill="#05793C"/>
<rect width="369" height="62" transform="translate(48 128.252)" fill="#F0E36F"/>
<path d="M62.7678 166.252L70.8078 153.052H72.7878L74.7078 166.252H73.1278L72.5678 162.472H66.8278L64.5678 166.252H62.7678ZM67.7478 160.972H72.3678L71.4678 154.772L67.7478 160.972ZM81.1636 166.412C80.3902 166.412 79.7102 166.225 79.1236 165.852C78.5369 165.479 78.0769 164.965 77.7436 164.312C77.4102 163.645 77.2436 162.879 77.2436 162.012C77.2436 161.185 77.3702 160.412 77.6236 159.692C77.8769 158.972 78.2302 158.339 78.6836 157.792C79.1369 157.245 79.6769 156.819 80.3036 156.512C80.9302 156.205 81.6102 156.052 82.3436 156.052C82.9302 156.052 83.4569 156.152 83.9236 156.352C84.3902 156.552 84.7769 156.839 85.0836 157.212C85.3902 157.572 85.6036 158.005 85.7236 158.512L87.3036 151.652H88.9036L85.5236 166.252H84.1236L84.4636 164.392C84.1436 165.005 83.6836 165.499 83.0836 165.872C82.4969 166.232 81.8569 166.412 81.1636 166.412ZM81.5636 165.052C82.0436 165.052 82.4969 164.932 82.9236 164.692C83.3502 164.452 83.7236 164.125 84.0436 163.712C84.3636 163.285 84.6169 162.792 84.8036 162.232C84.9902 161.659 85.0836 161.045 85.0836 160.392C85.0836 159.792 84.9702 159.272 84.7436 158.832C84.5302 158.379 84.2236 158.032 83.8236 157.792C83.4369 157.552 82.9769 157.432 82.4436 157.432C81.9102 157.432 81.4236 157.552 80.9836 157.792C80.5436 158.019 80.1636 158.339 79.8436 158.752C79.5236 159.165 79.2702 159.652 79.0836 160.212C78.9102 160.759 78.8236 161.352 78.8236 161.992C78.8236 162.645 78.9302 163.199 79.1436 163.652C79.3569 164.105 79.6636 164.452 80.0636 164.692C80.4769 164.932 80.9769 165.052 81.5636 165.052ZM93.4878 166.412C92.7144 166.412 92.0344 166.225 91.4478 165.852C90.8611 165.479 90.4011 164.965 90.0678 164.312C89.7344 163.645 89.5678 162.879 89.5678 162.012C89.5678 161.185 89.6944 160.412 89.9478 159.692C90.2011 158.972 90.5544 158.339 91.0078 157.792C91.4611 157.245 92.0011 156.819 92.6278 156.512C93.2544 156.205 93.9344 156.052 94.6678 156.052C95.2544 156.052 95.7811 156.152 96.2478 156.352C96.7144 156.552 97.1011 156.839 97.4078 157.212C97.7144 157.572 97.9278 158.005 98.0478 158.512L99.6278 151.652H101.228L97.8478 166.252H96.4478L96.7878 164.392C96.4678 165.005 96.0078 165.499 95.4078 165.872C94.8211 166.232 94.1811 166.412 93.4878 166.412ZM93.8878 165.052C94.3678 165.052 94.8211 164.932 95.2478 164.692C95.6744 164.452 96.0478 164.125 96.3678 163.712C96.6878 163.285 96.9411 162.792 97.1278 162.232C97.3144 161.659 97.4078 161.045 97.4078 160.392C97.4078 159.792 97.2944 159.272 97.0678 158.832C96.8544 158.379 96.5478 158.032 96.1478 157.792C95.7611 157.552 95.3011 157.432 94.7678 157.432C94.2344 157.432 93.7478 157.552 93.3078 157.792C92.8678 158.019 92.4878 158.339 92.1678 158.752C91.8478 159.165 91.5944 159.652 91.4078 160.212C91.2344 160.759 91.1478 161.352 91.1478 161.992C91.1478 162.645 91.2544 163.199 91.4678 163.652C91.6811 164.105 91.9878 164.452 92.3878 164.692C92.8011 164.932 93.3011 165.052 93.8878 165.052ZM108.451 166.252L111.511 153.052H115.351C116.671 153.052 117.704 153.385 118.451 154.052C119.211 154.719 119.591 155.592 119.591 156.672C119.591 157.539 119.377 158.312 118.951 158.992C118.524 159.672 117.917 160.205 117.131 160.592C116.357 160.979 115.451 161.172 114.411 161.172H110.571L110.911 159.672H114.791C115.497 159.672 116.077 159.539 116.531 159.272C116.997 159.005 117.344 158.652 117.571 158.212C117.811 157.772 117.931 157.292 117.931 156.772C117.931 156.105 117.704 155.572 117.251 155.172C116.797 154.759 116.124 154.552 115.231 154.552H112.771L110.051 166.252H108.451ZM124.078 154.332C123.758 154.332 123.498 154.239 123.298 154.052C123.098 153.852 122.998 153.599 122.998 153.292C122.998 152.879 123.118 152.552 123.358 152.312C123.611 152.059 123.911 151.932 124.258 151.932C124.578 151.932 124.838 152.032 125.038 152.232C125.238 152.419 125.338 152.665 125.338 152.972C125.338 153.385 125.211 153.719 124.958 153.972C124.718 154.212 124.424 154.332 124.078 154.332ZM124.258 156.252L121.938 166.252H120.338L122.658 156.252H124.258ZM124.894 166.252L125.194 164.952L131.774 158.592L132.874 157.592L131.114 157.632H126.794L127.114 156.252H135.054L134.734 157.632L128.674 163.452L127.114 164.872H129.274H133.474L133.154 166.252H124.894ZM135.148 166.252L135.448 164.952L142.028 158.592L143.128 157.592L141.368 157.632H137.048L137.368 156.252H145.308L144.988 157.632L138.928 163.452L137.368 164.872H139.528H143.728L143.408 166.252H135.148ZM149.933 166.412C149.16 166.412 148.48 166.225 147.893 165.852C147.306 165.479 146.846 164.965 146.513 164.312C146.18 163.645 146.013 162.879 146.013 162.012C146.013 161.185 146.14 160.412 146.393 159.692C146.646 158.972 147 158.339 147.453 157.792C147.906 157.245 148.446 156.819 149.073 156.512C149.7 156.205 150.38 156.052 151.113 156.052C151.7 156.052 152.226 156.152 152.693 156.352C153.16 156.552 153.546 156.839 153.853 157.212C154.16 157.572 154.373 158.005 154.493 158.512L155.013 156.252H156.613L154.293 166.252H152.893L153.233 164.392C152.913 165.005 152.453 165.499 151.853 165.872C151.266 166.232 150.626 166.412 149.933 166.412ZM150.353 165.052C150.82 165.052 151.26 164.932 151.673 164.692C152.1 164.452 152.473 164.125 152.793 163.712C153.126 163.285 153.386 162.792 153.573 162.232C153.76 161.659 153.853 161.045 153.853 160.392C153.853 159.792 153.74 159.272 153.513 158.832C153.3 158.379 152.993 158.032 152.593 157.792C152.206 157.552 151.746 157.432 151.213 157.432C150.68 157.432 150.193 157.552 149.753 157.792C149.313 158.019 148.933 158.339 148.613 158.752C148.293 159.165 148.04 159.652 147.853 160.212C147.68 160.759 147.593 161.352 147.593 161.992C147.593 162.645 147.7 163.199 147.913 163.652C148.126 164.105 148.433 164.452 148.833 164.692C149.246 164.932 149.753 165.052 150.353 165.052ZM164.896 166.252L167.956 153.052H171.796C173.116 153.052 174.149 153.385 174.896 154.052C175.656 154.719 176.036 155.592 176.036 156.672C176.036 157.539 175.823 158.312 175.396 158.992C174.969 159.672 174.363 160.205 173.576 160.592C172.803 160.979 171.896 161.172 170.856 161.172H167.016L167.356 159.672H171.236C171.943 159.672 172.523 159.539 172.976 159.272C173.443 159.005 173.789 158.652 174.016 158.212C174.256 157.772 174.376 157.292 174.376 156.772C174.376 156.105 174.149 155.572 173.696 155.172C173.243 154.759 172.569 154.552 171.676 154.552H169.216L166.496 166.252H164.896ZM179.523 166.392C178.603 166.392 177.963 166.119 177.603 165.572C177.243 165.012 177.17 164.285 177.383 163.392L180.103 151.652H181.703L178.963 163.452C178.83 163.999 178.87 164.392 179.083 164.632C179.296 164.872 179.663 164.992 180.183 164.992C180.383 164.992 180.556 164.985 180.703 164.972C180.85 164.959 180.99 164.939 181.123 164.912L180.723 166.192C180.51 166.272 180.316 166.325 180.143 166.352C179.97 166.379 179.763 166.392 179.523 166.392ZM187.042 166.412C186.269 166.412 185.589 166.225 185.002 165.852C184.416 165.479 183.956 164.965 183.622 164.312C183.289 163.645 183.122 162.879 183.122 162.012C183.122 161.185 183.249 160.412 183.502 159.692C183.756 158.972 184.109 158.339 184.562 157.792C185.016 157.245 185.556 156.819 186.182 156.512C186.809 156.205 187.489 156.052 188.222 156.052C188.809 156.052 189.336 156.152 189.802 156.352C190.269 156.552 190.656 156.839 190.962 157.212C191.269 157.572 191.482 158.005 191.602 158.512L192.122 156.252H193.722L191.402 166.252H190.002L190.342 164.392C190.022 165.005 189.562 165.499 188.962 165.872C188.376 166.232 187.736 166.412 187.042 166.412ZM187.462 165.052C187.929 165.052 188.369 164.932 188.782 164.692C189.209 164.452 189.582 164.125 189.902 163.712C190.236 163.285 190.496 162.792 190.682 162.232C190.869 161.659 190.962 161.045 190.962 160.392C190.962 159.792 190.849 159.272 190.622 158.832C190.409 158.379 190.102 158.032 189.702 157.792C189.316 157.552 188.856 157.432 188.322 157.432C187.789 157.432 187.302 157.552 186.862 157.792C186.422 158.019 186.042 158.339 185.722 158.752C185.402 159.165 185.149 159.652 184.962 160.212C184.789 160.759 184.702 161.352 184.702 161.992C184.702 162.645 184.809 163.199 185.022 163.652C185.236 164.105 185.542 164.452 185.942 164.692C186.356 164.932 186.862 165.052 187.462 165.052ZM199.887 166.432C198.967 166.432 198.173 166.232 197.507 165.832C196.853 165.419 196.353 164.872 196.007 164.192C195.66 163.499 195.487 162.739 195.487 161.912C195.487 160.765 195.707 159.759 196.147 158.892C196.587 158.012 197.2 157.325 197.987 156.832C198.773 156.325 199.687 156.072 200.727 156.072C201.487 156.072 202.147 156.205 202.707 156.472C203.28 156.739 203.74 157.105 204.087 157.572C204.447 158.039 204.687 158.565 204.807 159.152L203.127 159.552C203.073 158.965 202.84 158.472 202.427 158.072C202.027 157.659 201.433 157.452 200.647 157.452C200.14 157.452 199.667 157.559 199.227 157.772C198.8 157.985 198.427 158.292 198.107 158.692C197.787 159.079 197.54 159.545 197.367 160.092C197.193 160.625 197.107 161.225 197.107 161.892C197.107 162.479 197.22 163.012 197.447 163.492C197.673 163.972 198 164.352 198.427 164.632C198.867 164.912 199.407 165.052 200.047 165.052C200.567 165.052 201.053 164.919 201.507 164.652C201.973 164.385 202.3 163.992 202.487 163.472L204.047 164.032C203.7 164.805 203.153 165.399 202.407 165.812C201.673 166.225 200.833 166.432 199.887 166.432ZM210.531 166.432C209.611 166.432 208.817 166.232 208.151 165.832C207.497 165.432 206.997 164.892 206.651 164.212C206.304 163.532 206.131 162.772 206.131 161.932C206.131 160.892 206.337 159.925 206.751 159.032C207.164 158.139 207.764 157.425 208.551 156.892C209.351 156.345 210.317 156.072 211.451 156.072C212.264 156.072 212.957 156.239 213.531 156.572C214.117 156.905 214.564 157.365 214.871 157.952C215.177 158.525 215.331 159.179 215.331 159.912C215.331 160.179 215.304 160.459 215.251 160.752C215.211 161.032 215.144 161.325 215.051 161.632H206.911V160.232H214.351L213.651 160.792C213.691 160.632 213.717 160.472 213.731 160.312C213.757 160.152 213.771 159.999 213.771 159.852C213.771 159.372 213.671 158.952 213.471 158.592C213.284 158.232 213.011 157.952 212.651 157.752C212.291 157.552 211.857 157.452 211.351 157.452C210.697 157.452 210.137 157.585 209.671 157.852C209.217 158.105 208.844 158.452 208.551 158.892C208.271 159.332 208.064 159.825 207.931 160.372C207.811 160.905 207.751 161.445 207.751 161.992C207.751 162.592 207.871 163.125 208.111 163.592C208.364 164.045 208.711 164.405 209.151 164.672C209.591 164.925 210.111 165.052 210.711 165.052C211.391 165.039 211.951 164.892 212.391 164.612C212.831 164.332 213.191 163.965 213.471 163.512L214.731 164.352C214.437 164.779 214.084 165.152 213.671 165.472C213.257 165.779 212.784 166.019 212.251 166.192C211.731 166.352 211.157 166.432 210.531 166.432ZM221.496 166.472C220.723 166.472 220.023 166.352 219.396 166.112C218.783 165.872 218.256 165.532 217.816 165.092C217.389 164.652 217.063 164.132 216.836 163.532L218.356 162.872C218.609 163.605 219.003 164.159 219.536 164.532C220.069 164.892 220.749 165.072 221.576 165.072C222.283 165.072 222.816 164.919 223.176 164.612C223.549 164.292 223.736 163.905 223.736 163.452C223.736 163.105 223.636 162.832 223.436 162.632C223.236 162.432 222.923 162.272 222.496 162.152L220.716 161.652C219.889 161.425 219.269 161.085 218.856 160.632C218.443 160.165 218.236 159.632 218.236 159.032C218.236 158.472 218.389 157.972 218.696 157.532C219.003 157.079 219.443 156.719 220.016 156.452C220.589 156.185 221.269 156.052 222.056 156.052C223.003 156.052 223.836 156.265 224.556 156.692C225.276 157.119 225.789 157.739 226.096 158.552L224.636 159.252C224.516 158.879 224.329 158.559 224.076 158.292C223.823 158.012 223.516 157.799 223.156 157.652C222.809 157.505 222.409 157.432 221.956 157.432C221.223 157.432 220.676 157.565 220.316 157.832C219.969 158.099 219.796 158.452 219.796 158.892C219.796 159.265 219.923 159.565 220.176 159.792C220.443 160.005 220.769 160.165 221.156 160.272L223.116 160.832C223.796 161.019 224.329 161.325 224.716 161.752C225.116 162.179 225.316 162.672 225.316 163.232C225.316 163.899 225.149 164.479 224.816 164.972C224.483 165.452 224.029 165.825 223.456 166.092C222.883 166.345 222.229 166.472 221.496 166.472ZM234.029 166.252L237.409 151.652H239.009L237.489 158.252L237.169 158.392C237.356 157.872 237.636 157.439 238.009 157.092C238.396 156.745 238.836 156.485 239.329 156.312C239.836 156.139 240.363 156.052 240.909 156.052C241.656 156.052 242.296 156.219 242.829 156.552C243.376 156.885 243.763 157.365 243.989 157.992C244.216 158.605 244.229 159.352 244.029 160.232L242.629 166.252H241.029L242.429 160.212C242.629 159.345 242.543 158.672 242.169 158.192C241.809 157.699 241.236 157.452 240.449 157.452C239.836 157.452 239.289 157.592 238.809 157.872C238.343 158.139 237.943 158.532 237.609 159.052C237.289 159.572 237.036 160.219 236.849 160.992L235.629 166.252H234.029ZM250.824 166.432C249.904 166.432 249.11 166.232 248.444 165.832C247.79 165.432 247.29 164.892 246.944 164.212C246.597 163.532 246.424 162.772 246.424 161.932C246.424 160.892 246.63 159.925 247.044 159.032C247.457 158.139 248.057 157.425 248.844 156.892C249.644 156.345 250.61 156.072 251.744 156.072C252.557 156.072 253.25 156.239 253.824 156.572C254.41 156.905 254.857 157.365 255.164 157.952C255.47 158.525 255.624 159.179 255.624 159.912C255.624 160.179 255.597 160.459 255.544 160.752C255.504 161.032 255.437 161.325 255.344 161.632H247.204V160.232H254.644L253.944 160.792C253.984 160.632 254.01 160.472 254.024 160.312C254.05 160.152 254.064 159.999 254.064 159.852C254.064 159.372 253.964 158.952 253.764 158.592C253.577 158.232 253.304 157.952 252.944 157.752C252.584 157.552 252.15 157.452 251.644 157.452C250.99 157.452 250.43 157.585 249.964 157.852C249.51 158.105 249.137 158.452 248.844 158.892C248.564 159.332 248.357 159.825 248.224 160.372C248.104 160.905 248.044 161.445 248.044 161.992C248.044 162.592 248.164 163.125 248.404 163.592C248.657 164.045 249.004 164.405 249.444 164.672C249.884 164.925 250.404 165.052 251.004 165.052C251.684 165.039 252.244 164.892 252.684 164.612C253.124 164.332 253.484 163.965 253.764 163.512L255.024 164.352C254.73 164.779 254.377 165.152 253.964 165.472C253.55 165.779 253.077 166.019 252.544 166.192C252.024 166.352 251.45 166.432 250.824 166.432ZM257.369 166.252L259.689 156.252H260.989L260.769 158.552L260.529 158.412C260.742 157.919 261.036 157.499 261.409 157.152C261.782 156.792 262.202 156.519 262.669 156.332C263.149 156.145 263.622 156.052 264.089 156.052C264.302 156.052 264.489 156.065 264.649 156.092C264.822 156.119 264.976 156.165 265.109 156.232L264.629 157.752C264.496 157.685 264.342 157.639 264.169 157.612C264.009 157.572 263.816 157.552 263.589 157.552C263.082 157.552 262.602 157.672 262.149 157.912C261.709 158.139 261.322 158.492 260.989 158.972C260.656 159.452 260.402 160.072 260.229 160.832L258.969 166.252H257.369ZM269.71 166.432C268.79 166.432 267.997 166.232 267.33 165.832C266.677 165.432 266.177 164.892 265.83 164.212C265.484 163.532 265.31 162.772 265.31 161.932C265.31 160.892 265.517 159.925 265.93 159.032C266.344 158.139 266.944 157.425 267.73 156.892C268.53 156.345 269.497 156.072 270.63 156.072C271.444 156.072 272.137 156.239 272.71 156.572C273.297 156.905 273.744 157.365 274.05 157.952C274.357 158.525 274.51 159.179 274.51 159.912C274.51 160.179 274.484 160.459 274.43 160.752C274.39 161.032 274.324 161.325 274.23 161.632H266.09V160.232H273.53L272.83 160.792C272.87 160.632 272.897 160.472 272.91 160.312C272.937 160.152 272.95 159.999 272.95 159.852C272.95 159.372 272.85 158.952 272.65 158.592C272.464 158.232 272.19 157.952 271.83 157.752C271.47 157.552 271.037 157.452 270.53 157.452C269.877 157.452 269.317 157.585 268.85 157.852C268.397 158.105 268.024 158.452 267.73 158.892C267.45 159.332 267.244 159.825 267.11 160.372C266.99 160.905 266.93 161.445 266.93 161.992C266.93 162.592 267.05 163.125 267.29 163.592C267.544 164.045 267.89 164.405 268.33 164.672C268.77 164.925 269.29 165.052 269.89 165.052C270.57 165.039 271.13 164.892 271.57 164.612C272.01 164.332 272.37 163.965 272.65 163.512L273.91 164.352C273.617 164.779 273.264 165.152 272.85 165.472C272.437 165.779 271.964 166.019 271.43 166.192C270.91 166.352 270.337 166.432 269.71 166.432Z" fill="#05793C"/>
<path d="M289.899 286.839C290.031 286.819 290.07 286.803 290.095 286.813C291.941 287.418 292.719 286.655 292.545 284.756C292.142 280.464 290.655 276.405 289.537 272.268C288.937 270.043 288.309 267.826 287.796 265.586C287.059 262.408 287.21 259.213 287.469 256.021C287.734 252.744 288.423 249.583 289.825 246.604C290.994 244.123 292.046 241.587 293.32 239.163C294.427 237.059 295.99 235.243 297.841 233.694C297.943 233.607 298.068 233.543 298.235 233.437C298.429 233.556 298.643 233.665 298.828 233.808C300.513 235.077 302.408 235.916 304.436 236.485C306.977 237.196 309.007 236.494 310.524 234.495C311.013 233.848 311.408 233.136 311.907 232.356C312.037 232.591 312.18 232.767 312.235 232.962C312.679 234.618 312.482 236.198 311.827 237.745C311.017 239.654 309.975 241.429 308.835 243.164C307.868 244.635 306.987 246.164 306.074 247.667C304.742 249.867 304.432 252.296 304.643 254.829C304.767 256.32 305.384 257.616 306.463 258.697C309.003 261.237 312.005 262.817 315.683 262.763C317.182 262.74 318.694 262.6 320.16 262.318C322.911 261.787 324.666 260.071 325.689 257.596C326.912 254.636 327.22 251.55 326.478 248.397C326.079 246.701 325.508 245.03 324.892 243.388C323.896 240.726 323.719 238.051 324.245 235.331C324.295 235.064 324.38 234.806 324.473 234.552C324.543 234.366 324.646 234.193 324.762 233.961C325.377 234.208 325.563 234.73 325.8 235.217C326.663 236.978 327.713 238.63 329.357 239.811C330.262 240.462 331.252 241.065 332.293 241.46C334.059 242.124 335.775 242.13 337.074 240.39C337.237 240.648 337.419 240.821 337.459 241.019C337.703 242.189 338.072 243.368 338.109 244.541C338.209 247.481 337.921 250.388 337.063 253.198C336.847 253.901 336.511 254.572 336.191 255.237C335.77 256.108 336.039 257.014 336.89 257.419C337.508 257.718 338.02 257.627 338.535 257.2C338.893 256.902 339.285 256.636 339.685 256.386C340.707 255.752 341.73 255.124 342.772 254.521C347.283 251.907 350.555 248.138 353.372 243.922C354.277 242.571 355.283 241.288 356.276 240C358.677 236.88 361.107 233.785 363.501 230.657C364.514 229.332 365.572 228.051 366.87 226.977C368.098 225.957 369.514 225.787 371.3 226.186C370.832 226.44 370.55 226.609 370.255 226.751C365.537 229.026 364.861 234.381 367.425 237.951C367.867 238.567 368.362 239.149 368.523 239.934C368.586 240.251 368.976 240.512 369.309 240.915C368.466 242.314 367.651 243.796 366.708 245.195C364.632 248.278 362.106 250.961 359.19 253.336C355.474 256.366 351.538 259.111 347.54 261.763C344.917 263.504 342.05 264.905 339.288 266.449C338.386 266.953 337.464 267.421 336.557 267.914C336.314 268.044 336.072 268.184 335.872 268.363C335.272 268.884 335.149 269.664 335.535 270.303C335.925 270.943 336.687 271.226 337.465 270.996C337.664 270.939 337.856 270.852 338.038 270.757C340.917 269.205 343.8 267.66 346.667 266.081C347.663 265.533 348.642 264.955 349.559 264.298C353.262 261.646 357.053 259.116 360.633 256.296C365.223 252.683 368.878 248.384 371.642 243.33C371.803 243.035 371.994 242.751 372.148 242.448C372.402 241.948 372.689 241.589 373.369 241.521C373.735 241.486 374.211 241.084 374.345 240.737C375.128 238.717 376.798 237.797 378.805 237.327C379.845 237.084 380.934 236.933 382.009 236.9C383.025 236.87 383.552 237.337 383.902 238.29C383.734 238.318 383.575 238.368 383.415 238.363C379.288 238.209 376.702 240.594 375.499 243.895C374.845 245.689 374.863 247.552 375.109 249.438C375.18 249.972 375.207 250.521 375.173 251.055C375.12 251.9 375.767 252.123 376.36 252.389C376.349 252.489 376.363 252.573 376.328 252.613C373.471 255.897 370.642 259.192 366.88 261.601C364.281 263.27 361.831 265.149 359.23 266.812C357.501 267.918 355.643 268.845 353.804 269.784C350.765 271.33 347.693 272.826 344.627 274.33C344.166 274.555 343.649 274.68 343.199 274.924C342.633 275.23 342.036 275.532 341.585 275.967C341.047 276.489 341.072 277.279 341.475 277.851C341.876 278.418 342.622 278.681 343.352 278.464C343.715 278.354 344.062 278.189 344.4 278.023C348.701 275.908 353.017 273.817 357.296 271.661C360.443 270.072 363.302 268.051 366.168 266.048C366.785 265.616 367.366 265.13 368.003 264.729C373.047 261.595 376.779 257.176 380.456 252.717C380.993 252.067 381.515 251.775 382.384 251.864C383.407 251.97 384.417 252.088 385.352 252.556C385.947 252.854 386.391 253.265 386.319 253.988C382.773 254.036 380.551 255.938 378.973 258.682C378.151 260.112 378.014 261.708 378.451 263.333C378.78 264.551 379.169 265.751 379.598 267.172C379.362 267.497 379.007 268.025 378.612 268.523C375.785 272.087 372.533 275.217 368.568 277.609C367.331 278.352 366.127 279.145 364.931 279.954C362.389 281.673 359.687 283.1 356.793 284.203C354.141 285.211 351.558 286.426 348.831 287.218C343.264 288.833 337.746 290.66 331.911 291.357C331.602 291.392 331.292 291.477 331.004 291.589C329.484 292.173 327.976 292.775 326.529 293.343C326.282 293.695 326.117 294.071 325.839 294.324C323.961 296.013 322.574 298.055 321.386 300.231C318.662 305.196 317.269 310.486 317.384 316.218C317.466 320.445 317.571 324.66 318.248 328.862C318.578 330.896 319.062 332.891 319.814 334.835C320.298 336.092 320.747 337.357 321.199 338.624C321.818 340.355 322.64 341.98 323.666 343.537C326.45 347.756 329.853 351.454 333.676 354.818C336.429 357.242 339.304 359.492 342.464 361.391C342.794 361.587 343.116 361.817 343.398 362.076C344.943 363.513 346.767 364.483 348.736 365.234C352.874 366.819 357.119 368.041 361.468 368.791C363.61 369.159 365.805 369.206 367.98 369.337C373.739 369.682 379.391 368.967 385.051 368.246C388.845 367.76 392.56 367.032 396.147 365.77C397.922 365.143 399.798 364.893 401.685 364.712C406.185 364.282 410.627 363.591 415.024 362.613C417.842 361.986 420.741 361.678 423.606 361.252C425.923 360.911 428.254 360.644 430.564 360.296C433.802 359.809 437.068 360.009 440.335 360.041C445.268 360.085 450.048 361.076 454.789 362.429C460.201 363.971 465.541 365.725 470.651 368.088C476.403 370.75 481.409 374.404 485.272 379.43C486.038 380.427 486.83 381.406 487.629 382.379C490.541 385.925 492.862 389.78 494.399 394.045C495.534 397.192 496.78 400.309 497.767 403.492C499.37 408.659 499.835 413.957 499.848 419.292C499.861 425.065 499.173 430.744 498.192 436.395C497.903 438.062 497.697 439.748 497.434 441.421C497.37 441.819 497.237 442.208 497.116 442.592C496.167 445.594 495.24 448.6 494.245 451.584C493.754 453.055 493.149 454.49 492.564 455.933C491.605 458.283 490.614 460.62 489.651 462.969C489.553 463.213 489.519 463.5 489.527 463.763C489.546 464.427 489.966 464.956 490.59 465.17C491.242 465.396 491.945 465.186 492.352 464.634C492.474 464.473 492.568 464.287 492.648 464.1C494.001 460.887 495.415 457.699 496.67 454.446C497.421 452.495 497.917 450.442 498.52 448.432C498.639 448.042 498.744 447.651 498.844 447.258C498.951 446.85 499.122 446.545 499.578 446.368C500.353 446.063 500.572 445.436 500.509 444.631C500.455 443.925 500.46 443.202 500.56 442.504C501.156 438.307 501.865 434.128 502.392 429.926C503.35 422.245 503.399 414.542 501.888 406.835C501.247 403.563 500.225 400.385 499.032 397.252C498.488 395.834 497.911 394.426 497.39 392.999C495.791 388.65 493.482 384.672 490.536 381.021C489.329 379.524 488.129 378.02 486.92 376.527C483.541 372.356 479.279 369.221 474.583 366.595C472.388 365.366 470.084 364.381 467.733 363.491C461.612 361.168 455.401 359.165 448.988 357.828C445.408 357.082 441.792 356.983 438.173 356.879C434.79 356.782 431.45 356.967 428.118 357.498C424.673 358.051 421.19 358.416 417.726 358.898C416.48 359.072 415.239 359.294 414.028 359.596C410.338 360.52 406.574 361.11 402.774 361.457C399.479 361.756 396.262 362.296 393.167 363.4C390.938 364.196 388.601 364.634 386.234 364.91C382.484 365.345 378.739 365.828 374.976 366.167C371.202 366.506 367.389 366.378 363.613 365.964C361.183 365.699 358.788 364.978 356.39 364.406C354.534 363.966 352.726 363.372 350.987 362.545C349.732 361.95 348.6 361.189 347.511 360.346C347.14 360.06 346.651 359.914 346.209 359.723C345.86 359.573 345.477 359.496 345.15 359.315C340.683 356.854 336.878 353.579 333.217 350.12C330.416 347.471 328.039 344.501 326.006 341.281C325.304 340.174 324.83 338.935 324.281 337.743C324.065 337.273 323.969 336.755 323.758 336.283C321.268 330.623 320.73 324.689 320.648 318.697C320.61 315.973 320.505 313.236 321.038 310.56C322.013 305.658 324.032 301.226 327.257 297.37C327.862 296.646 328.634 296.054 329.362 295.439C329.855 295.017 330.376 294.62 331.153 294.914C331.351 294.989 331.68 294.929 331.853 294.807C332.476 294.369 333.215 294.32 333.931 294.207C337.215 293.688 340.452 293.024 343.595 291.98C344.777 291.584 346.023 291.351 347.214 290.981C349.433 290.291 351.66 289.608 353.838 288.819C355.76 288.123 357.627 287.292 359.513 286.518C361.729 285.612 363.822 284.492 365.814 283.195C367.167 282.316 368.489 281.393 369.877 280.57C375.2 277.406 379.423 273.162 382.888 268.176C384.394 266.004 385.883 263.816 387.279 261.573C388.472 259.659 389.188 257.535 389.49 255.29C389.927 252.059 388.477 250.027 385.188 249.234C384.641 249.101 384.086 249.015 383.414 248.886C383.555 248.619 383.651 248.379 383.794 248.177C384.933 246.528 386.009 244.845 386.694 242.95C387.171 241.632 387.452 240.282 387.334 238.857C387.069 235.668 384.88 233.713 381.572 233.733C380.046 233.74 378.578 234.007 377.177 234.566C376.859 234.694 376.536 234.801 376.084 234.966C376.144 234.639 376.178 234.424 376.226 234.22C376.532 232.902 376.973 231.603 377.116 230.265C377.23 229.175 377.095 228.018 376.869 226.923C376.568 225.457 375.562 224.429 374.177 223.767C370.685 222.104 366.849 222.564 364.149 225.113C362.944 226.252 361.845 227.529 360.851 228.853C358.238 232.322 355.666 235.82 352.803 239.106C350.275 242.011 348.107 245.166 345.972 248.348C345.398 249.207 344.689 249.916 343.807 250.478C342.998 250.997 342.236 251.579 341.446 252.124C341.234 252.271 340.985 252.371 340.586 252.581C340.705 251.99 340.813 251.578 340.872 251.159C341.333 247.998 341.729 244.833 340.972 241.624C340.891 241.291 340.839 240.946 340.711 240.626C338.946 236.169 336.341 232.359 331.876 229.976C331.718 229.895 331.562 229.809 331.41 229.725C327.783 227.748 323.388 229.123 321.713 232.759C320.781 234.783 320.659 236.945 320.771 239.142C320.865 241.031 321.23 242.869 322 244.638C322.886 246.685 323.481 248.794 323.623 250.998C323.764 253.23 323.291 255.32 322.223 257.266C321.712 258.196 320.938 258.842 319.875 259.131C316.091 260.159 312.535 259.888 309.377 257.156C308.314 256.236 307.801 255.154 307.805 253.806C307.806 251.919 308.289 250.185 309.284 248.597C310.565 246.558 311.887 244.549 313.109 242.478C314.158 240.697 315.163 238.872 315.526 236.806C316.023 233.983 315.652 231.317 313.566 229.011C312.284 227.593 310.715 226.771 308.807 226.519C305.422 226.071 302.325 226.668 299.5 228.465C294.841 231.435 291.277 235.315 289.036 240.3C288.121 242.34 287.239 244.393 286.365 246.449C285.501 248.482 284.868 250.589 284.631 252.801C284.406 254.89 284.167 256.987 284.075 259.089C283.935 262.233 284.307 265.346 285.198 268.413C286.31 272.243 287.385 276.085 288.455 279.926C288.675 280.716 288.822 281.523 288.949 282.071C288.372 283.057 287.802 283.79 287.487 284.621C286.429 287.406 285.38 290.194 284.478 293.032C283.382 296.481 282.333 299.958 281.464 303.47C280.13 308.862 279 314.303 278.31 319.835C277.853 323.495 278.025 327.166 278.17 330.844C278.326 334.805 278.891 338.73 279.45 342.657C279.763 344.875 280.492 346.992 281.377 349.067C281.651 349.701 281.928 350.337 282.181 350.976C285.159 358.466 289.449 365.241 294.736 371.428C296.889 373.949 299.332 376.244 301.719 378.571C307.528 384.229 314.084 388.988 320.868 393.465C321.399 393.815 321.94 394.151 322.463 394.507C322.661 394.642 322.896 394.791 323.003 394.989C323.42 395.749 324.125 396.092 324.888 396.421C325.986 396.899 327.042 397.469 328.129 397.974C328.538 398.166 328.972 398.318 329.412 398.431C330.363 398.671 331.363 398.763 332.278 399.104C337.337 400.991 342.561 402.146 347.84 403.119C349.778 403.473 351.694 403.965 353.635 404.335C357.052 404.988 360.496 404.899 363.936 404.95C368.616 405.02 373.264 404.791 377.901 404.315C381.451 403.95 385.04 403.869 388.583 403.474C392.685 403.016 396.756 402.363 400.837 401.778C405.023 401.18 409.187 400.428 413.394 399.98C419.343 399.343 425.323 398.915 431.346 399.279C435.728 399.544 439.995 400.557 444.134 402.033C447.632 403.279 450.575 405.442 453.023 408.14C455.217 410.558 456.329 413.536 456.89 416.643C457.731 421.326 457.831 426.017 456.918 430.656C456.552 432.515 456.043 434.34 455.62 436.185C455.449 436.942 455.305 437.691 455.527 438.501C455.625 438.85 455.484 439.295 455.345 439.654C454.133 442.705 452.897 445.746 451.675 448.798C451.514 449.198 451.372 449.634 451.352 450.064C451.322 450.872 451.932 451.51 452.751 451.629C453.632 451.759 454.292 451.382 454.576 450.63C455.531 448.1 456.52 445.579 457.454 443.041C458.158 441.135 458.819 439.217 459.452 437.287C459.704 436.518 459.834 435.708 459.993 434.91C460.036 434.686 460.064 434.401 459.961 434.209C459.571 433.496 459.786 432.807 459.928 432.121C460.983 427.056 460.949 421.94 460.161 416.795C459.696 413.781 458.629 410.94 457.005 408.313C456.314 407.201 455.478 406.131 454.533 405.213C452.302 403.054 449.784 401.24 446.977 399.851C444.645 398.7 442.116 398.158 439.625 397.499C433.488 395.867 427.3 395.948 421.078 396.256C415.673 396.523 410.347 397.219 405.029 398.05C399.51 398.91 393.982 399.766 388.417 400.357C382.296 401.007 376.145 401.507 369.985 401.768C365.23 401.968 360.442 401.717 355.663 401.621C354.752 401.601 353.857 401.543 352.964 401.006C352.255 400.579 351.266 400.611 350.403 400.437C346.982 399.733 343.554 399.084 340.149 398.305C338.366 397.898 336.626 397.276 334.874 396.732C333.997 396.461 333.135 396.142 332.265 395.857C331.6 395.639 330.951 395.465 330.463 394.854C330.239 394.573 329.623 394.398 329.243 394.455C328.654 394.547 328.225 394.361 327.764 394.084C323.007 391.234 318.422 388.146 313.979 384.833C308.792 380.966 304.036 376.656 299.529 372.069C296.962 369.455 294.681 366.624 292.668 363.603C290.425 360.24 288.256 356.824 286.56 353.179C285.523 350.952 284.602 348.671 283.769 346.371C283.243 344.92 282.863 343.404 282.608 341.893C281.724 336.654 281.345 331.377 281.216 326.095C281.14 322.946 281.554 319.852 282.059 316.772C283.106 310.377 284.463 304.051 286.399 297.871C287.42 294.606 288.415 291.336 289.437 288.071C289.567 287.654 289.758 287.261 289.93 286.833L289.899 286.839ZM370.622 238.712C370.242 238.249 369.982 237.971 369.763 237.664C369.418 237.184 369.058 236.706 368.779 236.193C367.58 234.01 367.925 231.445 369.613 229.675C370.429 228.817 371.483 228.302 372.559 227.84C373.17 227.575 373.889 228.001 373.924 228.649C373.956 229.255 373.952 229.882 373.839 230.471C373.432 232.609 372.713 234.646 371.795 236.612C371.485 237.276 371.083 237.898 370.622 238.712ZM326.636 232.248C327.386 231.933 328.141 231.69 328.957 232.04C331.763 233.232 334.051 235.013 335.582 237.634C335.926 238.224 335.748 238.75 335.429 239.26C335.109 239.77 334.624 240.031 334.015 239.864C333.311 239.672 332.586 239.463 331.948 239.12C330.043 238.103 328.762 236.517 327.829 234.646C327.447 233.878 327.064 233.113 326.632 232.246L326.636 232.248ZM300.049 231.991C301.068 231.183 302.179 230.526 303.404 230.061C305.277 229.345 307.23 229.365 309.194 229.798C310.195 230.018 310.438 230.48 310.083 231.363C309.689 232.345 309.11 233.216 308.296 233.928C307.584 234.549 306.765 234.822 305.793 234.659C303.774 234.318 301.957 233.496 300.286 232.337C300.207 232.283 300.171 232.172 300.047 231.995L300.049 231.991ZM383.145 240.292C383.904 240.903 383.859 241.5 383.546 242.136C383.349 242.531 383.212 242.955 382.97 243.323C381.673 245.305 380.377 247.287 379.024 249.233C378.641 249.781 378.065 250.197 377.414 250.834C377.281 249.59 377.121 248.578 377.071 247.564C377.007 246.184 377.269 244.857 377.931 243.637C379.038 241.592 380.669 240.305 383.143 240.296L383.145 240.292ZM384.681 256.193C384.991 256.605 385.295 257.01 385.601 257.411C384.966 259.404 382.405 263.645 381.189 264.716C379.278 261.523 380.938 257.489 384.681 256.193ZM325.881 209.037C328.645 214.242 331.529 219.396 333.747 224.846C333.875 225.167 334.042 225.475 334.132 225.808C334.381 226.729 333.99 227.406 333.085 227.726C332.251 228.025 331.412 228.075 330.511 227.9C327.847 227.386 325.173 226.922 322.5 226.441C322.202 226.39 321.896 226.381 321.551 226.351C321.463 226.795 321.377 227.152 321.321 227.517C320.229 234.273 319.145 241.033 318.052 247.793C317.994 248.162 317.943 248.538 317.818 248.884C317.554 249.636 316.862 250.032 316.116 249.91C315.308 249.777 314.744 249.154 314.738 248.317C314.733 247.914 314.811 247.507 314.877 247.105C315.965 240.347 317.062 233.589 318.15 226.831C318.207 226.476 318.228 226.115 318.262 225.746C313.55 224.668 308.886 223.929 304.156 222.635C304.914 221.754 305.52 220.981 306.202 220.279C308.623 217.796 311.063 215.325 313.517 212.868C316.21 210.171 318.927 207.497 321.635 204.809C322.079 204.368 322.548 203.982 323.354 204.096C324.205 205.769 325.015 207.413 325.873 209.034L325.881 209.037ZM315.487 315.346C315.505 315.978 315.108 316.493 314.435 316.674C314.035 316.782 313.614 316.832 313.214 316.94C309.028 318.058 304.729 318.842 300.768 320.62C300.152 320.897 299.471 320.673 299.039 320.195C298.586 319.689 298.473 318.95 298.907 318.404C299.23 317.991 299.67 317.607 300.144 317.387C301.015 316.985 301.927 316.622 302.866 316.393C306.308 315.551 309.761 314.764 313.219 313.979C313.611 313.89 314.039 313.953 314.221 313.948C315.09 314.275 315.468 314.755 315.485 315.341L315.487 315.346ZM306.386 344.604C309.426 342.014 312.983 340.188 316.542 338.367C316.694 338.287 316.858 338.221 317.023 338.177C317.73 337.983 318.427 338.249 318.764 338.822C319.11 339.417 318.99 340.094 318.418 340.557C318.184 340.75 317.905 340.898 317.638 341.055C314.782 342.712 311.915 344.35 309.346 346.409C308.761 346.881 308.192 347.372 307.596 347.826C306.895 348.36 306.169 348.379 305.569 347.918C305.03 347.506 304.854 346.77 305.231 345.772C305.489 345.511 305.9 345.02 306.385 344.608L306.386 344.604ZM471.826 377.177C471.796 377.239 471.771 377.301 471.738 377.361C469.922 380.612 468.114 383.866 466.274 387.107C465.901 387.764 465.348 388.285 464.56 388.493C463.933 388.656 463.373 388.522 462.937 388.018C462.513 387.533 462.487 386.875 462.842 386.302C463.96 384.49 465.076 382.672 466.191 380.859C467.236 379.158 468.286 377.456 469.325 375.748C469.633 375.243 470.069 374.962 470.692 374.999C471.237 375.03 471.681 375.309 471.834 375.795C471.969 376.228 471.919 376.709 471.951 377.173C471.908 377.174 471.869 377.177 471.826 377.177ZM455.928 376.652C456.471 375.302 456.993 373.943 457.567 372.61C457.778 372.12 458.051 371.629 458.408 371.238C458.954 370.637 459.968 370.685 460.596 371.242C461.192 371.774 461.217 372.458 460.721 373.171C460.454 373.551 460.195 373.958 460.04 374.393C459.113 377.043 458.224 379.704 457.309 382.36C457.167 382.772 457 383.188 456.778 383.564C456.254 384.453 455.284 384.829 454.379 384.534C453.723 384.32 453.291 383.877 453.149 383.223C453.019 382.624 453.285 382.197 453.764 381.824C454.041 381.607 454.271 381.285 454.409 380.966C455.005 379.564 455.555 378.149 456.123 376.735C456.057 376.709 455.996 376.684 455.93 376.658L455.928 376.652ZM481.718 382.721C481.323 383.228 480.866 383.692 480.505 384.222C479.142 386.241 477.817 388.28 476.458 390.301C476.024 390.943 475.583 391.591 475.061 392.165C474.383 392.919 473.511 393.002 472.828 392.476C472.093 391.912 472.003 391.046 472.597 390.208C473.005 389.629 473.403 389.042 473.82 388.466C475.342 386.351 476.859 384.234 478.405 382.138C478.763 381.652 479.209 381.216 479.663 380.81C480.1 380.42 480.644 380.334 481.229 380.573C482.093 380.957 482.325 381.944 481.718 382.721ZM314.09 327.424C314.061 328.028 313.69 328.467 313.05 328.661C312.687 328.77 312.304 328.835 311.956 328.978C309.775 329.857 307.608 330.76 305.429 331.635C304.757 331.908 304.072 332.157 303.374 332.364C302.186 332.716 301.323 332.388 300.983 331.504C300.653 330.642 301.103 329.842 302.255 329.416C305.334 328.269 308.424 327.144 311.524 326.051C311.986 325.885 312.536 325.937 312.795 325.909C313.719 326.262 314.114 326.808 314.084 327.426L314.09 327.424ZM320.159 349.706C318.37 351.435 316.599 353.176 315.079 355.146C314.748 355.579 314.211 355.919 313.693 356.144C312.953 356.467 312.214 356.211 311.807 355.646C311.417 355.102 311.43 354.464 311.945 353.859C313.004 352.621 314.053 351.374 315.192 350.208C316.525 348.847 317.951 347.573 319.342 346.267C319.93 345.715 320.638 345.648 321.245 346.079C321.815 346.486 321.985 347.129 321.574 348.117C321.24 348.498 320.745 349.148 320.159 349.706ZM442.221 367.797C442.813 367.794 443.261 368.074 443.487 368.58C443.653 368.948 443.738 369.365 443.772 369.766C443.886 371.294 443.995 372.824 444.056 374.353C444.121 376.016 444.155 377.685 444.159 379.346C444.163 380.164 443.706 380.673 442.99 380.796C442.294 380.917 441.616 380.581 441.31 379.824C441.111 379.325 440.998 378.764 440.987 378.235C440.929 375.312 440.914 372.388 440.888 369.469C440.885 369.167 440.916 368.864 440.927 368.673C441.244 368.084 441.632 367.793 442.222 367.794L442.221 367.797ZM323.259 363.836C324.334 361.92 325.379 359.983 326.453 358.066C326.734 357.568 327.032 357.064 327.409 356.636C327.969 356.013 328.765 355.963 329.389 356.424C329.962 356.846 330.1 357.567 329.753 358.266C329.006 359.781 328.282 361.309 327.511 362.814C326.974 363.866 326.405 364.904 325.804 365.926C325.452 366.528 324.899 366.944 324.176 367.086C323.581 367.203 323.055 367.033 322.661 366.555C322.301 366.114 322.225 365.628 322.486 364.966C322.685 364.673 323.006 364.277 323.253 363.839L323.259 363.836ZM314.109 307.073C314.122 307.644 313.844 308.052 313.334 308.28C313.055 308.405 312.737 308.45 312.435 308.525C309.903 309.14 307.374 309.76 305.124 311.095C304.41 311.52 303.697 311.411 303.196 310.904C302.665 310.367 302.552 309.487 303.092 308.842C303.468 308.392 303.999 308.008 304.543 307.766C306.926 306.717 309.467 306.138 312.056 305.715C312.422 305.657 312.816 305.719 313.028 305.722C313.744 306.015 314.1 306.504 314.11 307.069L314.109 307.073Z" fill="#05793C"/>
<path d="M82.7922 237.576L86.6172 221.076H89.4922L90.7172 231.326L91.0672 235.151H91.0922L93.1172 231.376L99.0672 221.076H102.292L98.4672 237.576H96.5922L98.9922 227.201L100.117 222.851H100.092L91.4172 237.576H89.7172L87.9172 222.851H87.8922L87.0922 227.201L84.6922 237.576H82.7922ZM108.595 237.776C107.629 237.776 106.779 237.543 106.045 237.076C105.312 236.61 104.737 235.968 104.32 235.151C103.904 234.318 103.695 233.36 103.695 232.276C103.695 231.243 103.854 230.276 104.17 229.376C104.487 228.476 104.929 227.685 105.495 227.001C106.062 226.318 106.737 225.785 107.52 225.401C108.304 225.018 109.154 224.826 110.07 224.826C110.804 224.826 111.462 224.951 112.045 225.201C112.629 225.451 113.112 225.81 113.495 226.276C113.879 226.726 114.145 227.268 114.295 227.901L114.945 225.076H116.945L114.045 237.576H112.295L112.72 235.251C112.32 236.018 111.745 236.635 110.995 237.101C110.262 237.551 109.462 237.776 108.595 237.776ZM109.12 236.076C109.704 236.076 110.254 235.926 110.77 235.626C111.304 235.326 111.77 234.918 112.17 234.401C112.587 233.868 112.912 233.251 113.145 232.551C113.379 231.835 113.495 231.068 113.495 230.251C113.495 229.501 113.354 228.851 113.07 228.301C112.804 227.735 112.42 227.301 111.92 227.001C111.437 226.701 110.862 226.551 110.195 226.551C109.529 226.551 108.92 226.701 108.37 227.001C107.82 227.285 107.345 227.685 106.945 228.201C106.545 228.718 106.229 229.326 105.995 230.026C105.779 230.71 105.67 231.451 105.67 232.251C105.67 233.068 105.804 233.76 106.07 234.326C106.337 234.893 106.72 235.326 107.22 235.626C107.737 235.926 108.37 236.076 109.12 236.076ZM118.501 237.576L121.401 225.076H123.151L122.676 227.876L122.426 227.751C122.759 226.768 123.359 226.035 124.226 225.551C125.092 225.068 126.034 224.826 127.051 224.826C127.951 224.826 128.717 225.035 129.351 225.451C130.001 225.868 130.459 226.468 130.726 227.251C130.992 228.035 130.992 228.985 130.726 230.101L128.976 237.576H126.976L128.726 230.076C128.992 228.976 128.909 228.118 128.476 227.501C128.059 226.885 127.392 226.576 126.476 226.576C125.709 226.576 125.026 226.751 124.426 227.101C123.842 227.435 123.351 227.926 122.951 228.576C122.567 229.226 122.259 230.035 122.026 231.001L120.501 237.576H118.501ZM135.476 237.576L137.201 230.076C137.451 228.976 137.367 228.118 136.951 227.501C136.534 226.885 135.867 226.576 134.951 226.576C134.184 226.576 133.509 226.751 132.926 227.101C132.342 227.435 131.851 227.926 131.451 228.576C131.051 229.226 130.734 230.035 130.501 231.001L130.251 228.351C130.734 227.168 131.451 226.285 132.401 225.701C133.367 225.118 134.409 224.826 135.526 224.826C136.426 224.826 137.192 225.035 137.826 225.451C138.476 225.868 138.934 226.468 139.201 227.251C139.467 228.035 139.467 228.985 139.201 230.101L137.476 237.576H135.476ZM141.84 237.576L144.74 225.076H146.49L146.015 227.876L145.765 227.751C146.099 226.768 146.699 226.035 147.565 225.551C148.432 225.068 149.374 224.826 150.39 224.826C151.29 224.826 152.057 225.035 152.69 225.451C153.34 225.868 153.799 226.468 154.065 227.251C154.332 228.035 154.332 228.985 154.065 230.101L152.315 237.576H150.315L152.065 230.076C152.332 228.976 152.249 228.118 151.815 227.501C151.399 226.885 150.732 226.576 149.815 226.576C149.049 226.576 148.365 226.751 147.765 227.101C147.182 227.435 146.69 227.926 146.29 228.576C145.907 229.226 145.599 230.035 145.365 231.001L143.84 237.576H141.84ZM158.815 237.576L160.54 230.076C160.79 228.976 160.707 228.118 160.29 227.501C159.874 226.885 159.207 226.576 158.29 226.576C157.524 226.576 156.849 226.751 156.265 227.101C155.682 227.435 155.19 227.926 154.79 228.576C154.39 229.226 154.074 230.035 153.84 231.001L153.59 228.351C154.074 227.168 154.79 226.285 155.74 225.701C156.707 225.118 157.749 224.826 158.865 224.826C159.765 224.826 160.532 225.035 161.165 225.451C161.815 225.868 162.274 226.468 162.54 227.251C162.807 228.035 162.807 228.985 162.54 230.101L160.815 237.576H158.815ZM170.558 237.776C169.592 237.776 168.742 237.543 168.008 237.076C167.275 236.61 166.7 235.968 166.283 235.151C165.867 234.318 165.658 233.36 165.658 232.276C165.658 231.243 165.817 230.276 166.133 229.376C166.45 228.476 166.892 227.685 167.458 227.001C168.025 226.318 168.7 225.785 169.483 225.401C170.267 225.018 171.117 224.826 172.033 224.826C172.767 224.826 173.425 224.951 174.008 225.201C174.592 225.451 175.075 225.81 175.458 226.276C175.842 226.726 176.108 227.268 176.258 227.901L176.908 225.076H178.908L176.008 237.576H174.258L174.683 235.251C174.283 236.018 173.708 236.635 172.958 237.101C172.225 237.551 171.425 237.776 170.558 237.776ZM171.083 236.076C171.667 236.076 172.217 235.926 172.733 235.626C173.267 235.326 173.733 234.918 174.133 234.401C174.55 233.868 174.875 233.251 175.108 232.551C175.342 231.835 175.458 231.068 175.458 230.251C175.458 229.501 175.317 228.851 175.033 228.301C174.767 227.735 174.383 227.301 173.883 227.001C173.4 226.701 172.825 226.551 172.158 226.551C171.492 226.551 170.883 226.701 170.333 227.001C169.783 227.285 169.308 227.685 168.908 228.201C168.508 228.718 168.192 229.326 167.958 230.026C167.742 230.71 167.633 231.451 167.633 232.251C167.633 233.068 167.767 233.76 168.033 234.326C168.3 234.893 168.683 235.326 169.183 235.626C169.7 235.926 170.333 236.076 171.083 236.076ZM189.262 237.576L193.087 221.076H197.887C199.537 221.076 200.829 221.493 201.762 222.326C202.712 223.16 203.187 224.251 203.187 225.601C203.187 226.685 202.92 227.651 202.387 228.501C201.854 229.351 201.095 230.018 200.112 230.501C199.145 230.985 198.012 231.226 196.712 231.226H191.912L192.337 229.351H197.187C198.07 229.351 198.795 229.185 199.362 228.851C199.945 228.518 200.379 228.076 200.662 227.526C200.962 226.976 201.112 226.376 201.112 225.726C201.112 224.893 200.829 224.226 200.262 223.726C199.695 223.21 198.854 222.951 197.737 222.951H194.662L191.262 237.576H189.262ZM208.796 222.676C208.396 222.676 208.071 222.56 207.821 222.326C207.571 222.076 207.446 221.76 207.446 221.376C207.446 220.86 207.596 220.451 207.896 220.151C208.212 219.835 208.587 219.676 209.021 219.676C209.421 219.676 209.746 219.801 209.996 220.051C210.246 220.285 210.371 220.593 210.371 220.976C210.371 221.493 210.212 221.91 209.896 222.226C209.596 222.526 209.229 222.676 208.796 222.676ZM209.021 225.076L206.121 237.576H204.121L207.021 225.076H209.021ZM209.816 237.576L210.191 235.951L218.416 228.001L219.791 226.751L217.591 226.801H212.191L212.591 225.076H222.516L222.116 226.801L214.541 234.076L212.591 235.851H215.291H220.541L220.141 237.576H209.816ZM222.633 237.576L223.008 235.951L231.233 228.001L232.608 226.751L230.408 226.801H225.008L225.408 225.076H235.333L234.933 226.801L227.358 234.076L225.408 235.851H228.108H233.358L232.958 237.576H222.633ZM241.115 237.776C240.148 237.776 239.298 237.543 238.565 237.076C237.832 236.61 237.257 235.968 236.84 235.151C236.423 234.318 236.215 233.36 236.215 232.276C236.215 231.243 236.373 230.276 236.69 229.376C237.007 228.476 237.448 227.685 238.015 227.001C238.582 226.318 239.257 225.785 240.04 225.401C240.823 225.018 241.673 224.826 242.59 224.826C243.323 224.826 243.982 224.951 244.565 225.201C245.148 225.451 245.632 225.81 246.015 226.276C246.398 226.726 246.665 227.268 246.815 227.901L247.465 225.076H249.465L246.565 237.576H244.815L245.24 235.251C244.84 236.018 244.265 236.635 243.515 237.101C242.782 237.551 241.982 237.776 241.115 237.776ZM241.64 236.076C242.223 236.076 242.773 235.926 243.29 235.626C243.823 235.326 244.29 234.918 244.69 234.401C245.107 233.868 245.432 233.251 245.665 232.551C245.898 231.835 246.015 231.068 246.015 230.251C246.015 229.501 245.873 228.851 245.59 228.301C245.323 227.735 244.94 227.301 244.44 227.001C243.957 226.701 243.382 226.551 242.715 226.551C242.048 226.551 241.44 226.701 240.89 227.001C240.34 227.285 239.865 227.685 239.465 228.201C239.065 228.718 238.748 229.326 238.515 230.026C238.298 230.71 238.19 231.451 238.19 232.251C238.19 233.068 238.323 233.76 238.59 234.326C238.857 234.893 239.24 235.326 239.74 235.626C240.257 235.926 240.89 236.076 241.64 236.076Z" fill="#05793C"/>
<path fill-rule="evenodd" clip-rule="evenodd" d="M59.1608 221.743C59.3014 221.602 59.4922 221.523 59.6911 221.523C59.89 221.523 60.0808 221.602 60.2214 221.743L64.9944 226.516L69.7674 221.743C69.908 221.602 70.0988 221.523 70.2977 221.523C70.4966 221.523 70.6874 221.602 70.828 221.743C70.9687 221.883 71.0477 222.074 71.0477 222.273C71.0477 222.472 70.9687 222.663 70.828 222.803L66.0551 227.576L70.828 232.349C70.9687 232.49 71.0477 232.681 71.0477 232.879C71.0477 233.078 70.9687 233.269 70.828 233.41C70.6874 233.55 70.4966 233.629 70.2977 233.629C70.0988 233.629 69.908 233.55 69.7674 233.41L64.9944 228.637L60.2214 233.41C60.0808 233.55 59.89 233.629 59.6911 233.629C59.4922 233.629 59.3014 233.55 59.1608 233.41C59.0201 233.269 58.9411 233.078 58.9411 232.879C58.9411 232.681 59.0201 232.49 59.1608 232.349L63.9337 227.576L59.1608 222.803C59.0201 222.663 58.9411 222.472 58.9411 222.273C58.9411 222.074 59.0201 221.883 59.1608 221.743Z" fill="#05793C"/>
<path d="M97.9688 261.076L87.9688 277.576H85.6938L83.4188 261.076H85.4438L86.8937 272.476L87.1938 275.751L88.8438 272.501L95.7688 261.076H97.9688ZM101.617 262.676C101.217 262.676 100.892 262.56 100.642 262.326C100.392 262.076 100.267 261.76 100.267 261.376C100.267 260.86 100.417 260.451 100.717 260.151C101.034 259.835 101.409 259.676 101.842 259.676C102.242 259.676 102.567 259.801 102.817 260.051C103.067 260.285 103.192 260.593 103.192 260.976C103.192 261.493 103.034 261.91 102.717 262.226C102.417 262.526 102.05 262.676 101.617 262.676ZM101.842 265.076L98.942 277.576H96.942L99.842 265.076H101.842ZM103.387 277.576L106.287 265.076H108.037L107.562 267.876L107.312 267.751C107.646 266.768 108.254 266.035 109.137 265.551C110.021 265.068 110.971 264.826 111.987 264.826C112.954 264.826 113.771 265.035 114.437 265.451C115.104 265.868 115.571 266.468 115.837 267.251C116.121 268.018 116.137 268.951 115.887 270.051L114.137 277.576H112.137L113.887 270.026C114.137 268.943 114.029 268.101 113.562 267.501C113.112 266.885 112.396 266.576 111.412 266.576C110.646 266.576 109.962 266.751 109.362 267.101C108.779 267.435 108.279 267.926 107.862 268.576C107.462 269.226 107.146 270.035 106.912 271.001L105.387 277.576H103.387ZM124.53 277.801C123.33 277.801 122.305 277.551 121.455 277.051C120.622 276.535 119.98 275.851 119.53 275.001C119.097 274.135 118.88 273.193 118.88 272.176C118.88 270.743 119.155 269.476 119.705 268.376C120.255 267.276 121.014 266.418 121.98 265.801C122.947 265.168 124.064 264.851 125.33 264.851C126.547 264.851 127.572 265.11 128.405 265.626C129.239 266.126 129.872 266.801 130.305 267.651C130.739 268.485 130.955 269.418 130.955 270.451C130.955 271.868 130.68 273.135 130.13 274.251C129.597 275.351 128.847 276.218 127.88 276.851C126.914 277.485 125.797 277.801 124.53 277.801ZM124.605 276.076C125.205 276.076 125.764 275.951 126.28 275.701C126.814 275.435 127.28 275.06 127.68 274.576C128.08 274.076 128.389 273.485 128.605 272.801C128.822 272.118 128.93 271.36 128.93 270.526C128.93 269.793 128.797 269.135 128.53 268.551C128.28 267.951 127.88 267.476 127.33 267.126C126.797 266.76 126.105 266.576 125.255 266.576C124.655 266.576 124.089 266.71 123.555 266.976C123.022 267.226 122.555 267.593 122.155 268.076C121.772 268.56 121.464 269.143 121.23 269.826C121.014 270.51 120.905 271.268 120.905 272.101C120.905 272.818 121.039 273.485 121.305 274.101C121.572 274.701 121.98 275.185 122.53 275.551C123.08 275.901 123.772 276.076 124.605 276.076ZM137.76 277.776C136.96 277.776 136.276 277.618 135.71 277.301C135.143 276.985 134.743 276.526 134.51 275.926C134.276 275.326 134.251 274.61 134.435 273.776L137.06 262.326L139.235 261.701L136.385 273.876C136.218 274.643 136.318 275.193 136.685 275.526C137.068 275.843 137.543 276.001 138.11 276.001C138.526 276.001 138.893 275.943 139.21 275.826C139.526 275.71 139.801 275.56 140.035 275.376L140.435 277.026C140.018 277.31 139.593 277.501 139.16 277.601C138.726 277.718 138.26 277.776 137.76 277.776ZM133.51 266.801L133.91 265.076H142.31L141.91 266.801H133.51ZM148.843 277.801C147.693 277.801 146.702 277.551 145.868 277.051C145.052 276.551 144.427 275.876 143.993 275.026C143.56 274.176 143.343 273.226 143.343 272.176C143.343 270.876 143.602 269.668 144.118 268.551C144.635 267.435 145.385 266.543 146.368 265.876C147.368 265.193 148.577 264.851 149.993 264.851C151.01 264.851 151.877 265.06 152.593 265.476C153.327 265.893 153.885 266.468 154.268 267.201C154.652 267.918 154.843 268.735 154.843 269.651C154.843 269.985 154.81 270.335 154.743 270.701C154.693 271.051 154.61 271.418 154.493 271.801H144.318V270.051H153.618L152.743 270.751C152.793 270.551 152.827 270.351 152.843 270.151C152.877 269.951 152.893 269.76 152.893 269.576C152.893 268.976 152.768 268.451 152.518 268.001C152.285 267.551 151.943 267.201 151.493 266.951C151.043 266.701 150.502 266.576 149.868 266.576C149.052 266.576 148.352 266.743 147.768 267.076C147.202 267.393 146.735 267.826 146.368 268.376C146.018 268.926 145.76 269.543 145.593 270.226C145.443 270.893 145.368 271.568 145.368 272.251C145.368 273.001 145.518 273.668 145.818 274.251C146.135 274.818 146.568 275.268 147.118 275.601C147.668 275.918 148.318 276.076 149.068 276.076C149.918 276.06 150.618 275.876 151.168 275.526C151.718 275.176 152.168 274.718 152.518 274.151L154.093 275.201C153.727 275.735 153.285 276.201 152.768 276.601C152.252 276.985 151.66 277.285 150.993 277.501C150.343 277.701 149.627 277.801 148.843 277.801ZM170.45 265.076L163.925 270.501L163.5 270.776L158.65 274.826L159.025 272.276L167.65 265.076H170.45ZM163.25 259.326L159.025 277.576H157.025L161.25 259.326H163.25ZM164.3 269.451L167.85 277.576H165.675L162.675 270.526L164.3 269.451ZM176.187 277.801C175.037 277.801 174.045 277.551 173.212 277.051C172.395 276.551 171.77 275.876 171.337 275.026C170.904 274.176 170.687 273.226 170.687 272.176C170.687 270.876 170.945 269.668 171.462 268.551C171.979 267.435 172.729 266.543 173.712 265.876C174.712 265.193 175.92 264.851 177.337 264.851C178.354 264.851 179.22 265.06 179.937 265.476C180.67 265.893 181.229 266.468 181.612 267.201C181.995 267.918 182.187 268.735 182.187 269.651C182.187 269.985 182.154 270.335 182.087 270.701C182.037 271.051 181.954 271.418 181.837 271.801H171.662V270.051H180.962L180.087 270.751C180.137 270.551 180.17 270.351 180.187 270.151C180.22 269.951 180.237 269.76 180.237 269.576C180.237 268.976 180.112 268.451 179.862 268.001C179.629 267.551 179.287 267.201 178.837 266.951C178.387 266.701 177.845 266.576 177.212 266.576C176.395 266.576 175.695 266.743 175.112 267.076C174.545 267.393 174.079 267.826 173.712 268.376C173.362 268.926 173.104 269.543 172.937 270.226C172.787 270.893 172.712 271.568 172.712 272.251C172.712 273.001 172.862 273.668 173.162 274.251C173.479 274.818 173.912 275.268 174.462 275.601C175.012 275.918 175.662 276.076 176.412 276.076C177.262 276.06 177.962 275.876 178.512 275.526C179.062 275.176 179.512 274.718 179.862 274.151L181.437 275.201C181.07 275.735 180.629 276.201 180.112 276.601C179.595 276.985 179.004 277.285 178.337 277.501C177.687 277.701 176.97 277.801 176.187 277.801ZM188.834 277.776C188.034 277.776 187.351 277.618 186.784 277.301C186.217 276.985 185.817 276.526 185.584 275.926C185.351 275.326 185.326 274.61 185.509 273.776L188.134 262.326L190.309 261.701L187.459 273.876C187.292 274.643 187.392 275.193 187.759 275.526C188.142 275.843 188.617 276.001 189.184 276.001C189.601 276.001 189.967 275.943 190.284 275.826C190.601 275.71 190.876 275.56 191.109 275.376L191.509 277.026C191.092 277.31 190.667 277.501 190.234 277.601C189.801 277.718 189.334 277.776 188.834 277.776ZM184.584 266.801L184.984 265.076H193.384L192.984 266.801H184.584Z" fill="#05793C"/>
<path fill-rule="evenodd" clip-rule="evenodd" d="M58.0123 261.743C58.153 261.602 58.3438 261.523 58.5427 261.523C58.7416 261.523 58.9323 261.602 59.073 261.743L63.846 266.516L68.6189 261.743C68.7596 261.602 68.9504 261.523 69.1493 261.523C69.3482 261.523 69.539 261.602 69.6796 261.743C69.8203 261.883 69.8993 262.074 69.8993 262.273C69.8993 262.472 69.8203 262.663 69.6796 262.803L64.9066 267.576L69.6796 272.349C69.8203 272.49 69.8993 272.681 69.8993 272.879C69.8993 273.078 69.8203 273.269 69.6796 273.41C69.539 273.55 69.3482 273.629 69.1493 273.629C68.9504 273.629 68.7596 273.55 68.6189 273.41L63.846 268.637L59.073 273.41C58.9323 273.55 58.7416 273.629 58.5427 273.629C58.3438 273.629 58.153 273.55 58.0123 273.41C57.8717 273.269 57.7927 273.078 57.7927 272.879C57.7927 272.681 57.8717 272.49 58.0123 272.349L62.7853 267.576L58.0123 262.803C57.8717 262.663 57.7927 262.472 57.7927 262.273C57.7927 262.074 57.8717 261.883 58.0123 261.743Z" fill="#05793C"/>
<path d="M98.1578 301.076L97.7078 302.951H92.1328L88.7578 317.576H86.7578L90.1328 302.951H84.4578L84.9078 301.076H98.1578ZM95.5943 317.576L98.4943 305.076H100.119L99.8443 307.951L99.5443 307.776C99.811 307.16 100.178 306.635 100.644 306.201C101.111 305.751 101.636 305.41 102.219 305.176C102.819 304.943 103.411 304.826 103.994 304.826C104.261 304.826 104.494 304.843 104.694 304.876C104.911 304.91 105.103 304.968 105.269 305.051L104.669 306.951C104.503 306.868 104.311 306.81 104.094 306.776C103.894 306.726 103.653 306.701 103.369 306.701C102.736 306.701 102.136 306.851 101.569 307.151C101.019 307.435 100.536 307.876 100.119 308.476C99.7027 309.076 99.386 309.851 99.1693 310.801L97.5943 317.576H95.5943ZM110.396 317.776C109.429 317.776 108.579 317.543 107.846 317.076C107.113 316.61 106.538 315.968 106.121 315.151C105.704 314.318 105.496 313.36 105.496 312.276C105.496 311.243 105.654 310.276 105.971 309.376C106.288 308.476 106.729 307.685 107.296 307.001C107.863 306.318 108.538 305.785 109.321 305.401C110.104 305.018 110.954 304.826 111.871 304.826C112.604 304.826 113.263 304.951 113.846 305.201C114.429 305.451 114.913 305.81 115.296 306.276C115.679 306.726 115.946 307.268 116.096 307.901L116.746 305.076H118.746L115.846 317.576H114.096L114.521 315.251C114.121 316.018 113.546 316.635 112.796 317.101C112.063 317.551 111.263 317.776 110.396 317.776ZM110.921 316.076C111.504 316.076 112.054 315.926 112.571 315.626C113.104 315.326 113.571 314.918 113.971 314.401C114.388 313.868 114.713 313.251 114.946 312.551C115.179 311.835 115.296 311.068 115.296 310.251C115.296 309.501 115.154 308.851 114.871 308.301C114.604 307.735 114.221 307.301 113.721 307.001C113.238 306.701 112.663 306.551 111.996 306.551C111.329 306.551 110.721 306.701 110.171 307.001C109.621 307.285 109.146 307.685 108.746 308.201C108.346 308.718 108.029 309.326 107.796 310.026C107.579 310.71 107.471 311.451 107.471 312.251C107.471 313.068 107.604 313.76 107.871 314.326C108.138 314.893 108.521 315.326 109.021 315.626C109.538 315.926 110.171 316.076 110.921 316.076ZM120.301 317.576L123.201 305.076H124.951L124.476 307.876L124.226 307.751C124.56 306.768 125.168 306.035 126.051 305.551C126.935 305.068 127.885 304.826 128.901 304.826C129.868 304.826 130.685 305.035 131.351 305.451C132.018 305.868 132.485 306.468 132.751 307.251C133.035 308.018 133.051 308.951 132.801 310.051L131.051 317.576H129.051L130.801 310.026C131.051 308.943 130.943 308.101 130.476 307.501C130.026 306.885 129.31 306.576 128.326 306.576C127.56 306.576 126.876 306.751 126.276 307.101C125.693 307.435 125.193 307.926 124.776 308.576C124.376 309.226 124.06 310.035 123.826 311.001L122.301 317.576H120.301ZM141.295 317.801C140.145 317.801 139.153 317.551 138.32 317.051C137.503 316.551 136.878 315.876 136.445 315.026C136.011 314.176 135.795 313.226 135.795 312.176C135.795 310.876 136.053 309.668 136.57 308.551C137.086 307.435 137.836 306.543 138.82 305.876C139.82 305.193 141.028 304.851 142.445 304.851C143.461 304.851 144.328 305.06 145.045 305.476C145.778 305.893 146.336 306.468 146.72 307.201C147.103 307.918 147.295 308.735 147.295 309.651C147.295 309.985 147.261 310.335 147.195 310.701C147.145 311.051 147.061 311.418 146.945 311.801H136.77V310.051H146.07L145.195 310.751C145.245 310.551 145.278 310.351 145.295 310.151C145.328 309.951 145.345 309.76 145.345 309.576C145.345 308.976 145.22 308.451 144.97 308.001C144.736 307.551 144.395 307.201 143.945 306.951C143.495 306.701 142.953 306.576 142.32 306.576C141.503 306.576 140.803 306.743 140.22 307.076C139.653 307.393 139.186 307.826 138.82 308.376C138.47 308.926 138.211 309.543 138.045 310.226C137.895 310.893 137.82 311.568 137.82 312.251C137.82 313.001 137.97 313.668 138.27 314.251C138.586 314.818 139.02 315.268 139.57 315.601C140.12 315.918 140.77 316.076 141.52 316.076C142.37 316.06 143.07 315.876 143.62 315.526C144.17 315.176 144.62 314.718 144.97 314.151L146.545 315.201C146.178 315.735 145.736 316.201 145.22 316.601C144.703 316.985 144.111 317.285 143.445 317.501C142.795 317.701 142.078 317.801 141.295 317.801ZM149.476 317.576L152.376 305.076H154.126L153.651 307.876L153.401 307.751C153.735 306.768 154.343 306.035 155.226 305.551C156.11 305.068 157.06 304.826 158.076 304.826C159.043 304.826 159.86 305.035 160.526 305.451C161.193 305.868 161.66 306.468 161.926 307.251C162.21 308.018 162.226 308.951 161.976 310.051L160.226 317.576H158.226L159.976 310.026C160.226 308.943 160.118 308.101 159.651 307.501C159.201 306.885 158.485 306.576 157.501 306.576C156.735 306.576 156.051 306.751 155.451 307.101C154.868 307.435 154.368 307.926 153.951 308.576C153.551 309.226 153.235 310.035 153.001 311.001L151.476 317.576H149.476Z" fill="#05793C"/>
<path fill-rule="evenodd" clip-rule="evenodd" d="M59.3014 301.743C59.4421 301.602 59.6328 301.523 59.8317 301.523C60.0306 301.523 60.2214 301.602 60.3621 301.743L65.135 306.516L69.908 301.743C70.0487 301.602 70.2394 301.523 70.4383 301.523C70.6372 301.523 70.828 301.602 70.9687 301.743C71.1093 301.883 71.1883 302.074 71.1883 302.273C71.1883 302.472 71.1093 302.663 70.9687 302.803L66.1957 307.576L70.9687 312.349C71.1093 312.49 71.1883 312.681 71.1883 312.879C71.1883 313.078 71.1093 313.269 70.9687 313.41C70.828 313.55 70.6372 313.629 70.4383 313.629C70.2394 313.629 70.0487 313.55 69.908 313.41L65.135 308.637L60.3621 313.41C60.2214 313.55 60.0306 313.629 59.8317 313.629C59.6328 313.629 59.4421 313.55 59.3014 313.41C59.1608 313.269 59.0817 313.078 59.0817 312.879C59.0817 312.681 59.1608 312.49 59.3014 312.349L64.0744 307.576L59.3014 302.803C59.1608 302.663 59.0817 302.472 59.0817 302.273C59.0817 302.074 59.1608 301.883 59.3014 301.743Z" fill="#05793C"/>
<path d="M289.899 286.839C290.031 286.819 290.07 286.803 290.095 286.813C291.941 287.418 292.719 286.655 292.545 284.756C292.142 280.464 290.655 276.405 289.537 272.268C288.937 270.043 288.309 267.826 287.796 265.586C287.059 262.408 287.21 259.213 287.469 256.021C287.734 252.744 288.423 249.583 289.825 246.604C290.994 244.123 292.046 241.587 293.32 239.163C294.427 237.059 295.99 235.243 297.841 233.694C297.943 233.607 298.068 233.543 298.235 233.437C298.429 233.556 298.643 233.665 298.828 233.808C300.513 235.077 302.408 235.916 304.436 236.485C306.977 237.196 309.007 236.494 310.524 234.495C311.013 233.848 311.408 233.136 311.907 232.356C312.037 232.591 312.18 232.767 312.235 232.962C312.679 234.618 312.482 236.198 311.827 237.745C311.017 239.654 309.975 241.429 308.835 243.164C307.868 244.635 306.987 246.164 306.074 247.667C304.742 249.867 304.432 252.296 304.643 254.829C304.767 256.32 305.384 257.616 306.463 258.697C309.003 261.237 312.005 262.817 315.683 262.763C317.182 262.74 318.694 262.6 320.16 262.318C322.911 261.787 324.666 260.071 325.689 257.596C326.912 254.636 327.22 251.55 326.478 248.397C326.079 246.701 325.508 245.03 324.892 243.388C323.896 240.726 323.719 238.051 324.245 235.331C324.295 235.064 324.38 234.806 324.473 234.552C324.543 234.366 324.646 234.193 324.762 233.961C325.377 234.208 325.563 234.73 325.8 235.217C326.663 236.978 327.713 238.63 329.357 239.811C330.262 240.462 331.252 241.065 332.293 241.46C334.059 242.124 335.775 242.13 337.074 240.39C337.237 240.648 337.419 240.821 337.459 241.019C337.703 242.189 338.072 243.368 338.109 244.541C338.209 247.481 337.921 250.388 337.063 253.198C336.847 253.901 336.511 254.572 336.191 255.237C335.77 256.108 336.039 257.014 336.89 257.419C337.508 257.718 338.02 257.627 338.535 257.2C338.893 256.902 339.285 256.636 339.685 256.386C340.707 255.752 341.73 255.124 342.772 254.521C347.283 251.907 350.555 248.138 353.372 243.922C354.277 242.571 355.283 241.288 356.276 240C358.677 236.88 361.107 233.785 363.501 230.657C364.514 229.332 365.572 228.051 366.87 226.977C368.098 225.957 369.514 225.787 371.3 226.186C370.832 226.44 370.55 226.609 370.255 226.751C365.537 229.026 364.861 234.381 367.425 237.951C367.867 238.567 368.362 239.149 368.523 239.934C368.586 240.251 368.976 240.512 369.309 240.915C368.466 242.314 367.651 243.796 366.708 245.195C364.632 248.278 362.106 250.961 359.19 253.336C355.474 256.366 351.538 259.111 347.54 261.763C344.917 263.504 342.05 264.905 339.288 266.449C338.386 266.953 337.464 267.421 336.557 267.914C336.314 268.044 336.072 268.184 335.872 268.363C335.272 268.884 335.149 269.664 335.535 270.303C335.925 270.943 336.687 271.226 337.465 270.996C337.664 270.939 337.856 270.852 338.038 270.757C340.917 269.205 343.8 267.66 346.667 266.081C347.663 265.533 348.642 264.955 349.559 264.298C353.262 261.646 357.053 259.116 360.633 256.296C365.223 252.683 368.878 248.384 371.642 243.33C371.803 243.035 371.994 242.751 372.148 242.448C372.402 241.948 372.689 241.589 373.369 241.521C373.735 241.486 374.211 241.084 374.345 240.737C375.128 238.717 376.798 237.797 378.805 237.327C379.845 237.084 380.934 236.933 382.009 236.9C383.025 236.87 383.552 237.337 383.902 238.29C383.734 238.318 383.575 238.368 383.415 238.363C379.288 238.209 376.702 240.594 375.499 243.895C374.845 245.689 374.863 247.552 375.109 249.438C375.18 249.972 375.207 250.521 375.173 251.055C375.12 251.9 375.767 252.123 376.36 252.389C376.349 252.489 376.363 252.573 376.328 252.613C373.471 255.897 370.642 259.192 366.88 261.601C364.281 263.27 361.831 265.149 359.23 266.812C357.501 267.918 355.643 268.845 353.804 269.784C350.765 271.33 347.693 272.826 344.627 274.33C344.166 274.555 343.649 274.68 343.199 274.924C342.633 275.23 342.036 275.532 341.585 275.967C341.047 276.489 341.072 277.279 341.475 277.851C341.876 278.418 342.622 278.681 343.352 278.464C343.715 278.354 344.062 278.189 344.4 278.023C348.701 275.908 353.017 273.817 357.296 271.661C360.443 270.072 363.302 268.051 366.168 266.048C366.785 265.616 367.366 265.13 368.003 264.729C373.047 261.595 376.779 257.176 380.456 252.717C380.993 252.067 381.515 251.775 382.384 251.864C383.407 251.97 384.417 252.088 385.352 252.556C385.947 252.854 386.391 253.265 386.319 253.988C382.773 254.036 380.551 255.938 378.973 258.682C378.151 260.112 378.014 261.708 378.451 263.333C378.78 264.551 379.169 265.751 379.598 267.172C379.362 267.497 379.007 268.025 378.612 268.523C375.785 272.087 372.533 275.217 368.568 277.609C367.331 278.352 366.127 279.145 364.931 279.954C362.389 281.673 359.687 283.1 356.793 284.203C354.141 285.211 351.558 286.426 348.831 287.218C343.264 288.833 337.746 290.66 331.911 291.357C331.602 291.392 331.292 291.477 331.004 291.589C329.484 292.173 327.976 292.775 326.529 293.343C326.282 293.695 326.117 294.071 325.839 294.324C323.961 296.013 322.574 298.055 321.386 300.231C318.662 305.196 317.269 310.486 317.384 316.218C317.466 320.445 317.571 324.66 318.248 328.862C318.578 330.896 319.062 332.891 319.814 334.835C320.298 336.092 320.747 337.357 321.199 338.624C321.818 340.355 322.64 341.98 323.666 343.537C326.45 347.756 329.853 351.454 333.676 354.818C336.429 357.242 339.304 359.492 342.464 361.391C342.794 361.587 343.116 361.817 343.398 362.076C344.943 363.513 346.767 364.483 348.736 365.234C352.874 366.819 357.119 368.041 361.468 368.791C363.61 369.159 365.805 369.206 367.98 369.337C373.739 369.682 379.391 368.967 385.051 368.246C388.845 367.76 392.56 367.032 396.147 365.77C397.922 365.143 399.798 364.893 401.685 364.712C406.185 364.282 410.627 363.591 415.024 362.613C417.842 361.986 420.741 361.678 423.606 361.252C425.923 360.911 428.254 360.644 430.564 360.296C433.802 359.809 437.068 360.009 440.335 360.041C445.268 360.085 450.048 361.076 454.789 362.429C460.201 363.971 465.541 365.725 470.651 368.088C476.403 370.75 481.409 374.404 485.272 379.43C486.038 380.427 486.83 381.406 487.629 382.379C490.541 385.925 492.862 389.78 494.399 394.045C495.534 397.192 496.78 400.309 497.767 403.492C499.37 408.659 499.835 413.957 499.848 419.292C499.861 425.065 499.173 430.744 498.192 436.395C497.903 438.062 497.697 439.748 497.434 441.421C497.37 441.819 497.237 442.208 497.116 442.592C496.167 445.594 495.24 448.6 494.245 451.584C493.754 453.055 493.149 454.49 492.564 455.933C491.605 458.283 490.614 460.62 489.651 462.969C489.553 463.213 489.519 463.5 489.527 463.763C489.546 464.427 489.966 464.956 490.59 465.17C491.242 465.396 491.945 465.186 492.352 464.634C492.474 464.473 492.568 464.287 492.648 464.1C494.001 460.887 495.415 457.699 496.67 454.446C497.421 452.495 497.917 450.442 498.52 448.432C498.639 448.042 498.744 447.651 498.844 447.258C498.951 446.85 499.122 446.545 499.578 446.368C500.353 446.063 500.572 445.436 500.509 444.631C500.455 443.925 500.46 443.202 500.56 442.504C501.156 438.307 501.865 434.128 502.392 429.926C503.35 422.245 503.399 414.542 501.888 406.835C501.247 403.563 500.225 400.385 499.032 397.252C498.488 395.834 497.911 394.426 497.39 392.999C495.791 388.65 493.482 384.672 490.536 381.021C489.329 379.524 488.129 378.02 486.92 376.527C483.541 372.356 479.279 369.221 474.583 366.595C472.388 365.366 470.084 364.381 467.733 363.491C461.612 361.168 455.401 359.165 448.988 357.828C445.408 357.082 441.792 356.983 438.173 356.879C434.79 356.782 431.45 356.967 428.118 357.498C424.673 358.051 421.19 358.416 417.726 358.898C416.48 359.072 415.239 359.294 414.028 359.596C410.338 360.52 406.574 361.11 402.774 361.457C399.479 361.756 396.262 362.296 393.167 363.4C390.938 364.196 388.601 364.634 386.234 364.91C382.484 365.345 378.739 365.828 374.976 366.167C371.202 366.506 367.389 366.378 363.613 365.964C361.183 365.699 358.788 364.978 356.39 364.406C354.534 363.966 352.726 363.372 350.987 362.545C349.732 361.95 348.6 361.189 347.511 360.346C347.14 360.06 346.651 359.914 346.209 359.723C345.86 359.573 345.477 359.496 345.15 359.315C340.683 356.854 336.878 353.579 333.217 350.12C330.416 347.471 328.039 344.501 326.006 341.281C325.304 340.174 324.83 338.935 324.281 337.743C324.065 337.273 323.969 336.755 323.758 336.283C321.268 330.623 320.73 324.689 320.648 318.697C320.61 315.973 320.505 313.236 321.038 310.56C322.013 305.658 324.032 301.226 327.257 297.37C327.862 296.646 328.634 296.054 329.362 295.439C329.855 295.017 330.376 294.62 331.153 294.914C331.351 294.989 331.68 294.929 331.853 294.807C332.476 294.369 333.215 294.32 333.931 294.207C337.215 293.688 340.452 293.024 343.595 291.98C344.777 291.584 346.023 291.351 347.214 290.981C349.433 290.291 351.66 289.608 353.838 288.819C355.76 288.123 357.627 287.292 359.513 286.518C361.729 285.612 363.822 284.492 365.814 283.195C367.167 282.316 368.489 281.393 369.877 280.57C375.2 277.406 379.423 273.162 382.888 268.176C384.394 266.004 385.883 263.816 387.279 261.573C388.472 259.659 389.188 257.535 389.49 255.29C389.927 252.059 388.477 250.027 385.188 249.234C384.641 249.101 384.086 249.015 383.414 248.886C383.555 248.619 383.651 248.379 383.794 248.177C384.933 246.528 386.009 244.845 386.694 242.95C387.171 241.632 387.452 240.282 387.334 238.857C387.069 235.668 384.88 233.713 381.572 233.733C380.046 233.74 378.578 234.007 377.177 234.566C376.859 234.694 376.536 234.801 376.084 234.966C376.144 234.639 376.178 234.424 376.226 234.22C376.532 232.902 376.973 231.603 377.116 230.265C377.23 229.175 377.095 228.018 376.869 226.923C376.568 225.457 375.562 224.429 374.177 223.767C370.685 222.104 366.849 222.564 364.149 225.113C362.944 226.252 361.845 227.529 360.851 228.853C358.238 232.322 355.666 235.82 352.803 239.106C350.275 242.011 348.107 245.166 345.972 248.348C345.398 249.207 344.689 249.916 343.807 250.478C342.998 250.997 342.236 251.579 341.446 252.124C341.234 252.271 340.985 252.371 340.586 252.581C340.705 251.99 340.813 251.578 340.872 251.159C341.333 247.998 341.729 244.833 340.972 241.624C340.891 241.291 340.839 240.946 340.711 240.626C338.946 236.169 336.341 232.359 331.876 229.976C331.718 229.895 331.562 229.809 331.41 229.725C327.783 227.748 323.388 229.123 321.713 232.759C320.781 234.783 320.659 236.945 320.771 239.142C320.865 241.031 321.23 242.869 322 244.638C322.886 246.685 323.481 248.794 323.623 250.998C323.764 253.23 323.291 255.32 322.223 257.266C321.712 258.196 320.938 258.842 319.875 259.131C316.091 260.159 312.535 259.888 309.377 257.156C308.314 256.236 307.801 255.154 307.805 253.806C307.806 251.919 308.289 250.185 309.284 248.597C310.565 246.558 311.887 244.549 313.109 242.478C314.158 240.697 315.163 238.872 315.526 236.806C316.023 233.983 315.652 231.317 313.566 229.011C312.284 227.593 310.715 226.771 308.807 226.519C305.422 226.071 302.325 226.668 299.5 228.465C294.841 231.435 291.277 235.315 289.036 240.3C288.121 242.34 287.239 244.393 286.365 246.449C285.501 248.482 284.868 250.589 284.631 252.801C284.406 254.89 284.167 256.987 284.075 259.089C283.935 262.233 284.307 265.346 285.198 268.413C286.31 272.243 287.385 276.085 288.455 279.926C288.675 280.716 288.822 281.523 288.949 282.071C288.372 283.057 287.802 283.79 287.487 284.621C286.429 287.406 285.38 290.194 284.478 293.032C283.382 296.481 282.333 299.958 281.464 303.47C280.13 308.862 279 314.303 278.31 319.835C277.853 323.495 278.025 327.166 278.17 330.844C278.326 334.805 278.891 338.73 279.45 342.657C279.763 344.875 280.492 346.992 281.377 349.067C281.651 349.701 281.928 350.337 282.181 350.976C285.159 358.466 289.449 365.241 294.736 371.428C296.889 373.949 299.332 376.244 301.719 378.571C307.528 384.229 314.084 388.988 320.868 393.465C321.399 393.815 321.94 394.151 322.463 394.507C322.661 394.642 322.896 394.791 323.003 394.989C323.42 395.749 324.125 396.092 324.888 396.421C325.986 396.899 327.042 397.469 328.129 397.974C328.538 398.166 328.972 398.318 329.412 398.431C330.363 398.671 331.363 398.763 332.278 399.104C337.337 400.991 342.561 402.146 347.84 403.119C349.778 403.473 351.694 403.965 353.635 404.335C357.052 404.988 360.496 404.899 363.936 404.95C368.616 405.02 373.264 404.791 377.901 404.315C381.451 403.95 385.04 403.869 388.583 403.474C392.685 403.016 396.756 402.363 400.837 401.778C405.023 401.18 409.187 400.428 413.394 399.98C419.343 399.343 425.323 398.915 431.346 399.279C435.728 399.544 439.995 400.557 444.134 402.033C447.632 403.279 450.575 405.442 453.023 408.14C455.217 410.558 456.329 413.536 456.89 416.643C457.731 421.326 457.831 426.017 456.918 430.656C456.552 432.515 456.043 434.34 455.62 436.185C455.449 436.942 455.305 437.691 455.527 438.501C455.625 438.85 455.484 439.295 455.345 439.654C454.133 442.705 452.897 445.746 451.675 448.798C451.514 449.198 451.372 449.634 451.352 450.064C451.322 450.872 451.932 451.51 452.751 451.629C453.632 451.759 454.292 451.382 454.576 450.63C455.531 448.1 456.52 445.579 457.454 443.041C458.158 441.135 458.819 439.217 459.452 437.287C459.704 436.518 459.834 435.708 459.993 434.91C460.036 434.686 460.064 434.401 459.961 434.209C459.571 433.496 459.786 432.807 459.928 432.121C460.983 427.056 460.949 421.94 460.161 416.795C459.696 413.781 458.629 410.94 457.005 408.313C456.314 407.201 455.478 406.131 454.533 405.213C452.302 403.054 449.784 401.24 446.977 399.851C444.645 398.7 442.116 398.158 439.625 397.499C433.488 395.867 427.3 395.948 421.078 396.256C415.673 396.523 410.347 397.219 405.029 398.05C399.51 398.91 393.982 399.766 388.417 400.357C382.296 401.007 376.145 401.507 369.985 401.768C365.23 401.968 360.442 401.717 355.663 401.621C354.752 401.601 353.857 401.543 352.964 401.006C352.255 400.579 351.266 400.611 350.403 400.437C346.982 399.733 343.554 399.084 340.149 398.305C338.366 397.898 336.626 397.276 334.874 396.732C333.997 396.461 333.135 396.142 332.265 395.857C331.6 395.639 330.951 395.465 330.463 394.854C330.239 394.573 329.623 394.398 329.243 394.455C328.654 394.547 328.225 394.361 327.764 394.084C323.007 391.234 318.422 388.146 313.979 384.833C308.792 380.966 304.036 376.656 299.529 372.069C296.962 369.455 294.681 366.624 292.668 363.603C290.425 360.24 288.256 356.824 286.56 353.179C285.523 350.952 284.602 348.671 283.769 346.371C283.243 344.92 282.863 343.404 282.608 341.893C281.724 336.654 281.345 331.377 281.216 326.095C281.14 322.946 281.554 319.852 282.059 316.772C283.106 310.377 284.463 304.051 286.399 297.871C287.42 294.606 288.415 291.336 289.437 288.071C289.567 287.654 289.758 287.261 289.93 286.833L289.899 286.839ZM370.622 238.712C370.242 238.249 369.982 237.971 369.763 237.664C369.418 237.184 369.058 236.706 368.779 236.193C367.58 234.01 367.925 231.445 369.613 229.675C370.429 228.817 371.483 228.302 372.559 227.84C373.17 227.575 373.889 228.001 373.924 228.649C373.956 229.255 373.952 229.882 373.839 230.471C373.432 232.609 372.713 234.646 371.795 236.612C371.485 237.276 371.083 237.898 370.622 238.712ZM326.636 232.248C327.386 231.933 328.141 231.69 328.957 232.04C331.763 233.232 334.051 235.013 335.582 237.634C335.926 238.224 335.748 238.75 335.429 239.26C335.109 239.77 334.624 240.031 334.015 239.864C333.311 239.672 332.586 239.463 331.948 239.12C330.043 238.103 328.762 236.517 327.829 234.646C327.447 233.878 327.064 233.113 326.632 232.246L326.636 232.248ZM300.049 231.991C301.068 231.183 302.179 230.526 303.404 230.061C305.277 229.345 307.23 229.365 309.194 229.798C310.195 230.018 310.438 230.48 310.083 231.363C309.689 232.345 309.11 233.216 308.296 233.928C307.584 234.549 306.765 234.822 305.793 234.659C303.774 234.318 301.957 233.496 300.286 232.337C300.207 232.283 300.171 232.172 300.047 231.995L300.049 231.991ZM383.145 240.292C383.904 240.903 383.859 241.5 383.546 242.136C383.349 242.531 383.212 242.955 382.97 243.323C381.673 245.305 380.377 247.287 379.024 249.233C378.641 249.781 378.065 250.197 377.414 250.834C377.281 249.59 377.121 248.578 377.071 247.564C377.007 246.184 377.269 244.857 377.931 243.637C379.038 241.592 380.669 240.305 383.143 240.296L383.145 240.292ZM384.681 256.193C384.991 256.605 385.295 257.01 385.601 257.411C384.966 259.404 382.405 263.645 381.189 264.716C379.278 261.523 380.938 257.489 384.681 256.193ZM325.881 209.037C328.645 214.242 331.529 219.396 333.747 224.846C333.875 225.167 334.042 225.475 334.132 225.808C334.381 226.729 333.99 227.406 333.085 227.726C332.251 228.025 331.412 228.075 330.511 227.9C327.847 227.386 325.173 226.922 322.5 226.441C322.202 226.39 321.896 226.381 321.551 226.351C321.463 226.795 321.377 227.152 321.321 227.517C320.229 234.273 319.145 241.033 318.052 247.793C317.994 248.162 317.943 248.538 317.818 248.884C317.554 249.636 316.862 250.032 316.116 249.91C315.308 249.777 314.744 249.154 314.738 248.317C314.733 247.914 314.811 247.507 314.877 247.105C315.965 240.347 317.062 233.589 318.15 226.831C318.207 226.476 318.228 226.115 318.262 225.746C313.55 224.668 308.886 223.929 304.156 222.635C304.914 221.754 305.52 220.981 306.202 220.279C308.623 217.796 311.063 215.325 313.517 212.868C316.21 210.171 318.927 207.497 321.635 204.809C322.079 204.368 322.548 203.982 323.354 204.096C324.205 205.769 325.015 207.413 325.873 209.034L325.881 209.037ZM315.487 315.346C315.505 315.978 315.108 316.493 314.435 316.674C314.035 316.782 313.614 316.832 313.214 316.94C309.028 318.058 304.729 318.842 300.768 320.62C300.152 320.897 299.471 320.673 299.039 320.195C298.586 319.689 298.473 318.95 298.907 318.404C299.23 317.991 299.67 317.607 300.144 317.387C301.015 316.985 301.927 316.622 302.866 316.393C306.308 315.551 309.761 314.764 313.219 313.979C313.611 313.89 314.039 313.953 314.221 313.948C315.09 314.275 315.468 314.755 315.485 315.341L315.487 315.346ZM306.386 344.604C309.426 342.014 312.983 340.188 316.542 338.367C316.694 338.287 316.858 338.221 317.023 338.177C317.73 337.983 318.427 338.249 318.764 338.822C319.11 339.417 318.99 340.094 318.418 340.557C318.184 340.75 317.905 340.898 317.638 341.055C314.782 342.712 311.915 344.35 309.346 346.409C308.761 346.881 308.192 347.372 307.596 347.826C306.895 348.36 306.169 348.379 305.569 347.918C305.03 347.506 304.854 346.77 305.231 345.772C305.489 345.511 305.9 345.02 306.385 344.608L306.386 344.604ZM471.826 377.177C471.796 377.239 471.771 377.301 471.738 377.361C469.922 380.612 468.114 383.866 466.274 387.107C465.901 387.764 465.348 388.285 464.56 388.493C463.933 388.656 463.373 388.522 462.937 388.018C462.513 387.533 462.487 386.875 462.842 386.302C463.96 384.49 465.076 382.672 466.191 380.859C467.236 379.158 468.286 377.456 469.325 375.748C469.633 375.243 470.069 374.962 470.692 374.999C471.237 375.03 471.681 375.309 471.834 375.795C471.969 376.228 471.919 376.709 471.951 377.173C471.908 377.174 471.869 377.177 471.826 377.177ZM455.928 376.652C456.471 375.302 456.993 373.943 457.567 372.61C457.778 372.12 458.051 371.629 458.408 371.238C458.954 370.637 459.968 370.685 460.596 371.242C461.192 371.774 461.217 372.458 460.721 373.171C460.454 373.551 460.195 373.958 460.04 374.393C459.113 377.043 458.224 379.704 457.309 382.36C457.167 382.772 457 383.188 456.778 383.564C456.254 384.453 455.284 384.829 454.379 384.534C453.723 384.32 453.291 383.877 453.149 383.223C453.019 382.624 453.285 382.197 453.764 381.824C454.041 381.607 454.271 381.285 454.409 380.966C455.005 379.564 455.555 378.149 456.123 376.735C456.057 376.709 455.996 376.684 455.93 376.658L455.928 376.652ZM481.718 382.721C481.323 383.228 480.866 383.692 480.505 384.222C479.142 386.241 477.817 388.28 476.458 390.301C476.024 390.943 475.583 391.591 475.061 392.165C474.383 392.919 473.511 393.002 472.828 392.476C472.093 391.912 472.003 391.046 472.597 390.208C473.005 389.629 473.403 389.042 473.82 388.466C475.342 386.351 476.859 384.234 478.405 382.138C478.763 381.652 479.209 381.216 479.663 380.81C480.1 380.42 480.644 380.334 481.229 380.573C482.093 380.957 482.325 381.944 481.718 382.721ZM314.09 327.424C314.061 328.028 313.69 328.467 313.05 328.661C312.687 328.77 312.304 328.835 311.956 328.978C309.775 329.857 307.608 330.76 305.429 331.635C304.757 331.908 304.072 332.157 303.374 332.364C302.186 332.716 301.323 332.388 300.983 331.504C300.653 330.642 301.103 329.842 302.255 329.416C305.334 328.269 308.424 327.144 311.524 326.051C311.986 325.885 312.536 325.937 312.795 325.909C313.719 326.262 314.114 326.808 314.084 327.426L314.09 327.424ZM320.159 349.706C318.37 351.435 316.599 353.176 315.079 355.146C314.748 355.579 314.211 355.919 313.693 356.144C312.953 356.467 312.214 356.211 311.807 355.646C311.417 355.102 311.43 354.464 311.945 353.859C313.004 352.621 314.053 351.374 315.192 350.208C316.525 348.847 317.951 347.573 319.342 346.267C319.93 345.715 320.638 345.648 321.245 346.079C321.815 346.486 321.985 347.129 321.574 348.117C321.24 348.498 320.745 349.148 320.159 349.706ZM442.221 367.797C442.813 367.794 443.261 368.074 443.487 368.58C443.653 368.948 443.738 369.365 443.772 369.766C443.886 371.294 443.995 372.824 444.056 374.353C444.121 376.016 444.155 377.685 444.159 379.346C444.163 380.164 443.706 380.673 442.99 380.796C442.294 380.917 441.616 380.581 441.31 379.824C441.111 379.325 440.998 378.764 440.987 378.235C440.929 375.312 440.914 372.388 440.888 369.469C440.885 369.167 440.916 368.864 440.927 368.673C441.244 368.084 441.632 367.793 442.222 367.794L442.221 367.797ZM323.259 363.836C324.334 361.92 325.379 359.983 326.453 358.066C326.734 357.568 327.032 357.064 327.409 356.636C327.969 356.013 328.765 355.963 329.389 356.424C329.962 356.846 330.1 357.567 329.753 358.266C329.006 359.781 328.282 361.309 327.511 362.814C326.974 363.866 326.405 364.904 325.804 365.926C325.452 366.528 324.899 366.944 324.176 367.086C323.581 367.203 323.055 367.033 322.661 366.555C322.301 366.114 322.225 365.628 322.486 364.966C322.685 364.673 323.006 364.277 323.253 363.839L323.259 363.836ZM314.109 307.073C314.122 307.644 313.844 308.052 313.334 308.28C313.055 308.405 312.737 308.45 312.435 308.525C309.903 309.14 307.374 309.76 305.124 311.095C304.41 311.52 303.697 311.411 303.196 310.904C302.665 310.367 302.552 309.487 303.092 308.842C303.468 308.392 303.999 308.008 304.543 307.766C306.926 306.717 309.467 306.138 312.056 305.715C312.422 305.657 312.816 305.719 313.028 305.722C313.744 306.015 314.1 306.504 314.11 307.069L314.109 307.073Z" fill="#05793C"/>
<path d="M0 0V-4H-4V0H0ZM450 0H454V-4H450V0ZM0 4H450V-4H0V4ZM446 0V342H454V0H446ZM4 342V0H-4V342H4Z" fill="#05793C" mask="url(#path-11-inside-1_3274_2429)"/>
</g>
<defs>
<clipPath id="clip0_3274_2429">
<rect width="505" height="469" fill="white"/>
</clipPath>
</defs>
</svg>
