<svg width="62" height="19" viewBox="0 0 62 19" fill="none" xmlns="http://www.w3.org/2000/svg">
    <path
        d="M7.51054 6.32068C5.97682 6.32068 4.75635 7.10552 4.00548 8.38428V0.132812C2.48047 0.420238 1.94056 0.524063 0.8125 0.719396V0.946404C1.39774 1.16579 1.4855 1.20802 1.98357 1.42975V17.908H4.00548V16.5002C5.50839 18.9052 9.11459 18.5668 10.9116 16.5706C14.1662 13.4136 12.3604 6.23856 7.51054 6.32068ZM9.01811 16.1817C7.73953 17.7901 5.04927 17.8687 4.00489 16.1624C4.00489 14.3082 4.00489 10.5775 4.00489 8.72449C5.04229 6.74008 7.9319 6.9536 9.10238 8.72743C10.5234 10.3822 10.5408 14.6642 9.01811 16.1817Z"
        fill="white" />
    <path
        d="M18.387 0.412109C16.9341 0.673139 16.6139 0.730624 15.1935 0.998692V1.2257C15.5921 1.36611 15.9832 1.52744 16.3651 1.70904V17.7263C15.9281 17.7263 15.0493 17.9609 14.6123 17.9609V18.1873H20.1393V17.9609C19.3762 17.7556 19.1658 17.7069 18.387 17.4776V0.412109Z"
        fill="white" />
    <path
        d="M31.0401 9.60356C30.8866 0.916858 15.8569 11.7452 25.326 10.3385C26.3761 10.1303 27.1787 10.616 27.0183 11.2642C26.9544 11.5223 26.8579 11.7499 26.1861 11.9593C16.9559 14.4376 26.6243 22.1277 29.017 15.6577V17.8574H32.7691V17.6309C31.9752 17.4239 31.7549 17.347 31.0162 17.1476C31.0203 15.145 31.036 11.605 31.0401 9.60356ZM29.0368 10.6993C29.0257 11.6871 29.0065 13.6727 28.9955 14.6605C28.8578 18.9085 23.3744 17.3482 24.9592 13.6956C25.303 13.1387 25.7937 12.6894 26.3761 12.398C27.8209 11.588 27.8372 10.2482 26.7179 9.84582C25.7345 9.48214 24.4513 9.64403 24.5129 8.83044C25.2533 4.94727 29.2652 7.21441 29.0368 10.6993V10.6993Z"
        fill="white" />
    <path
        d="M44.588 7.52733C42.7224 5.69778 39.143 6.64159 38.6019 9.34574V6.66857L34.8271 8.07637V8.16729C35.2642 8.40193 36.1429 8.58905 36.58 8.82603V17.7268C36.1429 17.7268 35.2636 17.9615 34.8271 17.9615V18.1879H40.3541V17.9615C39.6306 17.755 39.297 17.6647 38.6019 17.4781C38.6019 15.7418 38.6019 12.7356 38.6019 10.9999C38.6211 8.97736 39.2075 7.57015 41.1631 7.53026C43.0153 7.59303 43.5384 8.98264 43.5669 10.9999C43.5669 12.7338 43.5669 15.9929 43.5669 17.7268C43.1304 17.7268 42.2511 17.9615 41.8146 17.9615V18.1879H47.3416V17.9615C46.6605 17.7685 46.4524 17.7268 45.5894 17.4781C45.3487 14.9177 46.3274 9.25423 44.588 7.52733Z"
        fill="white" />
    <path
        d="M58.4117 14.8864L55.1315 11.5869H52.6151L55.8952 8.54841C59.1713 8.46394 58.2873 9.13968 60.7259 6.80215H57.4458L52.5924 11.2919V0.410156C51.1865 0.644789 50.8675 0.703448 49.3994 0.996739V1.22375C49.869 1.39972 50.0916 1.48771 50.5705 1.70709V18.1854H52.5924V11.9043L58.8162 18.1854C59.3881 18.1854 60.3958 18.1936 61.1804 18.1854C61.1851 18.1854 61.188 17.6786 61.188 17.6786L58.4117 14.8864Z"
        fill="white" />
</svg>