<svg width="84" height="26" viewBox="0 0 84 26" fill="none" xmlns="http://www.w3.org/2000/svg">
    <path
        d="M9.98591 9.39461C7.88538 9.39461 6.21387 10.4695 5.18549 12.2208V0.919922C3.0969 1.31357 2.35745 1.45577 0.8125 1.72329V2.03419C1.61403 2.33465 1.73422 2.39249 2.41635 2.69616V25.2643H5.18549V23.3362C7.24384 26.63 12.1827 26.1664 14.6438 23.4326C19.1012 19.1089 16.6282 9.28214 9.98591 9.39461ZM12.0506 22.9C10.2995 25.1028 6.61503 25.2104 5.18469 22.8734C5.18469 20.334 5.18469 15.2246 5.18469 12.6868C6.60548 9.96901 10.563 10.2614 12.166 12.6908C14.1122 14.9571 14.136 20.8217 12.0506 22.9Z"
        fill="#FFFCB6" />
    <path
        d="M24.8821 1.30078C22.8923 1.65828 22.4537 1.73701 20.5084 2.10415V2.41505C21.0543 2.60734 21.5899 2.8283 22.113 3.07702V25.0137C21.5145 25.0137 20.311 25.335 19.7124 25.335V25.6451H27.282V25.335C26.2369 25.0538 25.9487 24.9872 24.8821 24.673V1.30078Z"
        fill="#FFFCB6" />
    <path
        d="M42.2119 13.8905C42.0017 1.99347 21.4175 16.8236 34.386 14.8971C35.8243 14.6119 36.9235 15.2771 36.7038 16.1648C36.6163 16.5183 36.4842 16.83 35.564 17.1168C22.9226 20.511 36.1642 31.0431 39.4411 22.182V25.1946H44.5798V24.8845C43.4926 24.6009 43.1909 24.4957 42.1792 24.2225C42.1848 21.4798 42.2063 16.6315 42.2119 13.8905ZM39.4682 15.3912C39.4531 16.744 39.4268 19.4634 39.4117 20.8163C39.2231 26.6342 31.7132 24.4973 33.8838 19.4947C34.3546 18.7321 35.0266 18.1167 35.8243 17.7177C37.8031 16.6083 37.8254 14.7734 36.2923 14.2223C34.9456 13.7242 33.1881 13.9459 33.2725 12.8316C34.2865 7.51338 39.781 10.6184 39.4682 15.3912V15.3912Z"
        fill="#FFFCB6" />
    <path
        d="M60.7661 11.0466C58.211 8.54091 53.3087 9.83352 52.5677 13.537V9.87048L47.3979 11.7986V11.9231C47.9965 12.2444 49.2 12.5007 49.7986 12.8253V25.0155C49.2 25.0155 47.9957 25.3368 47.3979 25.3368V25.6469H54.9675V25.3368C53.9765 25.0541 53.5197 24.9303 52.5677 24.6749C52.5677 22.2969 52.5677 18.1797 52.5677 15.8025C52.594 13.0325 53.3971 11.1052 56.0755 11.0506C58.6122 11.1366 59.3285 13.0397 59.3676 15.8025C59.3676 18.1773 59.3676 22.6408 59.3676 25.0155C58.7698 25.0155 57.5655 25.3368 56.9677 25.3368V25.6469H64.5373V25.3368C63.6044 25.0725 63.3195 25.0155 62.1375 24.6749C61.808 21.1682 63.1484 13.4117 60.7661 11.0466Z"
        fill="#FFFCB6" />
    <path
        d="M79.6994 21.125L75.207 16.6061H71.7605L76.2529 12.4447C80.7397 12.329 79.529 13.2545 82.8689 10.0531H78.3765L71.7294 16.202V1.29883C69.804 1.62017 69.367 1.70051 67.3564 2.10219V2.41309C67.9996 2.6541 68.3044 2.77461 68.9603 3.07507V25.6432H71.7294V17.0407L80.2533 25.6432C81.0366 25.6432 82.4167 25.6544 83.4913 25.6432C83.4977 25.6432 83.5016 24.949 83.5016 24.949L79.6994 21.125Z"
        fill="#FFFCB6" />
</svg>