<svg width="290" height="271" viewBox="0 0 290 271" fill="none" xmlns="http://www.w3.org/2000/svg">
<path d="M11.5636 110.198C11.7217 110.151 11.768 110.124 11.7993 110.133C14.1328 110.59 14.9797 109.497 14.5122 107.128C13.4461 101.774 11.0887 96.8955 9.17174 91.8558C8.14111 89.1459 7.0788 86.4499 6.15229 83.7064C4.82822 79.8158 4.58454 75.7559 4.47347 71.6812C4.35771 67.4989 4.77547 63.3925 6.08668 59.3967C7.17954 56.0698 8.12383 52.6919 9.35343 49.4183C10.4224 46.5773 12.0855 44.0242 14.1358 41.7595C14.2481 41.6329 14.3926 41.5318 14.5815 41.3698C14.8352 41.4881 15.11 41.5897 15.3553 41.7393C17.5798 43.0627 20.0042 43.8074 22.554 44.1885C25.7497 44.6644 28.1312 43.4395 29.7142 40.6635C30.2235 39.7649 30.6107 38.8001 31.115 37.7324C31.3044 38.0069 31.5029 38.2056 31.5959 38.4431C32.359 40.4602 32.3301 42.4889 31.7383 44.5515C31.006 47.0966 29.973 49.5109 28.8148 51.8916C27.8318 53.9108 26.9618 55.9883 26.049 58.0376C24.7192 61.0381 24.6667 64.157 25.2624 67.321C25.6138 69.1831 26.5397 70.7179 28.001 71.904C31.4398 74.6884 35.3131 76.185 39.7919 75.5053C41.6174 75.228 43.444 74.7999 45.1937 74.2001C48.478 73.0716 50.39 70.6132 51.3066 67.3174C52.402 63.3757 52.3635 59.4267 51.0363 55.5688C50.3227 53.4922 49.4023 51.4776 48.4314 49.5055C46.8597 46.3094 46.2855 42.961 46.5636 39.4381C46.5891 39.0925 46.6578 38.7528 46.7368 38.4159C46.7974 38.1692 46.8996 37.9337 47.011 37.6222C47.794 37.832 48.0902 38.4597 48.445 39.0359C49.734 41.1156 51.2355 43.0285 53.3989 44.246C54.5896 44.9175 55.8787 45.5147 57.2011 45.841C59.444 46.3861 61.5382 46.108 62.8896 43.6952C63.1232 43.9927 63.369 44.1817 63.4436 44.4255C63.8979 45.8619 64.5057 47.2892 64.709 48.7647C65.2236 52.4608 65.262 56.1804 64.5916 59.8723C64.4227 60.7949 64.1021 61.6993 63.8013 62.5922C63.4041 63.7613 63.8536 64.8608 64.9459 65.2318C65.7395 65.506 66.3524 65.3066 66.9227 64.6817C67.3194 64.2453 67.7627 63.8438 68.2174 63.4621C69.3781 62.492 70.5426 61.5284 71.7328 60.5941C76.8859 56.5424 80.3715 51.2383 83.2441 45.4454C84.1667 43.589 85.2218 41.8017 86.2613 40.0102C88.7725 35.6703 91.3213 31.3572 93.8235 27.0092C94.8822 25.1669 96.0004 23.3741 97.4399 21.8017C98.8021 20.3092 100.506 19.8594 102.739 20.0661C102.201 20.4647 101.88 20.7254 101.539 20.953C96.0884 24.6117 95.9806 31.4867 99.5862 35.569C100.209 36.273 100.89 36.9254 101.191 37.89C101.31 38.2801 101.821 38.5456 102.281 38.999C101.44 40.9053 100.645 42.9133 99.682 44.8371C97.5619 49.0749 94.8407 52.883 91.6019 56.3679C87.474 60.8117 83.0408 64.9332 78.5189 68.947C75.5527 71.5818 72.243 73.828 69.08 76.2366C68.047 77.0228 66.9857 77.7678 65.945 78.5408C65.6663 78.7458 65.39 78.9627 65.1693 79.2225C64.5077 79.9795 64.4619 80.9855 65.0183 81.7276C65.58 82.4711 66.5474 82.7024 67.4656 82.2826C67.7007 82.1778 67.9233 82.036 68.1316 81.8848C71.4367 79.4472 74.7455 77.0162 78.0315 74.5454C79.1733 73.6876 80.2907 72.7954 81.3205 71.8125C85.4824 67.8477 89.769 64.0226 93.7584 59.8661C98.8725 54.5396 102.756 48.5029 105.451 41.661C105.608 41.2612 105.802 40.8712 105.951 40.4634C106.193 39.7897 106.495 39.2888 107.315 39.0889C107.757 38.9836 108.283 38.3974 108.401 37.9366C109.086 35.2556 110.999 33.8157 113.385 32.8884C114.621 32.4085 115.929 32.0372 117.236 31.8167C118.472 31.6107 119.176 32.1128 119.731 33.2574C119.529 33.3208 119.343 33.4108 119.147 33.4311C114.092 33.9228 111.257 37.3646 110.232 41.7335C109.674 44.1073 109.945 46.457 110.498 48.7983C110.656 49.4616 110.762 50.1503 110.793 50.8299C110.84 51.9056 111.661 52.0806 112.42 52.3175C112.419 52.446 112.447 52.5487 112.41 52.6057C109.364 57.2277 106.355 61.8595 102.088 65.5276C99.1418 68.067 96.4051 70.8472 93.455 73.38C91.4932 75.0642 89.3513 76.5435 87.234 78.035C83.7333 80.493 80.1864 82.8938 76.6485 85.3027C76.1154 85.6634 75.5018 85.9073 74.9854 86.2893C74.3363 86.7699 73.6479 87.2512 73.1563 87.8748C72.5696 88.6239 72.7062 89.6172 73.2746 90.2731C73.8392 90.9223 74.7847 91.1309 75.646 90.735C76.0741 90.5364 76.4758 90.2692 76.8656 90.0044C81.8292 86.6181 86.8132 83.2596 91.7447 79.8255C95.3712 77.295 98.5879 74.2685 101.816 71.262C102.51 70.6143 103.154 69.9028 103.877 69.291C109.61 64.494 113.571 58.2934 117.459 52.051C118.028 51.1403 118.625 50.685 119.697 50.6532C120.96 50.6168 122.207 50.5985 123.411 51.0329C124.175 51.3106 124.772 51.7558 124.782 52.6815C120.462 53.3311 118.007 56.1029 116.449 59.831C115.637 61.7732 115.684 63.811 116.435 65.7912C117 67.2742 117.635 68.7255 118.348 70.4495C118.104 70.8989 117.742 71.6243 117.327 72.3186C114.355 77.2905 110.807 81.7835 106.291 85.4631C104.882 86.6074 103.52 87.8088 102.169 89.0301C99.2974 91.6232 96.1934 93.8741 92.81 95.7481C89.7098 97.463 86.7221 99.4262 83.5018 100.88C76.9277 103.846 70.4411 107.07 63.4166 108.919C63.044 109.015 62.6769 109.174 62.3407 109.364C60.5649 110.354 58.8057 111.365 57.117 112.323C56.8637 112.809 56.7123 113.311 56.4073 113.677C54.3422 116.122 52.9238 118.931 51.7653 121.877C49.1077 128.6 48.1171 135.512 49.0247 142.732C49.6902 148.058 50.3835 153.363 51.7721 158.557C52.4469 161.071 53.3038 163.511 54.4811 165.84C55.241 167.347 55.9573 168.871 56.6788 170.396C57.6649 172.478 58.8859 174.394 60.3461 176.19C64.307 181.055 68.9531 185.159 74.0663 188.773C77.7493 191.376 81.5582 193.74 85.6664 195.613C86.0957 195.806 86.5191 196.043 86.8971 196.323C88.9749 197.881 91.3294 198.803 93.8319 199.423C99.0913 200.737 104.433 201.576 109.839 201.799C112.501 201.908 115.185 201.603 117.855 201.407C124.927 200.885 131.726 199.042 138.533 197.19C143.096 195.946 147.53 194.409 151.737 192.219C153.819 191.132 156.074 190.505 158.35 189.962C163.782 188.671 169.109 187.06 174.341 185.094C177.694 183.833 181.189 182.963 184.628 181.948C187.409 181.132 190.216 180.408 192.988 179.584C196.871 178.431 200.882 178.141 204.872 177.638C210.895 176.874 216.86 177.331 222.823 178.252C229.631 179.298 236.381 180.626 242.93 182.761C250.303 185.167 256.898 188.949 262.284 194.655C263.352 195.786 264.449 196.891 265.554 197.987C269.581 201.981 272.928 206.464 275.374 211.595C277.18 215.38 279.117 219.111 280.747 222.966C283.395 229.225 284.672 235.839 285.402 242.575C286.19 249.863 286.112 257.149 285.672 264.449C285.543 266.602 285.517 268.766 285.42 270.922C285.394 271.436 285.285 271.949 285.189 272.455C284.433 276.403 283.704 280.354 282.891 284.287C282.489 286.227 281.943 288.14 281.423 290.059C280.568 293.187 279.671 296.303 278.811 299.43C278.724 299.753 278.721 300.122 278.766 300.453C278.878 301.288 279.462 301.887 280.251 302.053C281.076 302.23 281.906 301.848 282.329 301.083C282.456 300.86 282.545 300.609 282.618 300.36C283.838 296.077 285.137 291.815 286.232 287.499C286.886 284.91 287.217 282.235 287.684 279.596C287.776 279.084 287.852 278.573 287.922 278.06C287.998 277.526 288.165 277.112 288.698 276.813C289.602 276.3 289.785 275.471 289.601 274.465C289.44 273.583 289.35 272.669 289.378 271.77C289.543 266.371 289.848 260.975 289.928 255.581C290.069 245.722 289.098 235.984 286.222 226.503C285.002 222.478 283.329 218.633 281.455 214.875C280.602 213.175 279.71 211.493 278.882 209.777C276.35 204.55 273 199.91 268.918 195.789C267.245 194.099 265.58 192.399 263.905 190.714C259.225 186.008 253.606 182.757 247.527 180.222C244.684 179.035 241.743 178.174 238.756 177.441C230.978 175.525 223.133 174.027 215.131 173.405C210.664 173.058 206.24 173.534 201.812 174.004C197.671 174.444 193.622 175.233 189.629 176.457C185.501 177.729 181.301 178.768 177.14 179.953C175.643 180.38 174.159 180.866 172.722 181.449C168.345 183.23 163.832 184.6 159.243 185.67C155.264 186.595 151.413 187.813 147.785 189.722C145.173 191.098 142.381 192.039 139.53 192.78C135.014 193.953 130.51 195.186 125.965 196.239C121.408 197.295 116.738 197.767 112.078 197.872C109.077 197.941 106.059 197.429 103.057 197.106C100.735 196.858 98.4496 196.408 96.2181 195.654C94.6071 195.11 93.1244 194.338 91.6829 193.454C91.1924 193.155 90.5767 193.051 90.012 192.883C89.5658 192.752 89.0879 192.719 88.6648 192.545C82.887 190.18 77.8061 186.675 72.8776 182.915C69.1061 180.036 65.8094 176.68 62.8978 172.952C61.893 171.67 61.1498 170.184 60.3202 168.77C59.994 168.212 59.8068 167.575 59.4872 167.014C55.6915 160.279 54.2404 152.874 53.3385 145.32C52.9269 141.887 52.4329 138.448 52.7246 134.979C53.2575 128.626 55.1269 122.693 58.5449 117.287C59.1859 116.273 60.0475 115.396 60.853 114.499C61.3982 113.884 61.9809 113.296 62.9679 113.538C63.2198 113.6 63.6127 113.47 63.8071 113.287C64.509 112.63 65.4035 112.445 66.2626 112.183C70.1983 110.983 74.0584 109.606 77.7519 107.764C79.1413 107.068 80.6297 106.566 82.033 105.902C84.6481 104.661 87.2722 103.428 89.8237 102.07C92.075 100.872 94.2411 99.5108 96.4389 98.2199C99.0205 96.7073 101.423 94.9453 103.679 92.9763C105.212 91.6414 106.702 90.256 108.284 88.9848C114.353 84.1044 118.937 78.0427 122.496 71.1694C124.042 68.1765 125.565 65.1662 126.968 62.1014C128.167 59.4854 128.756 56.6835 128.824 53.7982C128.924 49.6457 126.884 47.32 122.765 46.8653C122.081 46.7883 121.391 46.7714 120.555 46.7207C120.69 46.3598 120.776 46.0414 120.923 45.7621C122.092 43.4903 123.179 41.1858 123.761 38.6787C124.167 36.9355 124.329 35.183 123.994 33.4038C123.243 29.4206 120.311 27.3145 116.279 27.8903C114.419 28.1526 112.663 28.734 111.03 29.6726C110.659 29.8866 110.278 30.0755 109.749 30.3589C109.779 29.936 109.791 29.6596 109.823 29.3941C110.02 27.6788 110.384 25.9638 110.379 24.2504C110.372 22.8555 110.053 21.4161 109.63 20.0719C109.066 18.2705 107.702 17.1385 105.923 16.5331C101.441 15.0132 96.8231 16.2319 93.871 19.8999C92.5535 21.5386 91.3842 23.3344 90.3492 25.1719C87.6268 29.9868 84.9576 34.8327 81.9055 39.4585C79.2097 43.5476 76.9881 47.8924 74.8093 52.2655C74.2244 53.446 73.455 54.4594 72.4535 55.3156C71.537 56.1051 70.6849 56.9677 69.7941 57.7864C69.5558 58.0079 69.2645 58.176 68.8067 58.5065C68.872 57.7407 68.9493 57.202 68.9649 56.6635C69.1041 52.5943 69.1633 48.5316 67.8097 44.6051C67.6671 44.1976 67.5576 43.7711 67.3583 43.3876C64.6087 38.052 60.9202 33.6733 55.1551 31.4068C54.9519 31.33 54.7501 31.2479 54.5535 31.1673C49.8637 29.2728 44.6875 31.7406 43.1309 36.6105C42.2647 39.3212 42.4058 42.0725 42.8366 44.8286C43.2032 47.1983 43.8953 49.4593 45.0711 51.5647C46.4261 54.0034 47.4343 56.5674 47.903 59.3281C48.3738 62.1229 48.0764 64.8406 47.0345 67.4762C46.5348 68.7354 45.6774 69.6805 44.419 70.2217C39.9415 72.1494 35.5668 72.3983 31.3492 69.4723C29.9291 68.4875 29.1588 67.207 28.983 65.5038C28.7321 63.1204 29.0888 60.8494 30.0902 58.6784C31.3798 55.8909 32.7226 53.1345 33.9366 50.3156C34.9776 47.8923 35.9591 45.4195 36.1259 42.7507C36.3537 39.1025 35.5442 35.7973 32.6903 33.2312C30.9367 31.6535 28.9127 30.8762 26.5519 30.8758C22.3624 30.8722 18.6654 32.1418 15.4589 34.88C10.1734 39.4054 6.34635 44.8977 4.27966 51.5667C3.43675 54.2948 2.63559 57.0342 1.84491 59.7763C1.0626 62.4871 0.572995 65.254 0.580396 68.0869C0.58519 70.7624 0.575383 73.4508 0.744131 76.12C0.994166 80.1144 1.86501 83.9843 3.36229 87.7088C5.23198 92.361 7.05672 97.0348 8.87625 101.707C9.25071 102.669 9.53807 103.664 9.76667 104.335C9.19487 105.675 8.59701 106.696 8.32416 107.797C7.40736 111.49 6.50101 115.186 5.78014 118.92C4.90549 123.458 4.09065 128.023 3.50104 132.604C2.59625 139.635 1.9466 146.695 1.84551 153.795C1.77827 158.494 2.47941 163.101 3.14885 167.723C3.86868 172.699 5.08332 177.562 6.29134 182.428C6.96998 185.178 8.14354 187.731 9.50063 190.203C9.9192 190.959 10.343 191.716 10.7365 192.482C15.3729 201.445 21.5122 209.288 28.7901 216.223C31.7536 219.048 35.0413 221.541 38.2652 224.083C46.1089 230.263 54.7434 235.184 63.6178 239.71C64.3119 240.064 65.0167 240.398 65.7028 240.761C65.9626 240.898 66.2695 241.047 66.4255 241.279C67.0371 242.17 67.9429 242.486 68.9172 242.775C70.3206 243.196 71.6852 243.74 73.0789 244.198C73.6029 244.372 74.1528 244.491 74.7048 244.561C75.8965 244.707 77.1296 244.656 78.2916 244.934C84.7151 246.476 91.2424 247.067 97.8118 247.418C100.223 247.543 102.626 247.846 105.043 247.99C109.299 248.247 113.489 247.562 117.692 247.055C123.41 246.366 129.048 245.303 134.641 243.932C138.923 242.88 143.29 242.182 147.559 241.093C152.501 239.833 157.379 238.331 162.28 236.914C167.306 235.464 172.284 233.821 177.356 232.556C184.528 230.763 191.764 229.228 199.16 228.686C204.541 228.293 209.883 228.863 215.129 230.039C219.562 231.031 223.443 233.274 226.79 236.274C229.79 238.964 231.545 242.539 232.645 246.369C234.298 252.144 235.048 258.052 234.556 264.063C234.358 266.471 233.981 268.86 233.713 271.261C233.606 272.245 233.53 273.215 233.91 274.201C234.076 274.626 233.964 275.211 233.841 275.687C232.772 279.742 231.671 283.789 230.589 287.846C230.447 288.378 230.332 288.952 230.365 289.498C230.437 290.524 231.266 291.228 232.281 291.242C233.372 291.26 234.128 290.674 234.373 289.677C235.199 286.323 236.068 282.975 236.868 279.614C237.471 277.091 238.021 274.558 238.535 272.016C238.739 271.002 238.789 269.958 238.876 268.924C238.898 268.633 238.895 268.269 238.743 268.044C238.172 267.208 238.342 266.303 238.424 265.413C239.033 258.84 238.306 252.385 236.656 246.017C235.685 242.289 234.003 238.878 231.67 235.831C230.678 234.541 229.515 233.329 228.239 232.327C225.229 229.97 221.915 228.098 218.304 226.811C215.306 225.745 212.148 225.481 209.021 225.062C201.316 224.022 193.78 225.152 186.231 226.576C179.673 227.812 173.27 229.576 166.894 231.51C160.276 233.513 153.648 235.513 146.939 237.184C139.56 239.023 132.123 240.678 124.644 242.031C118.87 243.074 112.996 243.553 107.154 244.226C106.04 244.352 104.941 244.427 103.779 243.897C102.857 243.477 101.655 243.681 100.579 243.605C96.3122 243.284 92.043 243.035 87.7858 242.616C85.5557 242.399 83.35 241.903 81.14 241.507C80.0343 241.312 78.9402 241.052 77.8401 240.835C77 240.672 76.1852 240.56 75.5086 239.869C75.1967 239.551 74.4227 239.433 73.9668 239.568C73.2606 239.782 72.7115 239.618 72.1131 239.346C65.9285 236.536 59.9212 233.399 54.058 229.954C47.2135 225.932 40.8344 221.28 34.7228 216.235C31.241 213.361 28.0806 210.164 25.2198 206.685C22.0341 202.81 18.9309 198.856 16.374 194.535C14.81 191.895 13.3812 189.168 12.0578 186.402C11.2221 184.656 10.5545 182.804 10.0419 180.938C8.26176 174.469 7.09341 167.868 6.22867 161.219C5.71336 157.254 5.80512 153.279 6.0083 149.305C6.42893 141.053 7.237 132.839 8.77109 124.712C9.58001 120.42 10.3562 116.124 11.1651 111.831C11.2674 111.283 11.448 110.755 11.6005 110.186L11.5636 110.198ZM103.589 35.9982C103.063 35.4768 102.709 35.1693 102.4 34.8181C101.915 34.2685 101.412 33.7252 101.002 33.1232C99.2483 30.5663 99.326 27.2695 101.147 24.7532C102.028 23.5345 103.245 22.7081 104.495 21.9466C105.205 21.5102 106.139 21.9283 106.269 22.7406C106.389 23.5003 106.468 24.2934 106.409 25.0554C106.199 27.8243 105.595 30.5158 104.738 33.1507C104.449 34.0411 104.041 34.8942 103.589 35.9982ZM49.0675 35.1465C49.9401 34.6251 50.8283 34.1917 51.8705 34.4989C55.4527 35.5371 58.4821 37.4062 60.7011 40.4625C61.1994 41.1499 61.0528 41.8435 60.7317 42.5407C60.4106 43.2379 59.8531 43.648 59.0881 43.5381C58.2041 43.4132 57.2915 43.2693 56.4672 42.9422C54.0073 41.9753 52.2323 40.185 50.8433 37.9777C50.2752 37.0702 49.7057 36.1679 49.0623 35.1451L49.0675 35.1465ZM16.6007 39.2421C17.7362 38.0526 19.0038 37.0384 20.4355 36.2471C22.6241 35.032 25.0097 34.7313 27.4625 34.9522C28.7138 35.0637 29.0717 35.6072 28.757 36.7816C28.4073 38.0866 27.8183 39.2827 26.92 40.3176C26.1353 41.2207 25.173 41.7013 23.9651 41.6574C21.4564 41.5615 19.1302 40.8263 16.9361 39.6397C16.8335 39.5843 16.7741 39.4509 16.5993 39.2474L16.6007 39.2421ZM119.076 35.9126C120.083 36.5575 120.108 37.3195 119.812 38.1745C119.625 38.7061 119.515 39.264 119.268 39.7685C117.952 42.4874 116.636 45.2062 115.246 47.8885C114.853 48.6448 114.205 49.2657 113.496 50.178C113.167 48.6295 112.837 47.3773 112.641 46.1051C112.378 44.373 112.519 42.6542 113.163 41.0029C114.24 38.2367 116.057 36.3403 119.074 35.9178L119.076 35.9126ZM123.078 55.7386C123.512 56.2073 123.937 56.668 124.363 57.1235C123.857 59.7459 121.3 65.5283 119.96 67.0828C117.202 63.3673 118.686 57.9967 123.078 55.7386ZM45.0386 5.95928C49.1069 12.0734 53.3157 18.1021 56.7506 24.6172C56.95 25.0007 57.1943 25.3626 57.3487 25.7677C57.7755 26.8891 57.3891 27.8094 56.3284 28.3644C55.351 28.8801 54.3343 29.0833 53.2121 29.012C49.8938 28.8054 46.5692 28.6642 43.245 28.5008C42.8743 28.4854 42.5 28.525 42.075 28.5454C42.0273 29.1201 41.9697 29.5857 41.9499 30.056C41.5228 38.77 41.1061 47.4868 40.6776 56.206C40.6565 56.6815 40.6444 57.165 40.5384 57.6233C40.3172 58.6158 39.5256 59.2317 38.5994 59.2017C37.5958 59.1678 36.8248 58.4745 36.705 57.4185C36.6454 56.9102 36.6857 56.3839 36.7128 55.8653C37.1347 47.1499 37.5684 38.4321 37.9903 29.7167C38.0124 29.2583 37.99 28.7991 37.9822 28.3271C32.0891 27.7495 26.3017 27.5918 20.3581 26.7433C21.1654 25.5051 21.801 24.4277 22.5388 23.4282C25.1597 19.8897 27.8054 16.3634 30.4691 12.8531C33.3929 8.99858 36.3491 5.16946 39.2924 1.32572C39.7749 0.694135 40.2957 0.128744 41.2944 0.138987C42.5564 2.11078 43.7651 4.05153 45.0282 5.95648L45.0386 5.95928ZM46.5944 141.947C46.7004 142.742 46.2846 143.458 45.4884 143.799C45.0144 144.002 44.5088 144.135 44.0348 144.338C39.0783 146.445 33.9386 148.15 29.345 151.054C28.6308 151.506 27.7698 151.337 27.1797 150.804C26.5587 150.24 26.3224 149.327 26.7783 148.565C27.117 147.99 27.6022 147.432 28.1509 147.075C29.1594 146.422 30.2236 145.812 31.3388 145.367C35.4247 143.732 39.5318 142.163 43.6441 140.597C44.1112 140.42 44.6406 140.427 44.8628 140.392C45.9659 140.659 46.4916 141.203 46.5906 141.94L46.5944 141.947ZM39.4101 180.41C42.7718 176.633 46.8659 173.736 50.9638 170.845C51.1376 170.718 51.3295 170.607 51.525 170.525C52.3608 170.162 53.2472 170.382 53.7341 171.05C54.2363 171.744 54.1809 172.619 53.5455 173.299C53.2851 173.582 52.9653 173.815 52.6597 174.057C49.3984 176.624 46.1204 179.17 43.2615 182.197C42.6115 182.89 41.9834 183.606 41.3166 184.277C40.5338 185.069 39.6505 185.213 38.8564 184.732C38.144 184.3 37.8314 183.4 38.1577 182.077C38.4367 181.704 38.873 181.016 39.4088 180.415L39.4101 180.41ZM245.58 194.045C245.552 194.127 245.53 194.211 245.497 194.291C243.718 198.699 241.948 203.109 240.137 207.508C239.77 208.4 239.166 209.15 238.233 209.543C237.489 209.853 236.788 209.777 236.189 209.214C235.607 208.672 235.487 207.845 235.843 207.062C236.965 204.588 238.082 202.107 239.199 199.631C240.246 197.31 241.3 194.985 242.338 192.656C242.646 191.967 243.141 191.54 243.906 191.482C244.574 191.431 245.154 191.71 245.405 192.297C245.628 192.822 245.631 193.438 245.732 194.019C245.68 194.027 245.632 194.037 245.58 194.045ZM226.117 196.025C226.598 194.229 227.053 192.426 227.575 190.647C227.767 189.994 228.035 189.327 228.418 188.775C229.003 187.925 230.247 187.816 231.087 188.416C231.885 188.988 232.007 189.849 231.498 190.831C231.223 191.356 230.962 191.913 230.83 192.487C230.054 195.989 229.327 199.497 228.566 203.003C228.448 203.548 228.3 204.101 228.079 204.612C227.559 205.822 226.426 206.458 225.283 206.235C224.454 206.075 223.868 205.588 223.607 204.785C223.368 204.05 223.636 203.467 224.17 202.916C224.479 202.596 224.716 202.15 224.841 201.725C225.381 199.856 225.863 197.976 226.366 196.097C226.283 196.075 226.204 196.054 226.121 196.031L226.117 196.025ZM258.389 199.402C257.976 200.108 257.48 200.769 257.111 201.499C255.718 204.275 254.376 207.071 252.988 209.849C252.544 210.732 252.093 211.623 251.534 212.436C250.807 213.5 249.755 213.749 248.851 213.199C247.879 212.609 247.653 211.53 248.265 210.374C248.686 209.575 249.093 208.766 249.525 207.97C251.097 205.046 252.664 202.12 254.27 199.216C254.641 198.543 255.127 197.918 255.626 197.33C256.108 196.765 256.76 196.565 257.505 196.77C258.611 197.111 259.026 198.319 258.389 199.402ZM46.507 157.432C46.5531 158.199 46.1586 158.815 45.4042 159.167C44.9761 159.366 44.5175 159.511 44.1124 159.75C41.5694 161.222 39.047 162.723 36.5055 164.19C35.7231 164.646 34.9202 165.075 34.0971 165.453C32.6942 166.095 31.5977 165.823 31.0649 164.763C30.5475 163.729 30.9892 162.645 32.3372 161.915C35.9397 159.954 39.5574 158.02 43.1928 156.124C43.7338 155.838 44.412 155.813 44.724 155.734C45.8988 156.027 46.4533 156.651 46.5004 157.436L46.507 157.432ZM56.894 184.563C54.9424 187.044 53.0154 189.538 51.4251 192.279C51.0794 192.88 50.4703 193.399 49.8676 193.769C49.0093 194.3 48.0728 194.099 47.5016 193.454C46.9523 192.831 46.8833 192.024 47.4298 191.174C48.5563 189.434 49.6685 187.685 50.9024 186.024C52.3456 184.083 53.9142 182.237 55.4363 180.357C56.0802 179.562 56.9344 179.36 57.7331 179.803C58.4824 180.222 58.776 181.006 58.4064 182.322C58.05 182.859 57.5341 183.761 56.894 184.563ZM208.211 187.12C208.932 187.017 209.518 187.297 209.86 187.898C210.112 188.335 210.271 188.847 210.367 189.348C210.711 191.259 211.048 193.173 211.328 195.094C211.63 197.184 211.894 199.286 212.121 201.383C212.236 202.415 211.747 203.134 210.89 203.408C210.057 203.677 209.184 203.365 208.711 202.461C208.401 201.863 208.188 201.174 208.104 200.508C207.641 196.826 207.232 193.135 206.808 189.452C206.765 189.072 206.762 188.685 206.749 188.441C207.058 187.645 207.492 187.213 208.212 187.115L208.211 187.12ZM62.5669 201.894C63.6213 199.295 64.6367 196.675 65.6911 194.076C65.9673 193.4 66.2633 192.713 66.6654 192.11C67.2648 191.23 68.229 191.035 69.052 191.513C69.8076 191.951 70.0732 192.839 69.7427 193.78C69.0347 195.817 68.3566 197.867 67.6172 199.896C67.1031 201.313 66.5472 202.72 65.951 204.11C65.6029 204.928 64.9843 205.546 64.1206 205.846C63.4113 206.092 62.7462 205.964 62.202 205.427C61.7031 204.93 61.5454 204.328 61.7752 203.449C61.9786 203.045 62.317 202.492 62.5603 201.898L62.5669 201.894ZM43.8051 131.728C43.8979 132.446 43.6132 133.008 43.021 133.38C42.6977 133.585 42.3157 133.695 41.958 133.84C38.9517 135.037 35.9492 136.241 33.3833 138.301C32.5701 138.955 31.6855 138.937 31.0067 138.38C30.2865 137.79 30.0309 136.697 30.6032 135.793C31.0018 135.162 31.5974 134.588 32.2294 134.193C34.9954 132.472 38.018 131.318 41.1187 130.353C41.5575 130.219 42.0462 130.232 42.3063 130.201C43.2184 130.451 43.7176 131.01 43.8065 131.722L43.8051 131.728Z" fill="#5FE09D"/>
</svg>
