<svg width="566" height="435" viewBox="0 0 566 435" fill="none" xmlns="http://www.w3.org/2000/svg">
<rect x="1.5" y="1.5" width="563" height="432" fill="#DDDDDD"/>
<rect width="546" height="64" transform="translate(10 10)" fill="#3451B2"/>
<rect x="502" y="21" width="44" height="41" fill="#DDDDDD"/>
<path d="M515.703 56.5547H510V52.2773H512.852V49.4258H515.703V46.5547H518.555V43.7031H521.426V40.8516H518.555V38H515.703V35.1289H512.852V32.2773H510V28H515.703V30.8516H518.555V33.7031H521.426V36.5547H527.129V33.7031H530V30.8516H532.852V28H538.555V32.2773H535.703V35.1289H532.852V38H530V40.8516H527.129V43.7031H530V46.5547H532.852V49.4258H535.703V52.2773H538.555V56.5547H532.852V53.7031H530V50.8516H527.129V48H521.426V50.8516H518.555V53.7031H515.703V56.5547Z" fill="#1B1B1B"/>
<path d="M229.919 148H224.929V113H229.919V125.51H232.414V123.015H241.164V125.51H243.676V128.005H246.171V148H241.164V130.5H238.669V128.005H232.414V130.5H229.919V148ZM268.679 148H256.169V145.505H253.674V143.01H251.179V128.005H253.674V125.51H256.169V123.015H268.679V125.51H271.174V128.005H273.669V136.755H256.169V140.515H258.664V143.01H266.167V140.515H273.669V143.01H271.174V145.505H268.679V148ZM256.169 133.012H268.679V130.5H266.167V128.005H258.664V130.5H256.169V133.012ZM283.649 148H278.659V113H283.649V148ZM293.63 148H288.64V113H293.63V148ZM316.12 148H303.61V145.505H301.115V143.01H298.62V128.005H301.115V125.51H303.61V123.015H316.12V125.51H318.615V128.005H321.11V143.01H318.615V145.505H316.12V148ZM306.105 143.01H313.608V140.515H316.12V130.5H313.608V128.005H306.105V130.5H303.61V140.515H306.105V143.01ZM331.091 148H326.101V143.01H331.091V148ZM341.071 148H336.081V143.01H341.071V148Z" fill="black"/>
<path d="M49.8477 371H44.8574V336H49.8477V371ZM72.3379 371H59.8281V368.505H57.333V366.01H54.8379V351.005H57.333V348.51H59.8281V346.015H72.3379V348.51H74.833V351.005H77.3281V359.755H59.8281V363.515H62.3232V366.01H69.8257V363.515H77.3281V366.01H74.833V368.505H72.3379V371ZM59.8281 356.012H72.3379V353.5H69.8257V351.005H62.3232V353.5H59.8281V356.012ZM93.5806 371H86.0781V368.505H83.583V349.757H79.8403V346.015H83.583V338.512H88.5903V346.015H93.5806V349.757H88.5903V366.01H93.5806V371ZM102.348 343.502H99.8525V341.007H97.3574V336H102.348V343.502ZM99.8525 346.015H97.3574V343.502H99.8525V346.015ZM122.309 371H109.799V368.505H107.304V366.01H104.809V363.515H112.294V366.01H121.044V361.002H112.294V358.507H107.304V356.012H104.809V351.005H107.304V348.51H109.799V346.015H122.309V348.51H124.804V351.005H127.299V353.5H119.796V351.005H111.046V356.012H119.796V358.507H124.804V361.002H127.299V366.01H124.804V368.505H122.309V371ZM159.77 371H147.26V368.505H144.765V366.01H142.27V351.005H144.765V348.51H147.26V346.015H159.77V348.51H162.265V351.005H164.76V359.755H147.26V363.515H149.755V366.01H157.257V363.515H164.76V366.01H162.265V368.505H159.77V371ZM147.26 356.012H159.77V353.5H157.257V351.005H149.755V353.5H147.26V356.012ZM184.738 371H174.74V368.505H172.245V366.01H169.75V361.002H172.245V358.507H177.235V356.012H187.25V353.5H184.738V351.005H177.235V353.5H169.75V351.005H172.245V348.51H174.74V346.015H187.25V348.51H189.745V351.005H192.24V371H187.25V368.505H184.738V371ZM175.988 366.01H184.738V363.515H187.25V358.507H184.738V361.002H175.988V366.01ZM208.493 371H200.99V368.505H198.495V349.757H194.752V346.015H198.495V338.512H203.502V346.015H208.493V349.757H203.502V366.01H208.493V371ZM227.24 380.998H222.25V346.015H227.24V348.51H229.735V346.015H239.75V348.51H242.245V351.005H244.74V366.01H242.245V368.505H239.75V371H229.735V368.505H227.24V380.998ZM229.735 366.01H237.238V363.515H239.75V353.5H237.238V351.005H229.735V353.5H227.24V363.515H229.735V366.01ZM254.721 342.255H249.73V337.265H254.721V342.255ZM254.721 371H249.73V346.015H254.721V371ZM278.458 371H259.711V363.515H262.206V361.002H264.701V358.507H267.196V356.012H269.708V353.5H272.204V351.005H259.711V346.015H278.458V353.5H275.946V356.012H273.451V358.507H270.956V361.002H268.461V363.515H265.949V366.01H278.458V371ZM300.949 371H282.201V363.515H284.696V361.002H287.191V358.507H289.687V356.012H292.199V353.5H294.694V351.005H282.201V346.015H300.949V353.5H298.437V356.012H295.941V358.507H293.446V361.002H290.951V363.515H288.439V366.01H300.949V371ZM319.679 371H309.682V368.505H307.187V366.01H304.691V361.002H307.187V358.507H312.177V356.012H322.191V353.5H319.679V351.005H312.177V353.5H304.691V351.005H307.187V348.51H309.682V346.015H322.191V348.51H324.687V351.005H327.182V371H322.191V368.505H319.679V371ZM310.929 366.01H319.679V363.515H322.191V358.507H319.679V361.002H310.929V366.01ZM354.645 371H347.143V368.505H344.647V349.757H340.905V346.015H344.647V338.512H349.655V346.015H354.645V349.757H349.655V366.01H354.645V371ZM375.922 371H363.412V368.505H360.917V366.01H358.422V351.005H360.917V348.51H363.412V346.015H375.922V348.51H378.417V351.005H380.912V366.01H378.417V368.505H375.922V371ZM365.907 366.01H373.41V363.515H375.922V353.5H373.41V351.005H365.907V353.5H363.412V363.515H365.907V366.01ZM403.402 380.998H390.893V378.485H388.397V375.99H385.902V373.495H393.388V375.99H400.89V373.495H403.402V368.505H400.89V371H390.893V368.505H388.397V366.01H385.902V351.005H388.397V348.51H390.893V346.015H400.89V348.51H403.402V346.015H408.393V375.99H405.897V378.485H403.402V380.998ZM393.388 366.01H400.89V363.515H403.402V353.5H400.89V351.005H393.388V353.5H390.893V363.515H393.388V366.01ZM430.883 371H418.373V368.505H415.878V366.01H413.383V351.005H415.878V348.51H418.373V346.015H430.883V348.51H433.378V351.005H435.873V359.755H418.373V363.515H420.868V366.01H428.371V363.515H435.873V366.01H433.378V368.505H430.883V371ZM418.373 356.012H430.883V353.5H428.371V351.005H420.868V353.5H418.373V356.012ZM452.125 371H444.623V368.505H442.128V349.757H438.385V346.015H442.128V338.512H447.135V346.015H452.125V349.757H447.135V366.01H452.125V371ZM460.893 371H455.902V336H460.893V348.51H463.388V346.015H472.138V348.51H474.65V351.005H477.145V371H472.138V353.5H469.643V351.005H463.388V353.5H460.893V371ZM499.652 371H487.143V368.505H484.647V366.01H482.152V351.005H484.647V348.51H487.143V346.015H499.652V348.51H502.147V351.005H504.643V359.755H487.143V363.515H489.638V366.01H497.14V363.515H504.643V366.01H502.147V368.505H499.652V371ZM487.143 356.012H499.652V353.5H497.14V351.005H489.638V353.5H487.143V356.012ZM514.623 371H509.633V346.015H514.623V348.51H517.118V346.015H523.373V351.005H517.118V353.5H514.623V371Z" fill="black"/>
<path d="M258 226L258 206L265 206L265 226L258 226Z" fill="#1B1B1B"/>
<path d="M256 266H311V273H256V266Z" fill="#1B1B1B"/>
<path d="M249 259H256V266H249V259Z" fill="#1B1B1B"/>
<path d="M311 259H318V266H311V259Z" fill="#1B1B1B"/>
<path d="M306 226L306 206L313 206L313 226L306 226Z" fill="#1B1B1B"/>
<path fill-rule="evenodd" clip-rule="evenodd" d="M285 211V245H267V252H285H292V245V211H285Z" fill="#1B1B1B"/>
<path d="M218 188H349V195H218V188Z" fill="#1B1B1B"/>
<path d="M211 285L211 195L218 195L218 285L211 285Z" fill="#1B1B1B"/>
<path d="M349 285L349 195L356 195L356 285L349 285Z" fill="#1B1B1B"/>
<path d="M218 285H349V292H218V285Z" fill="#1B1B1B"/>
<rect x="1.5" y="1.5" width="563" height="432" stroke="#1B1B1B" stroke-width="3"/>
</svg>
