<svg width="268" height="276" viewBox="0 0 268 276" fill="none" xmlns="http://www.w3.org/2000/svg">
<path d="M69.2773 88.7955L84.3588 78.7567L75.0754 86.335L73.0081 94.0651L71.5961 102.698L72.6522 111.193L74.8089 119.516L77.5096 121.213L80.0072 119.914L81.6502 112.494L87.403 106.589L92.8499 99.4017L95.1073 93.2533L95.2625 87.0275L96.9728 85.2721L101.973 89.08L103.006 93.607L98.8436 105.241L100.859 121.199L107.784 131.745L114.707 137.555L120.002 132.12L119.331 139.196L121.037 147.504L120.94 156.865L116.609 159.234L113.83 165.918L110.363 161.494L104.482 157.631L99.978 156.665L93.6388 156.785L97.3099 160.361L103.987 168.038L94.4456 173.52L90.1855 179.17L89.0194 186.435L90.2004 192.408L88.8483 197.625L99.4156 191.205L102.736 187.798L107.494 175.981L110.506 183.029L113.26 187.45L116.741 179.293L116.8 171.804L121.096 174.824L126.433 178.197L121.045 180.514L117.849 183.794L116.504 193.075L116.73 200.072L117.203 208.535L121.864 213.076L129.29 220.311L135.161 221.876L144.974 221.962L151.184 221.881L144.502 216.151L143.811 209.089L142.52 201.436L140.003 193.244L133.497 182.862L139.131 184.307L146.853 188.7L155.027 197.577L161.922 206.512L165.871 208.142L176.748 211.304L180.319 211.522L182.943 204.946L178.586 205.267L168.675 205.264L159.944 199.497L151.141 188.181L143.531 182.202L139.491 181.528L132.257 179.044L124.827 176.632L128.443 175.328L132.92 174.083L138.721 173.082L143.863 172.222L146.842 172.646L143.379 165.489L140.234 162.425L133.782 159.139L127.312 157.109L132.379 151.909L138.615 145.508L144.885 137.358L147.626 128.853L150.094 131.258L153.668 131.63L150.446 141.223L149.086 150.25L152.288 163.575L158.483 174.276L163.774 177.974L169.073 182.262L172.035 182.814L174.658 180.121L176.411 172.935L177.933 165.087L180.855 157L182.773 151.141L184.119 152.452L188.124 165.102L192.829 174.789L196.577 184.71L196.457 192.465L197.66 199.761L195.577 204.293L196.643 206.79L200.782 207.031L204.305 205.361L202.36 186.407L195.792 169.802L186.352 153.752L192.132 155.302L197.506 153.976L205.597 151.508L213.512 152.512L226.503 152.048L230.928 151.547C231.629 150.578 231.827 146.853 227.007 139.708C222.188 132.563 210.097 126.587 204.654 124.491L194.218 123.231L191.258 121.332L197.493 118.972L205.037 114.372L208.236 110.339L207.446 106.362L205.064 104.916L199.939 102.99L194.135 99.5225L188.131 97.9008L181.719 98.7981L176.183 100.889L171.292 103.365L169.048 106.865L166.296 105.35L163.154 102.289L155.795 101.325L150.504 101.651L151.874 100.245L154.501 96.7153L156.406 92.989L158.17 89.0952L160.016 85.9503L159.275 84.4163L154.756 84.7837L151.138 87.2471L147.326 90.6383L144.827 96.1203L143.369 94.6998L139.776 91.1994L129.286 87.0691L124.933 88.3083L122.46 90.8465L123.199 93.3176L127.583 98.4014L132.349 101.531L137.659 102.331L142.929 100.361L139.49 104.724L136.76 108.255L135.289 113.724L137.944 116.311L133.435 117.398L129.404 115.805L126.28 112.762L126.7 109.517L126.02 104.694L122.065 97.5777L117.757 93.3798L112.514 90.0213L117.014 86.5907L118.985 83.3786L113.294 81.9166L118.824 80.072L127.8 75.5196L136.604 74.7187L139.823 72.6352L141.069 70.7165L135.804 67.3047L126.197 62.7087L114.198 56.6044L106.242 56.2958L100.406 57.5558L94.1622 65.3541L90.2701 69.3491L89.2989 60.6159L85.5645 56.9775L83.6184 58.975L81.6704 67.4033L85.042 76.1052L78.9205 73.4583L63.3726 70.6828L52.4852 81.8577L49.6209 90.8409L58.5261 87.7431L69.2773 88.7955Z" fill="#5FE09D" stroke="#5FE09D" stroke-width="5"/>
<path d="M162.618 124.472C152.842 128.225 149.575 140.155 149.592 149.579C149.601 155.002 151.69 160.913 153.777 165.825C155.276 169.354 156.926 172.891 159.97 175.355C161.549 176.632 163.473 177.608 165.208 178.665C166.751 179.604 167.873 180.709 169.299 181.772C172.784 184.371 174.447 180.43 175.482 177.45C177.396 171.941 176.775 165.819 178.86 160.27C179.786 157.806 181.684 155.67 182.796 153.256C183.387 151.972 183.55 150.631 183.971 149.297C184.327 148.165 184.907 147.016 185.04 145.834C185.775 139.263 179.409 134.27 176.342 129.061C174.844 126.517 172.701 123.976 169.904 122.853C168.14 122.145 165.485 121.622 163.857 122.893C163.425 123.23 163.985 125.881 163.915 126.555C163.746 128.173 163.828 129.804 163.946 131.427C164.172 134.536 164.422 137.599 164.394 140.726C164.362 144.217 163.575 147.635 163.878 151.136C164.305 156.074 163.994 161.228 165.678 165.968C166.989 169.658 170.561 172.088 170.475 176.336" stroke="#06793C" stroke-width="2.06772" stroke-linecap="round"/>
<path d="M183.687 148.523C185.725 151.134 188.094 155.946 192.127 155.255C196.06 154.582 199.919 153.245 203.745 152.128C205.912 151.495 206.834 151.525 208.937 151.766C210.768 151.976 212.624 151.941 214.46 152.063C217.288 152.252 220.071 152.609 222.914 152.575C224.873 152.551 226.839 152.34 228.79 152.129C229.766 152.023 230.162 151.987 230.844 151.102C232.221 149.314 230.143 145.438 229.456 143.671C228.526 141.279 226.599 139.33 225.045 137.339C221.21 132.425 215.985 128.006 210.156 125.65C207.847 124.717 205.329 124.699 202.929 124.108C201.127 123.664 199.121 122.959 197.231 123.047C195.844 123.112 193.823 122.336 192.592 122.78" stroke="#06793C" stroke-width="2.06772" stroke-linecap="round"/>
<path d="M165.073 118.343C167.426 121.523 169.629 126.215 174.286 126.255C177.331 126.28 180.011 125.63 182.794 124.348C184.541 123.544 186.244 122.638 187.993 121.839C188.569 121.575 189.334 121.651 189.841 121.368C190.892 120.782 192.561 120.838 193.737 120.614C196.224 120.139 198.301 118.549 200.383 117.19C202.969 115.503 206.898 113.739 207.58 110.439C207.912 108.839 208.135 106.874 206.885 105.654C205.702 104.5 202.801 104.351 201.269 103.736C198.598 102.665 196.478 100.678 193.821 99.5414C188.536 97.2804 182.428 98.1668 177.09 100.036C174.862 100.816 173.18 101.971 171.35 103.4C170.764 103.857 168.269 105.23 168.575 106.178C168.87 107.091 170.359 107.871 171.077 108.491C171.99 109.281 173.047 109.975 174.047 110.655C174.493 110.959 177.052 112.482 176.864 113.28C176.689 114.027 174.306 115.412 173.648 115.844C172.076 116.877 170.133 116.864 168.415 117.372C164.711 118.47 161.538 118.207 157.752 117.361C154.542 116.644 151.487 116.389 150.1 112.857C148.852 109.681 148.829 106.227 148.353 103.043C148.284 102.587 147.624 101.758 147.141 101.702C146.395 101.617 148.523 102.356 149.272 102.415C151.062 102.556 152.719 101.608 154.453 101.36C156.84 101.018 158.848 101.308 161.185 101.775C162.146 101.968 162.897 102.417 163.781 102.756C164.694 103.105 165.055 104.163 165.873 104.686C167.073 105.455 168.356 105.979 169.54 106.757" stroke="#06793C" stroke-width="2.06772" stroke-linecap="round"/>
<path d="M147.39 102.012C149.581 104.819 152.456 106.401 155.973 107.121C159.486 107.84 162.752 109.305 166.125 110.394" stroke="#06793C" stroke-width="2.06772" stroke-linecap="round"/>
<path d="M174.534 110.645C177.563 108.402 182.16 105.723 186.173 106.582C187.921 106.956 189.612 107.521 191.305 108.067C193.418 108.749 195.509 109.544 197.727 109.822C199.538 110.049 201.388 109.509 203.131 109.709" stroke="#06793C" stroke-width="2.06772" stroke-linecap="round"/>
<path d="M177.902 129.708C181.726 130.258 185.475 131.025 189.273 131.705C192.054 132.203 194.843 132.333 197.615 132.988C199.551 133.446 200.64 135.103 202.243 136.126C205.751 138.365 210.499 137.957 213.718 140.742C216.01 142.726 217.815 144.959 219.666 147.332" stroke="#06793C" stroke-width="2.06772" stroke-linecap="round"/>
<path d="M152.536 115.804C150.82 117.143 148.688 116.668 146.769 116.201C143.664 115.445 140.467 115.783 137.326 116.299C132.358 117.115 127.07 120.467 124.528 124.812C122.982 127.454 121.088 130.201 120.497 133.25C120.094 135.326 120.045 137.356 120.026 139.45C119.991 143.223 121.574 146.663 121.474 150.452C121.413 152.737 121.072 154.912 120.894 157.168C120.653 160.237 128.194 155.851 129.009 155.227C130.908 153.773 132.248 152.195 133.78 150.387C135.52 148.334 137.727 146.761 139.443 144.671C142.704 140.698 145.564 136.516 147.377 131.71C148.565 128.561 149.945 124.913 150.185 121.563C150.343 119.353 149.432 117.579 151.403 116.04C151.767 115.756 152.859 114.904 152.495 115.188C151.277 116.138 148.968 116.263 147.532 116.757C144.878 117.671 142.295 118.934 139.647 119.906C137.403 120.729 135.283 121.846 133.382 123.302C130.619 125.417 128.064 128.136 127.479 131.689C126.863 135.427 127.211 139.4 126.165 143.046C125.473 145.461 124.732 148.636 122.972 150.542" stroke="#06793C" stroke-width="2.06772" stroke-linecap="round"/>
<path d="M146.027 99.8298C142.744 102.391 137.902 104.475 136.844 108.94C136.59 110.013 136.346 111.082 136.094 112.154C135.959 112.728 135.3 114.079 135.576 114.61C135.751 114.946 137.498 114.554 137.744 114.503C139.135 114.212 140.345 113.448 141.516 112.674C143.789 111.174 146.514 109.057 147.159 106.254C147.458 104.958 147.916 101.453 146.99 100.266C146.362 99.4617 142.335 104.557 141.939 105.288C141.271 106.523 140.569 108.43 140.664 109.847" stroke="#06793C" stroke-width="2.06772" stroke-linecap="round"/>
<path d="M145.762 100.364C145.075 101.347 145.036 99.1582 145.035 98.9158C145.027 96.6665 145.332 94.1637 146.495 92.1782C148.491 88.7695 151.61 86.0363 155.518 85.2797C156.396 85.1096 159.488 83.7448 159.806 85.1911C159.992 86.0398 158.744 87.0479 158.33 87.7106C157.386 89.2235 156.512 90.8347 155.824 92.4746C154.98 94.4858 151.173 105.608 147.612 101.045" stroke="#06793C" stroke-width="2.06772" stroke-linecap="round"/>
<path d="M143.987 98.5024C141.94 100.1 139.826 102.588 137.061 102.27C133.771 101.893 130.735 100.749 128.121 98.8617C125.921 97.2732 123.514 93.9308 122.359 91.4788C121.909 90.5258 125.274 88.4216 125.947 88.1019C128.453 86.9118 130.86 87.9297 133.323 88.663C136.629 89.6472 141.113 91.5508 143.338 94.2931C143.994 95.102 144.938 96.0069 145.353 96.9685C145.787 97.9751 144.991 98.3666 144.29 98.914C141.739 100.905 139.537 98.8946 137.189 97.58C134.923 96.3115 133.172 95.6118 130.629 95.32" stroke="#06793C" stroke-width="2.06772" stroke-linecap="round"/>
<path d="M106.58 91.0981C104.831 92.4634 102.605 93.7354 101.655 95.7882C100.208 98.9161 99.4658 103.073 99.4074 106.489C99.3429 110.258 99.1717 113.863 100.061 117.553C101.055 121.674 103.466 125.603 105.895 129.038C107.404 131.172 109.06 133.59 111.252 135.081C111.729 135.406 114.862 137.752 115.198 137.509C117.902 135.558 119.181 133.563 120.303 130.447C121.687 126.603 123.821 122.575 124.54 118.589C125.056 115.735 126.398 113.175 126.611 110.241C126.864 106.749 125.45 103.466 123.903 100.439C122.869 98.4161 121.001 96.0155 119.219 94.6257C117.092 92.9663 112.942 90.0884 110.047 90.6607C103.757 91.904 104.616 100.093 105.6 104.806C106.648 109.826 108.095 114.554 109.964 119.31C110.928 121.764 112.04 125.119 111.481 127.774" stroke="#06793C" stroke-width="2.06772" stroke-linecap="round"/>
<path d="M102.553 92.2941C100.308 89.4182 103.337 87.2985 105.73 85.7638C108.099 84.2444 111.39 84.8714 114.018 83.975C115.209 83.5688 117.648 82.4339 118.892 82.9251C120.441 83.5363 114.989 88.4194 114.05 89.1524C113.1 89.894 110.975 91.2439 109.691 91.0966C109.37 91.0598 106.238 91.3442 106.737 90.666" stroke="#06793C" stroke-width="2.06772" stroke-linecap="round"/>
<path d="M94.4646 84.0219C94.1697 84.3964 95.8744 87.1142 95.8485 87.9998C95.7895 90.0184 95.006 92.0779 94.6508 94.0647C94.2407 96.3586 93.8334 98.3244 92.4824 100.293C90.7737 102.783 89.0028 105.415 86.6164 107.32C84.1781 109.266 81.8108 111.597 81.1678 114.74C80.7234 116.913 80.5583 119.267 78.7547 120.89C76.7182 122.723 74.3971 118.283 73.9671 116.796C73.1902 114.112 73.067 111.338 72.6308 108.587C72.3092 106.56 71.8776 104.523 71.6707 102.478C71.3316 99.1271 73.0767 95.7631 73.5129 92.4544C73.8065 90.228 74.4831 88.4497 76.0549 86.7984C76.8381 85.9755 78.2305 85.1788 78.7858 84.1989C79.8503 82.3203 84.3446 77.6541 86.6668 78.2998C88.5221 78.8158 88.2274 81.0744 87.6187 82.381C85.7101 86.4774 83.2984 90.4905 81.7833 94.7476C80.1009 99.4747 80.1294 104.202 79.0444 109.018" stroke="#06793C" stroke-width="2.06772" stroke-linecap="round"/>
<path d="M84.5277 77.1993C80.6217 80.2478 76.7158 83.2964 72.8099 86.3449C70.6345 88.0428 68.9663 88.374 66.283 88.6311C64.0242 88.8475 61.8333 88.0721 59.5879 88.1685C57.5471 88.2561 55.6223 88.7489 53.751 89.5561C52.5204 90.087 51.0038 91.6086 49.8507 90.1882C48.4323 88.441 50.4324 84.6687 51.3942 82.9714C54.7049 77.1289 60.5427 71.8411 67.2234 70.5088C72.6214 69.4323 75.633 72.3953 80.2782 74.2878C81.0303 74.5943 85.4729 76.3183 83.9133 77.6787C82.004 79.3443 77.8787 77.6458 75.6472 77.8303C71.3652 78.1844 68.2379 80.6467 64.393 82.2221" stroke="#06793C" stroke-width="2.06772" stroke-linecap="round"/>
<path d="M87.772 76.2794C85.8039 77.1623 84.461 75.073 83.5273 73.7963C81.1698 70.5727 81.6081 65.0373 82.4879 61.3233C82.6281 60.7312 84.4116 56.7203 85.2931 57.1538C87.7874 58.3805 89.6001 62.2161 89.7251 64.8728C89.8884 68.3446 90.8026 73.2034 87.1889 75.4385C86.7206 75.7282 85.8975 74.334 85.6814 74.023C84.8252 72.791 85.2782 71.5084 85.4576 70.1477C85.6889 68.3936 86.3951 66.0068 87.6435 64.7155" stroke="#06793C" stroke-width="2.06772" stroke-linecap="round"/>
<path d="M88.6419 76.5735C86.7623 78.0405 87.7658 80.913 88.5738 82.5847C89.7205 84.957 92.0022 86.3279 94.7063 85.8445C96.0001 85.6133 97.342 85.3056 98.6094 84.9582C99.5323 84.7052 100.868 84.5283 101.691 84.1914C102.595 83.821 99.0725 78.2193 98.6468 77.4769C97.4313 75.3574 96.7726 74.4569 94.2594 74.295C92.0855 74.155 90.1925 75.6112 88.5942 76.9347C87.6407 77.7243 90.0398 80.123 91.1238 79.9645" stroke="#06793C" stroke-width="2.06772" stroke-linecap="round"/>
<path d="M92.0746 74.2254C91.0022 74.8689 91.1879 69.8887 91.4122 69.3424C93.2133 64.9556 96.7236 61.2007 100.429 58.3083C102.409 56.7631 103.549 56.38 106.018 56.2506C107.727 56.1609 109.275 55.7485 110.979 56.0865C113.53 56.5922 116.063 57.1386 118.33 58.4676C121.289 60.2026 124.387 61.6939 127.403 63.3379C129.228 64.3327 130.994 65.2489 133.005 65.8239C134.275 66.1873 135.507 66.7448 136.553 67.5549C137.663 68.4146 138.383 69.448 139.731 70.0786C140.941 70.645 141.057 71.8992 140.221 72.8643C138.549 74.794 135.736 74.8091 133.418 75.078C131.286 75.3253 128.758 75.5322 126.819 76.5921C124.563 77.8254 121.963 78.4966 119.612 79.6252C117.224 80.7718 114.889 81.5735 112.348 82.2342C111.212 82.5298 109.802 82.5176 108.614 82.5391C107.217 82.5642 105.867 82.618 104.484 82.432C103.652 82.3199 102.899 81.1724 102.273 81.17C101.726 81.1679 101.147 80.7829 100.818 80.3615" stroke="#06793C" stroke-width="2.06772" stroke-linecap="round"/>
<path d="M90.734 73.3171C94.0773 70.7077 97.205 68.0828 101.357 66.8975C104.198 66.0867 107.786 65.3691 110.732 65.3047C115.909 65.1916 121.087 66.0021 125.312 68.9735C127.217 70.3137 128.659 71.3057 131.027 71.605C133.012 71.8558 136.052 71.8506 137.366 73.5339" stroke="#06793C" stroke-width="2.06772" stroke-linecap="round"/>
<path d="M97.2202 85.4365C98.076 86.533 99.3345 87.3011 100.144 88.3385C100.797 89.1747 101.634 89.4027 102.282 90.2336" stroke="#06793C" stroke-width="2.06772" stroke-linecap="round"/>
<path d="M126.491 112.819C127.546 114.171 128.529 116.222 130.236 116.773C131.035 117.03 131.777 117.21 132.482 117.539" stroke="#06793C" stroke-width="2.06772" stroke-linecap="round"/>
<path d="M149.828 130.89C149.568 130.556 148.799 129.993 149.379 130.736C149.788 131.26 150.738 131.897 151.44 131.899C152.249 131.902 152.99 132.113 153.666 132.43" stroke="#06793C" stroke-width="2.06772" stroke-linecap="round"/>
<path d="M164.084 122.987C162.265 120.657 160.636 117.877 158.174 116.26" stroke="#06793C" stroke-width="2.06772" stroke-linecap="round"/>
<path d="M164.904 134.463C167.955 132.552 172.502 138.811 173.184 141.265C174.197 144.913 174.281 148.781 174.995 152.445" stroke="#06793C" stroke-width="2.06772" stroke-linecap="round"/>
<path d="M183.027 150.922C184.936 153.369 185.867 155.845 186.938 158.74C188.139 161.991 188.609 165.691 190.148 168.781C191.858 172.215 193.434 175.721 195.102 179.184C196.145 181.351 196.846 183.921 196.761 186.365C196.666 189.117 196.156 192.042 196.656 194.779C197.051 196.939 197.573 199.364 196.88 201.523C196.442 202.89 195.545 203.947 195.744 205.403C195.958 206.959 197.493 207.389 198.936 207.246C200.213 207.119 203.502 206.69 203.733 204.938C204.039 202.619 203.153 199.852 202.975 197.508C202.578 192.283 202.912 187.309 200.511 182.433C198.345 178.035 197.449 173.117 194.931 168.95C193.785 167.055 192.664 164.954 191.315 163.225C190.171 161.76 189.89 159.727 189.044 158.102C187.79 155.691 186.637 153.302 184.953 151.143" stroke="#06793C" stroke-width="2.06772" stroke-linecap="round"/>
<path d="M162.969 142.689C163.02 142.867 161.891 142.585 161.767 142.571C160.951 142.477 160.173 142.62 159.397 142.887C158.563 143.174 157.352 144.126 157.12 144.988C156.298 148.037 157.215 151.831 155.819 154.712" stroke="#06793C" stroke-width="2.06772" stroke-linecap="round"/>
<path d="M125.824 176.173C127.187 178.34 125.569 182.217 125.269 184.562C124.833 187.967 124.765 191.498 124.647 194.93C124.519 198.623 125.596 202.895 127.293 206.131C128.027 207.531 128.832 208.736 129.806 209.984C130.529 210.91 131.288 212.334 132.252 213.024C133.56 213.96 134.861 214.946 136.123 215.943C137.468 217.005 139.275 217.092 140.696 218.026" stroke="#06793C" stroke-width="2.06772" stroke-linecap="round"/>
<path d="M125.501 178.708C123.458 180.068 121.152 180.384 119.349 182.25C117.215 184.457 116.587 188.973 116.163 191.865C115.563 195.958 116.922 199.807 116.924 203.817C116.925 206.177 117.551 207.786 119.038 209.691C122.646 214.315 127.195 220.731 133.631 221.54C137.309 222.002 141.002 221.561 144.7 221.649C145.829 221.676 147.664 221.237 148.732 221.561C149.211 221.707 151.509 221.79 151.445 221.73C149.566 219.97 147.079 219.443 145.406 217.3C143.581 214.962 144.273 211.387 143.872 208.579C143.263 204.319 142.781 199.941 141.058 195.943C139.436 192.18 137.373 188.009 134.846 184.771C133.018 182.429 129.171 179.048 125.972 179.312" stroke="#06793C" stroke-width="2.06772" stroke-linecap="round"/>
<path d="M111.127 167.886C113.954 166.095 116.563 169.193 116.827 171.717C117.201 175.284 117.225 177.974 116.143 181.395C115.485 183.477 114.458 185.457 113.478 187.363C113.258 187.792 111.461 185.062 111.318 184.783C110.528 183.238 109.991 181.423 109.384 179.795C108.354 177.035 107.356 173.09 109.32 170.449C109.608 170.061 111.028 167.532 111.616 167.667C113.183 168.026 112.514 170.515 112.19 171.593C111.371 174.316 110.426 176.825 111.413 179.651" stroke="#06793C" stroke-width="2.06772" stroke-linecap="round"/>
<path d="M110.521 168.366C111.171 167.858 108.938 168.874 108.12 168.925C106.584 169.022 105.183 169.03 103.967 167.991C101.645 166.005 99.606 164.208 97.7614 161.728C96.8134 160.454 96.2374 158.931 95.2374 157.65C94.9907 157.334 93.2338 156.236 93.3074 156.42C94.2294 158.729 99.2837 156.347 101.247 156.812C104.259 157.525 108.003 158.807 109.969 161.326C110.967 162.604 113.072 164.787 111.969 166.515C110.793 168.358 109.562 165.979 108.41 165.027C107.533 164.303 106.893 163.525 105.961 162.852C104.983 162.145 103.757 161.894 102.597 161.59" stroke="#06793C" stroke-width="2.06772" stroke-linecap="round"/>
<path d="M103.137 168.62C101.12 170.194 98.6793 171.318 96.398 172.44C93.6882 173.773 91.7483 176.301 90.3936 178.89C88.4272 182.649 88.917 187.236 90.0755 191.055C90.7608 193.314 89.6998 195.342 88.9736 197.477C88.9156 197.647 89.3073 197.336 89.4792 197.28C90.1963 197.046 90.9257 196.74 91.5804 196.36C92.9812 195.548 94.2855 194.542 95.6849 193.715C97.6816 192.534 99.4751 190.919 101.304 189.491C103.321 187.917 104.033 185.645 105.224 183.443C106.612 180.88 107.077 178.239 107.844 175.495C108.324 173.778 108.088 172.093 108.511 170.438C108.684 169.76 108.977 168.877 108.991 168.191C109.008 167.347 104.512 170.463 104.392 170.556C102.278 172.207 99.8517 174.708 98.4423 176.982C97.0988 179.15 96.7438 181.467 95.8963 183.83C94.8083 186.863 93.8708 190.411 91.8412 192.989" stroke="#06793C" stroke-width="2.06772" stroke-linecap="round"/>
<path d="M113.707 166.522C114.114 166.277 117.2 171.418 117.649 171.995C119.125 173.886 120.765 175.368 123.254 175.775C126.976 176.382 130.141 174.018 133.796 173.918C136.05 173.857 138.306 173.337 140.503 172.824C141.696 172.545 143.035 172.269 144.262 172.41C144.942 172.488 145.716 173.151 146.355 173.098C147.725 172.985 145.502 168.929 145.089 168.075C144.317 166.477 143.477 164.915 142.35 163.534C141.542 162.543 140.298 162.175 139.264 161.479C136.917 159.901 134.295 159.216 131.7 158.238C129.25 157.316 126.026 156.029 123.301 156.766C121.188 157.336 119.078 157.469 117.288 158.866C115.572 160.206 115.259 161.975 114.51 163.915C114.246 164.598 113.202 167.219 114.557 166.578C115.615 166.078 116.388 165.293 117.361 164.659C118.499 163.918 119.873 163.92 121.172 163.936C123.783 163.967 126.428 164.341 129.024 164.287C130.088 164.264 131.574 164.875 132.524 165.299C134.294 166.09 136.174 166.761 138.037 167.296" stroke="#06793C" stroke-width="2.06772" stroke-linecap="round"/>
<path d="M124.512 163.568C125.554 162.755 127.618 160.676 129.031 161.337" stroke="#06793C" stroke-width="2.06772" stroke-linecap="round"/>
<path d="M125.958 177.122C129.303 181.408 134.016 182.61 138.996 184.28C142.571 185.479 146.308 187.807 148.782 190.673C150.915 193.143 153.352 195.373 155.358 197.943C156.871 199.881 158.481 201.627 160.086 203.471C161.286 204.849 162.314 206.635 164.109 207.346C166.998 208.489 170.25 209.034 173.107 210.139C174.924 210.842 177.173 211.277 179.105 211.396C181.201 211.526 182.2 207.211 182.786 206.129C184.054 203.786 179.098 204.742 177.928 205.084C175.687 205.738 173.396 205.457 171.102 205.479C169.191 205.498 167.558 204.509 166.106 203.321C164.313 201.854 161.987 201.383 160.434 199.392C157.17 195.211 153.624 190.818 149.661 187.306C147.935 185.775 146.049 183.481 143.929 182.489C141.66 181.427 139.081 181.611 136.862 180.703C134.587 179.772 132.168 179.309 129.822 178.392C127.73 177.574 125.237 177.664 123.405 176.098" stroke="#06793C" stroke-width="2.06772" stroke-linecap="round"/>
<path d="M125.741 192.164C130.941 193.17 134.269 198.109 135.25 203.148" stroke="#06793C" stroke-width="2.06772" stroke-linecap="round"/>
<path d="M101.201 173.889C103.615 177.328 101.43 181.308 99.3452 184.301C98.948 184.872 99.2526 184.842 99.5671 184.23C100.298 182.808 101.099 181.471 101.693 179.981C102.443 178.098 101.778 176.407 101.648 174.46" stroke="#06793C" stroke-width="2.06772" stroke-linecap="round"/>
<path d="M200.07 134.293C203.632 138.858 206.861 144.61 212.288 147.15" stroke="#06793C" stroke-width="2.06772" stroke-linecap="round"/>
<path d="M195.219 132.856C196.969 130.477 199.629 129.085 202.51 129.006" stroke="#06793C" stroke-width="2.06772" stroke-linecap="round"/>
<path d="M180.158 109.944C181.534 111.707 182.887 114.245 184.975 115.183C187.38 116.263 189.815 116.272 192.295 115.502" stroke="#06793C" stroke-width="2.06772" stroke-linecap="round"/>
<path d="M105.155 101.007C107.987 98.7969 111.467 99.623 114.333 101.308C118.536 103.778 118.738 109.938 119.236 114.251" stroke="#06793C" stroke-width="2.06772" stroke-linecap="round"/>
</svg>
