<svg fill="none" xmlns="http://www.w3.org/2000/svg" viewBox="3.83 67.12 175.89 58.53"> <path d="M110.556 84.8097C111.108 85.6072 109.661 88.0561 108.869 89.1808L106.044 91.1762C108.083 91.5936 112.624 92.7204 114.478 93.888C116.796 95.3474 122.384 104.38 122.468 109.506C122.552 114.632 113.78 119.093 111.249 119.706C108.718 120.32 106.187 119.246 101.355 113.801C97.4901 109.445 96.9839 102.782 97.214 99.996L99.5915 95.2409L91.8421 91.1762C90.8208 90.511 89.085 88.184 90.3121 84.197C91.846 79.2133 99.0533 78.9043 102.351 78.9043C105.649 78.9043 109.867 83.8127 110.556 84.8097Z" fill="#5FE09D"/> <path d="M84.1934 93.5743C85.3496 95.1523 83.7116 98.0001 82.7481 99.2267L74.5957 101.068C75.4286 101.287 77.9623 102.382 81.4331 105.012C85.7716 108.298 86.9549 113.689 86.8234 119.342C86.7182 123.865 80.2937 124.645 77.0946 124.469C73.194 122.936 64.7882 118.632 62.3689 113.689C59.3447 107.51 62.3689 103.171 65.393 101.725C67.8123 100.568 71.5718 101.243 73.1492 101.725C68.0657 98.219 58.7929 90.1554 62.3689 85.9483C66.8389 80.6895 69.7313 83.3192 74.5957 84.3709C79.4601 85.4227 82.7481 91.6018 84.1934 93.5743Z" fill="#5FE09D"/> <path d="M52.7754 90.8127C52.1274 92.2703 48.9976 91.9604 47.5136 91.6232H43.3059C44.0458 92.5639 45.9231 94.7054 47.5136 95.7463C49.5018 97.0474 50.8066 101.334 50.8066 101.946C50.8066 102.558 51.561 109.217 50.8066 111.054C50.0522 112.891 47.5136 114.115 42.3109 114.498C37.1082 114.881 33.0473 112.202 30.8277 109.217C28.6081 106.232 26.9259 102.329 28.6098 99.0374C29.9568 96.4045 35.6718 93.365 38.3609 92.1744L39.9209 90.8127L37.0863 88.6868C33.4424 81.9052 37.3903 79.982 41.4391 79.2735C45.4878 78.565 49.2329 81.5005 51.561 83.9297C53.889 86.359 53.5853 88.9907 52.7754 90.8127Z" fill="#5FE09D"/> <path d="M21.6422 71.4024C25.1476 73.3496 28.5221 78.383 29.7711 80.6563C30.239 80.6563 30.894 81.521 29.7711 84.9799C28.6483 88.4388 25.4598 88.8453 24.006 88.6162C21.6857 89.3434 16.0477 90.3616 12.0581 88.6162C7.0712 86.4344 4.78418 78.954 4.78418 76.1489C4.78418 73.3437 6.75678 69.6071 9.00158 68.5408C11.2464 67.4745 17.2605 68.9683 21.6422 71.4024Z" fill="#5FE09D"/> <path d="M137.435 91.3087C140.939 88.2306 147.384 88.5223 150.169 89.0529C146.544 88.2129 138.735 86.2411 136.506 85.0736C133.72 83.6143 131.066 80.2984 131.066 78.5737C131.066 76.8491 137.435 75.5225 143.007 75.7878C148.579 76.0531 154.151 80.1658 157.202 82.8191C159.643 84.9418 160.873 87.8594 161.182 89.0529L160.121 93.6977C158.573 93.3881 155.982 93.4854 157.998 96.351C160.519 99.933 162.111 105.505 161.182 109.75C160.254 113.996 153.09 117.843 148.314 118.108C143.538 118.374 135.842 114.261 131.066 105.505C126.29 96.749 133.056 95.1564 137.435 91.3087Z" fill="#5FE09D"/> <path d="M178.691 104.936C173.463 99.4484 167.652 97.3882 160.934 94.4391C152.475 90.7261 140.467 86.3401 131.667 87.2914C124.303 88.0874 116.241 87.0028 109.459 89.6644C103.891 91.8496 98.8244 94.8878 93.403 97.2888C87.6989 99.815 79.4256 101.964 72.6917 100.831C66.9233 99.8597 61.5052 96.4838 55.8902 95.4584C49.7324 94.334 43.547 91.0784 37.2775 89.8939C34.4525 89.3601 32.1187 88.1186 29.2467 88.3501C26.8966 88.5395 24.7511 89.0815 22.4445 89.3023" stroke="#06793C" stroke-width="2.06772" stroke-linecap="round"/> <path d="M49.7129 98.6646C47.5129 96.3552 45.6679 93.8893 42.6234 92.9075C40.4895 92.2194 38.6631 92.2621 36.6943 92.7775C34.0611 93.4669 32.4907 95.0327 30.6147 96.8199C28.9867 98.3708 27.1426 100.387 27.7743 103.113C28.4307 105.946 30.1392 108.445 32.2019 110.611C35.193 113.75 39.2384 115.254 43.0999 114.807C45.2745 114.556 48.2525 113.988 49.8292 112.549C51.1788 111.317 51.5007 109.485 51.4162 107.538C51.369 106.45 51.2717 105.374 51.2298 104.288C51.1976 103.457 50.8882 102.548 50.9678 101.745C51.1464 99.9456 49.1558 97.5458 48.0725 96.0924" stroke="#06793C" stroke-width="2.06772" stroke-linecap="round"/> <path d="M21.3926 89.0653C19.173 89.9398 16.3454 90.5868 13.8144 89.393C11.8412 88.4624 10.1623 86.9136 8.63735 85.3129C5.6967 82.226 4.3429 78.5655 5.04903 74.8067C5.58962 71.9292 7.42134 68.2415 10.7715 68.1536C15.1107 68.0397 21.4515 70.53 24.9745 73.8666C27.4292 76.1914 29.8825 79.2952 29.9553 82.6222C29.9948 84.4324 29.3897 86.5361 28.1728 87.6953C27.0388 88.7756 26.1408 88.7915 24.5995 88.8729C22.7849 88.9688 20.7063 88.8426 18.8305 88.6434" stroke="#06793C" stroke-width="2.06772" stroke-linecap="round"/> <path d="M72.2928 101.961C68.5157 99.7697 65.2799 100.851 62.9143 103.58C59.5968 107.407 62.15 113.687 65.7631 117.388C70.4168 122.155 77.1505 126.191 82.9704 124.003C84.284 123.509 85.8042 122.853 86.506 121.589C87.21 120.321 87.0293 118.201 86.9882 116.694C86.8581 111.922 83.7387 105.762 78.8208 103.712C76.5305 102.757 74.1968 102.306 71.8631 101.699C70.9935 101.473 70.1036 101.37 69.2295 101.186C67.6296 100.849 66.7741 101.005 65.242 101.362" stroke="#06793C" stroke-width="2.06772" stroke-linecap="round"/> <path d="M115.054 94.5638C109.507 89.1928 103.376 92.4702 99.5303 96.1341C92.7978 102.548 100.247 117.713 109.613 119.945C114.613 121.136 122.328 114.281 122.303 109.148C122.278 104.142 118.763 98.4562 115.055 94.5643" stroke="#06793C" stroke-width="2.06772" stroke-linecap="round"/> <path d="M46.845 91.0764C49.8764 92.8112 53.8783 92.7997 53.5769 88.7987C53.3857 86.2596 51.502 84.12 49.7547 82.2859C45.7967 78.1312 39.5598 78.7426 36.3484 81.8019C33.6811 84.3429 36.5817 89.5705 40.568 90.4099C42.4891 90.8145 47.0835 90.7346 48.4684 92.1884" stroke="#06793C" stroke-width="2.06772" stroke-linecap="round"/> <path d="M73.9094 100.529C77.5907 102.245 84.9431 99.3956 84.1169 94.7924C83.5818 91.8112 81.4847 89.5288 79.3727 87.3118C76.1879 83.9687 73.1097 83.4134 69.0037 82.6789C64.1472 81.8101 60.9535 86.2717 62.767 90.8725C63.6224 93.0424 64.8101 95.1229 66.4545 96.849C69.9064 100.473 73.0519 100.813 77.1563 102.753" stroke="#06793C" stroke-width="2.06772" stroke-linecap="round"/> <path d="M98.9174 95.9844C96.4523 93.3967 91.6884 92.1076 90.119 88.8214C88.3078 85.0292 91.5549 81.8705 94.1178 80.2857C98.1747 77.777 104.203 78.0345 108.277 82.1198C109.754 83.6005 110.465 85.0095 110.183 86.9503C110.07 87.7349 109.534 88.9622 109.782 89.6218" stroke="#06793C" stroke-width="2.06772" stroke-linecap="round"/> <path d="M155.27 94.1308C152.712 91.4456 150.33 88.7703 146.675 88.103C143.244 87.4763 138.474 90.2262 136.05 91.9855C133.844 93.5862 129.122 97.1007 129.376 100.411C129.806 106.012 135.085 111.879 139.693 115.321C148.842 122.154 160.232 116.2 161.907 107.119C162.819 102.175 157.28 94.4633 153.834 90.8466" stroke="#06793C" stroke-width="2.06772" stroke-linecap="round"/> <path d="M143.016 87.2043C139.024 86.0637 135.243 85.2144 132.326 81.5107C128.389 76.5119 139.354 75.5395 141.539 75.6513C148.036 75.9839 154.355 78.9709 159.176 84.0312C162.35 87.363 162.305 92.2416 158.37 93.8454" stroke="#06793C" stroke-width="2.06772" stroke-linecap="round"/> <path d="M23.4938 79.1246C22.1863 77.7522 20.9914 76.5262 19.4636 75.4334C19.0804 75.1592 18.6779 74.8957 18.2752 74.6577C17.5063 74.2031 18.3126 75.0453 18.5378 75.2479C19.3965 76.0204 20.4556 76.526 21.3583 77.2424C21.8541 77.636 22.2762 78.1162 22.7127 78.5744C23.1255 79.0077 23.0858 79.2469 22.5827 79.4715C22.0903 79.6912 21.526 79.7787 21.0177 79.9706C20.4219 80.1956 19.9021 80.5708 19.4007 80.9395C19.3125 81.0044 18.6132 81.5266 19.0531 81.4808C19.7299 81.4103 20.4099 81.1404 21.0333 80.9307C21.9201 80.6324 22.636 80.198 23.3805 79.6948C23.5864 79.5556 23.621 82.419 23.6135 82.7254C23.6028 83.1648 23.676 83.6652 23.5969 84.086C23.5725 84.2158 23.5298 84.6432 23.7208 84.321C23.9916 83.8642 24.0173 83.1397 24.1152 82.6005C24.2541 81.8353 24.1474 81.1741 23.7574 80.4199C23.3101 79.5548 23.5548 79.7904 24.2359 80.1658C24.6769 80.4088 25.1239 80.6429 25.5932 80.7891C25.8381 80.8655 26.1177 80.845 26.3514 80.9409C26.4183 80.9684 26.6429 81.217 26.4587 81.0236C26.0651 80.6105 25.5718 80.2933 25.0767 80.0373C24.8298 79.9096 23.2172 79.5051 23.2495 79.1304C23.2977 78.5718 23.4686 77.9093 23.3793 77.3343C23.3179 76.9392 23.299 77.1103 23.4005 77.4989C23.6071 78.2897 23.6328 79.0715 23.6778 79.857" stroke="#06793C" stroke-width="2.06772" stroke-linecap="round"/> <path d="M40.9818 98.1569C39.975 97.1001 39.329 96.5453 38.031 96.9169C37.6992 97.0119 37.3288 97.0792 37.0275 97.2341C36.7784 97.3621 36.9728 97.263 37.2572 97.3179C38.4659 97.5511 39.7388 97.9192 40.8842 98.5188C41.7003 98.9461 41.7714 99.0688 41.1359 99.6743C40.414 100.362 38.2483 102.425 38.9702 101.737C39.6348 101.104 40.2993 100.471 40.9638 99.8382C41.4745 99.3516 41.7294 98.8662 42.1784 99.8998C42.5326 100.715 42.6581 101.584 42.9145 102.418C43.2405 103.478 43.7108 104.508 44.1042 105.554C44.1767 105.747 44.2805 106.349 44.151 105.82C43.9428 104.969 43.8096 104.124 43.5476 103.277C43.2315 102.255 42.9003 101.286 42.43 100.299C42.1799 99.774 41.8658 99.2279 41.7059 98.6774C41.6773 98.5788 41.8332 98.6942 41.8534 98.7049C42.3714 98.9792 42.887 99.261 43.3972 99.554C44.5337 100.207 45.707 100.796 46.8149 101.509C47.4601 101.924 48.0458 102.423 48.6171 102.944C49.3061 103.572 47.3462 101.576 46.6826 100.921C45.4647 99.7174 44.0571 98.8075 42.4834 99.0966C42.4225 99.1077 41.968 99.2703 42.0406 99.1485C42.3529 98.6247 42.8603 98.1827 43.2948 97.7689C43.4978 97.5754 43.7186 97.3919 43.9082 97.1845C43.9275 97.1634 43.965 96.9351 43.9407 96.9266C43.6282 96.8165 42.545 98.1891 42.36 98.3904C41.8858 98.9066 41.5025 99.4801 41.1643 100.101" stroke="#06793C" stroke-width="2.06772" stroke-linecap="round"/> <path d="M48.0462 85.0767C47.3453 84.3411 46.6503 83.5968 45.9096 82.9014C45.3064 82.335 45.6137 82.7694 45.9215 83.1086C46.7759 84.0501 47.7115 84.9111 48.6089 85.8097C48.6548 85.8557 49.4251 86.5645 48.9748 86.3436C47.7549 85.7452 46.3009 85.9426 45.2966 86.5194C45.0693 86.65 45.7257 86.5518 45.8756 86.573C46.2964 86.6323 46.7193 86.6956 47.1391 86.7309C47.3971 86.7525 48.4672 86.4774 48.6629 86.6828C48.9252 86.9581 48.5272 88.3747 48.5483 88.7419C48.5599 88.9449 48.7228 88.8282 48.7934 88.7521C48.9939 88.5359 49.0996 88.0754 49.0917 87.762C49.0684 86.8445 48.7691 86.1547 48.2728 85.3146" stroke="#06793C" stroke-width="2.06772" stroke-linecap="round"/> <path d="M77.9515 94.0985C76.8009 92.58 75.6631 91.1571 74.3466 89.7751C73.7824 89.1828 74.3 89.7587 74.5363 90.0567C75.1961 90.8886 75.8718 91.7152 76.4151 92.6205C76.6207 92.9629 77.4178 93.7755 76.8935 93.9465C76.0367 94.2259 75.1804 94.5058 74.3222 94.7824C74.1211 94.8472 73.6508 95.1391 73.3925 95.0797C72.525 94.8801 74.968 94.5992 75.7857 94.4388C76.4084 94.3166 77.0342 94.2937 77.6763 94.2514C77.8137 94.2424 78.0003 94.2023 78.1367 94.3003C78.5141 94.5715 77.8565 95.6925 77.7083 95.9102C77.436 96.3103 77.211 96.7411 76.8766 97.0892C76.8538 97.1129 76.6125 97.4562 76.8463 97.387C77.4287 97.2146 78.1155 96.4761 78.2911 95.8929C78.5116 95.1611 77.9138 94.0081 77.4771 93.3233C77.3799 93.1709 77.1076 92.7815 77.1717 92.6058C77.2398 92.4185 78.2173 93.4347 78.2801 93.4997C78.4856 93.7124 80.2304 95.3893 80.0073 95.5524C79.9511 95.5934 79.6274 95.1201 79.6104 95.0984C79.2252 94.6048 78.7404 93.9833 78.2057 93.6462C77.9311 93.4732 77.6335 93.4434 77.3471 93.464C76.9061 93.4956 77.0841 92.7983 77.076 92.5204C77.06 91.9686 76.9942 91.409 76.9291 90.8533C76.8765 90.4043 76.6519 89.9961 76.587 89.5655C76.5182 89.1087 76.8594 89.6787 76.9323 89.8081C77.4944 90.8064 77.8166 91.839 78.0959 92.9019" stroke="#06793C" stroke-width="2.06772" stroke-linecap="round"/> <path d="M74.6935 106.489C72.8738 106.777 71.0759 106.962 69.764 108.212C68.8064 109.124 72.2219 107.113 73.521 106.709C73.8506 106.607 75.025 106.123 75.343 106.614C75.4536 106.784 75.4334 107.056 75.3888 107.219C75.1431 108.117 74.7947 108.999 74.4887 109.87C74.2808 110.462 74.0124 111.04 73.9056 111.676C73.8501 112.007 73.8326 111.982 74.055 111.77C74.8976 110.967 75.198 110.383 75.0181 109.059C75.0065 108.974 74.7057 107.534 75.0819 107.854C75.8364 108.494 76.4186 109.508 76.9833 110.302C77.6151 111.19 78.4373 112.033 78.9159 113.003C78.9456 113.064 79.2741 113.896 79.0171 113.32C78.5694 112.316 77.9329 111.402 77.3253 110.471C77.1085 110.139 74.824 107.738 74.9157 107.564C75.1646 107.091 78.6098 108.096 79.0222 108.194C79.6896 108.352 80.9482 108.551 81.5464 109.141C81.6075 109.201 81.9074 109.52 81.6465 109.246C81.0646 108.635 80.47 108.23 79.7379 107.831C78.3262 107.062 76.9482 106.802 75.5346 107.057C74.8695 107.177 75.0617 107.176 74.635 106.628C73.9471 105.744 73.0374 105.129 72.2771 104.331" stroke="#06793C" stroke-width="2.06772" stroke-linecap="round"/> <path d="M108.64 102.183C109.118 101.787 109.619 101.357 110.17 101.056C111.214 100.484 109.783 101.155 109.447 101.296C108.075 101.869 107.038 102.647 105.988 103.647C105.888 103.742 105.119 104.579 105.209 104.554C105.849 104.374 106.512 103.769 107.026 103.402C108.023 102.689 109.088 101.914 110.247 101.442C110.923 101.167 112.015 100.551 112.826 100.637C113.235 100.681 112.383 102.327 112.306 102.489C111.765 103.634 109.973 105.851 110.755 107.389C110.949 107.772 111.575 106.279 111.595 106.211C111.864 105.32 111.906 104.305 111.574 103.329C111.287 102.486 110.184 100.455 111.996 101.427C113.894 102.446 115.328 103.716 116.813 105.275C117.284 105.769 115.961 104.211 115.558 103.663C114.952 102.837 114.309 102.027 113.573 101.306C112.759 100.508 111.698 100.852 110.908 100.022C110.281 99.3644 110.538 99.5849 110.806 99.0104C111.113 98.35 111.137 95.9912 110.996 96.7288C110.845 97.5167 110.789 98.342 110.759 99.1611C110.736 99.7876 111.154 102.304 110.612 102.687C110.578 102.711 110.198 101.668 110.187 101.641C109.96 101.095 109.693 100.543 109.31 100.069C108.893 99.5535 108.172 98.5912 107.56 98.3266C106.963 98.0682 105.883 98.2134 105.305 98.304C105.187 98.3223 105.552 98.3392 105.674 98.3766C106.42 98.6047 107.132 98.975 107.805 99.4145C109.017 100.206 110.033 101.186 111.035 102.237" stroke="#06793C" stroke-width="2.06772" stroke-linecap="round"/> <path d="M103.124 84.2825C102.54 83.8166 101.885 83.4558 101.26 83.0615C100.967 82.8773 100.249 82.4928 100.963 83.0134C101.73 83.5718 102.647 83.8142 103.336 84.5052C104.449 85.6206 102.08 86.5013 101.402 86.9964C100.913 87.354 101.927 86.275 102.025 86.1785C102.203 86.0039 102.514 85.5607 102.804 85.5551C104.219 85.5275 104.195 87.0656 104.24 88.1039C104.246 88.2259 104.267 89.2891 104.219 88.6909C104.118 87.434 103.589 86.1571 103.503 84.9121C103.384 83.1705 105.569 84.3489 106.339 85.0187C106.487 85.1472 106.988 85.5676 106.515 85.2764C105.754 84.808 104.865 84.4674 104.027 84.3784C103.572 84.33 103.188 84.3953 103.219 83.8144C103.251 83.2222 103.287 82.6753 103.398 82.1099" stroke="#06793C" stroke-width="2.06772" stroke-linecap="round"/> <path d="M150.829 98.9593C149.685 97.7593 148.542 96.5593 147.399 95.3593C146.893 94.8281 146.515 94.5455 145.817 94.5298C145.253 94.517 146.668 95.4473 147.18 95.7808C148.615 96.7161 150.007 97.8739 151.083 99.2477C151.419 99.6766 151.589 100.113 151.67 100.6C151.699 100.771 150.075 99.9574 149.981 99.9201C146.792 98.6512 143.232 98.05 140.359 99.2932C140.253 99.3391 140.588 99.4449 140.712 99.4641C141.828 99.6371 142.943 99.7161 144.057 99.8415C146.054 100.066 148.103 100.381 150.102 100.784C150.189 100.801 151.488 101.016 151.513 101.234C151.559 101.636 150.181 102.529 149.948 102.724C149.021 103.504 146.72 104.807 147.017 106.461C147.026 106.51 148.887 105.21 149 105.114C149.923 104.332 151.146 103.486 151.47 102.219C151.553 101.894 151.668 101.363 151.499 100.999C151.206 100.365 152.513 102.002 152.967 102.55C153.9 103.675 154.398 105.353 154.694 106.687C154.826 107.281 154.932 108.04 154.818 106.911C154.705 105.798 154.522 104.655 153.963 103.595C153.318 102.372 152.301 101.324 151.476 100.207C150.669 99.1139 152.617 100.474 152.884 100.623C154.446 101.495 156.085 102.155 157.651 103.02C158.091 103.262 159.27 104.224 158.918 103.855C158.132 103.03 156.951 102.581 156 102.033C154.932 101.416 154.039 100.718 152.88 100.356C152.351 100.191 151.469 100.284 151.013 100.058C150.757 99.9302 151.355 96.9565 151.153 96.3139C151.003 95.8363 151.382 96.7482 151.408 96.897C151.66 98.3295 151.863 99.7598 152.053 101.191" stroke="#06793C" stroke-width="2.06772" stroke-linecap="round"/> <path d="M151.775 84.248C150.463 83.134 149.059 81.8703 147.415 81.6055C145.435 81.2868 148.455 82.1747 148.86 82.2816C150.447 82.7008 152.252 83.1064 153.654 84.1806C154.113 84.5326 153.817 84.6489 153.509 84.9325C152.97 85.4282 152.307 85.6876 151.691 86.0739C151.08 86.4573 151.82 85.9293 152.009 85.8185C153.303 85.0608 154.617 84.5682 155.762 86.267C156.121 86.801 156.765 88.0217 156.802 88.6737C156.84 89.3362 156.142 87.4238 155.755 86.8278C155.299 86.126 154.64 85.5279 154.217 84.8242C153.72 83.9981 153.569 83.1885 153.111 82.3383C153.078 82.2786 152.591 81.5243 152.634 81.4592C152.744 81.2912 154.042 83.7894 154.159 84.1008" stroke="#06793C" stroke-width="2.06772" stroke-linecap="round"/> <path d="M102.599 83.7266C104.435 85.6541 106.016 87.2872 108.42 88.2811C109.378 88.6773 110.297 88.6472 111.26 88.7494C111.469 88.7716 112.31 88.8537 112.152 89.0555C111.693 89.643 111.451 90.4221 111.301 91.2001C111.063 92.433 111.167 93.7891 111.017 95.034C110.821 96.657 110.943 98.2878 110.803 99.9096" stroke="#06793C" stroke-width="2.06772" stroke-linecap="round"/> <path d="M153.167 101.604C153.049 101.249 153.541 100.789 153.716 100.55C154.344 99.6944 155.038 98.8927 155.677 98.0453C156.361 97.1362 157.116 95.6419 158.285 95.2533C159.108 94.98 160.099 95.18 160.902 94.9196C161.335 94.7792 162.518 95.3329 161.814 94.5938C158.799 91.4295 155.475 88.1128 153.956 84.0742" stroke="#06793C" stroke-width="2.06772" stroke-linecap="round"/> <path d="M76.4099 92.9585C77.9457 94.5707 79.4814 96.5963 81.2485 97.9535C82.5591 98.9602 84.1185 99.1869 85.5893 99.3874C86.2181 99.4732 86.8288 99.5343 87.4588 99.636C88.1543 99.7483 85.6723 101.172 85.3941 101.39C82.4658 103.688 79.7594 106.334 77.1218 108.846" stroke="#06793C" stroke-width="2.06772" stroke-linecap="round"/> <path d="M48.2026 86.0633C49.2504 88.2679 51.3039 90.735 53.3026 92.2369C54.3912 93.0549 55.8723 93.406 56.8539 94.3876C57.152 94.6857 57.6677 95.4837 58.062 95.5611C59.2776 95.7999 57.4411 95.8927 57.1352 95.9131C53.0602 96.1844 48.9712 95.97 45.0437 96.8364C43.3925 97.2007 41.2232 98.2392 40.7274 99.9808" stroke="#06793C" stroke-width="2.06772" stroke-linecap="round"/> <path d="M23.5426 78.5385C25.1714 80.2482 26.4681 82.2595 28.2852 83.7902C29.3607 84.6962 30.4821 85.5471 31.5717 86.4409C32.4084 87.1274 33.2672 87.9296 34.1915 88.476C35.5555 89.2824 36.94 89.9784 38.3017 90.8139" stroke="#06793C" stroke-width="2.06772" stroke-linecap="round"/> </svg>