<svg width="199" height="40" viewBox="0 0 199 40" fill="none" xmlns="http://www.w3.org/2000/svg">
<path d="M26.33 4.23027H11.6071C-3.40619 4.23027 -2.94999 21.7145 7.79155 21.7145C15.8788 21.7145 15.9203 11.7709 10.985 11.7709C8.70396 11.7709 8.66248 14.0911 6.92061 14.0911C4.43223 14.0911 4.88843 8.33203 11.3582 8.33203C14.2199 8.33203 16.2521 10.4451 16.2521 13.4696V24.8219C16.2521 25.9406 15.9617 26.562 15.0493 27.2664C12.7268 29.0065 12.8513 33.2326 16.8327 33.2326H22.5145C26.4959 33.2326 26.6203 29.0065 24.2978 27.2664C23.3854 26.562 23.0951 25.9406 23.0951 24.8633C23.0951 24.1176 23.5928 23.6204 24.3393 23.6204H26.33C35.2882 23.6204 40.9286 20.0987 40.9286 13.9253C40.9286 7.75198 35.2882 4.23027 26.33 4.23027ZM26.33 19.8915C24.3808 19.8915 23.0951 18.4 23.0951 15.9555V11.8952C23.0951 9.45069 24.3808 7.95914 26.33 7.95914C31.0165 7.95914 33.6708 9.82357 33.6708 13.9253C33.6708 18.0271 31.0165 19.8915 26.33 19.8915ZM43.5874 6.75762C43.5874 4.68603 45.6611 3.31877 48.7301 3.31877C51.7991 3.31877 53.8313 4.68603 53.8313 6.75762C53.8313 8.82921 51.7577 10.1965 48.7301 10.1965C45.7026 10.1965 43.5874 8.82921 43.5874 6.75762ZM51.965 33.2326H46.4906C42.5091 33.2326 42.3847 29.0065 44.7072 27.2664C45.6196 26.562 45.9099 25.9406 45.9099 24.8219V22.046C45.9099 20.9273 45.6196 20.3058 44.7072 19.6015C42.3847 17.8614 42.3018 14.1325 46.1588 13.0138L48.6886 12.2681C49.2693 12.1023 49.7669 12.0195 50.2231 12.0195C51.6747 12.0195 52.5456 12.8895 52.5456 14.7125V24.8219C52.5456 25.9406 52.836 26.562 53.7484 27.2664C56.0709 29.0065 55.9464 33.2326 51.965 33.2326ZM82.3141 15.2097C82.2819 16.623 81.8994 17.7417 81.1621 18.5703C80.4248 19.3989 79.3234 19.9237 77.8673 20.1493C77.4894 20.2092 77.1438 20.2828 76.8304 20.3749C76.5125 20.467 76.2084 20.582 75.918 20.7248C75.6277 20.8675 75.3328 21.0378 75.0471 21.2311C74.7614 21.4291 74.4665 21.6593 74.167 21.9309C73.038 22.893 72.1532 23.6434 71.5127 24.1866C71.1671 24.4766 70.8768 24.7298 70.6233 24.9508C70.7247 24.9646 70.8261 24.9784 70.9367 24.9968C71.4942 25.0889 72.0749 25.1764 72.6739 25.2684C73.2776 25.3605 73.8167 25.4019 74.3006 25.4019C75.0102 25.4019 75.6139 25.2777 76.1208 25.0291C76.6231 24.7805 77.0424 24.4076 77.3742 23.915C77.6737 23.4777 77.9594 23.1876 78.2221 23.0357C78.4848 22.8838 78.752 22.8102 79.0239 22.8102C79.3695 22.8102 79.646 22.9667 79.8488 23.2751C80.0515 23.5835 80.1529 24.0991 80.1529 24.8219C80.1529 26.5666 79.7704 28.1134 79.0009 29.4669C78.2313 30.8203 77.2267 31.8791 75.9733 32.6479C74.7245 33.4167 73.379 33.7988 71.932 33.7988C70.8768 33.7988 70.0243 33.6469 69.3699 33.3384C68.7155 33.03 68.1902 32.6479 67.7893 32.1876C67.3884 31.7272 67.0612 31.2715 66.8078 30.8249C66.5497 30.3738 66.3055 29.9963 66.0751 29.6878C65.8401 29.3794 65.559 29.2229 65.2272 29.2229C64.8954 29.2229 64.6374 29.3794 64.4023 29.6878C64.1673 29.9963 63.9323 30.3784 63.6927 30.8387C63.4531 31.2991 63.1674 31.7502 62.8356 32.2014C62.5038 32.6525 62.0983 33.03 61.6144 33.3384C61.1352 33.6469 60.5407 33.7988 59.8311 33.7988C58.9279 33.7988 58.2182 33.5272 57.6975 32.9886C57.1768 32.45 56.9187 31.695 56.9187 30.7328C56.9187 29.9641 57.1123 29.2229 57.504 28.5001C57.8957 27.7774 58.5685 27.1191 59.5269 26.5252C60.4808 25.9314 61.7895 25.448 63.4438 25.0705C63.7618 24.9968 64.0521 24.9094 64.324 24.8127C64.5959 24.716 64.8447 24.6009 65.0797 24.472C65.3148 24.3431 65.5405 24.1958 65.7571 24.0301C65.9737 23.8644 66.2041 23.671 66.4437 23.4454C67.1672 22.7825 67.7755 22.2255 68.2732 21.7744C68.6602 21.4199 68.9966 21.1114 69.31 20.8214C69.2593 20.8076 69.2178 20.7938 69.1671 20.78C68.5404 20.5866 67.8769 20.3611 67.1672 20.1033C66.4576 19.8455 65.7756 19.6245 65.112 19.4358C64.4484 19.247 63.9001 19.1549 63.4623 19.1549C63.0245 19.1549 62.7204 19.2286 62.5499 19.3713C62.3748 19.514 62.2918 19.6844 62.2918 19.8777C62.2918 20.0296 62.3379 20.1769 62.4255 20.3288C62.513 20.4808 62.6881 20.6235 62.9462 20.757C63.2457 20.9089 63.4577 21.1253 63.5775 21.4107C63.6973 21.6961 63.7572 22.0045 63.7572 22.336C63.7572 22.8792 63.5314 23.2935 63.0798 23.5882C62.6282 23.8828 62.1167 24.0301 61.5453 24.0301C60.5361 24.0301 59.7251 23.694 59.1076 23.0127C58.4901 22.336 58.1814 21.3646 58.1814 20.1033C58.1814 18.7176 58.4855 17.4056 59.0938 16.1534C59.7021 14.9013 60.6006 13.8885 61.7941 13.0967C62.983 12.3095 64.4346 11.9136 66.1534 11.9136C67.4022 11.9136 68.4206 12.0655 69.204 12.3739C69.9874 12.6824 70.6049 13.0645 71.0657 13.5248C71.5265 13.9852 71.8951 14.4363 72.1716 14.8875C72.4481 15.3386 72.6924 15.7207 72.9043 16.0245C73.1163 16.333 73.3698 16.4849 73.6739 16.4849C74.0518 16.4849 74.3835 16.333 74.6692 16.0245C74.9549 15.7161 75.2452 15.334 75.5402 14.8875C75.8351 14.4409 76.1623 13.9806 76.5217 13.5248C76.8811 13.0645 77.3051 12.6824 77.7843 12.3739C78.2636 12.0655 78.858 11.9136 79.5677 11.9136C80.5308 11.9136 81.2358 12.2128 81.6782 12.8159C82.1206 13.4189 82.3372 14.2153 82.3233 15.2097H82.3141ZM107.106 12.8159C107.548 13.4189 107.765 14.2153 107.751 15.2097C107.719 16.623 107.336 17.7417 106.599 18.5703C105.862 19.3989 104.76 19.9237 103.304 20.1493C102.926 20.2092 102.581 20.2828 102.267 20.3749C101.949 20.467 101.645 20.582 101.355 20.7248C101.065 20.8675 100.77 21.0378 100.484 21.2311C100.198 21.4291 99.9033 21.6593 99.6038 21.9309C98.4748 22.893 97.59 23.6434 96.9495 24.1866C96.6039 24.4766 96.3136 24.7298 96.0602 24.9508C96.1615 24.9646 96.2629 24.9784 96.3735 24.9968C96.9311 25.0889 97.5117 25.1764 98.1108 25.2684C98.7144 25.3605 99.2536 25.4019 99.7374 25.4019C100.447 25.4019 101.051 25.2777 101.558 25.0291C102.06 24.7805 102.479 24.4076 102.811 23.915C103.111 23.4777 103.396 23.1876 103.659 23.0357C103.922 22.8838 104.189 22.8102 104.461 22.8102C104.806 22.8102 105.083 22.9667 105.286 23.2751C105.488 23.5835 105.59 24.0991 105.59 24.8219C105.59 26.5666 105.207 28.1134 104.438 29.4669C103.668 30.8203 102.664 31.8791 101.41 32.6479C100.161 33.4167 98.8158 33.7988 97.3689 33.7988C96.3136 33.7988 95.4611 33.6469 94.8067 33.3384C94.1524 33.03 93.6271 32.6479 93.2262 32.1876C92.8252 31.7272 92.4981 31.2715 92.2446 30.8249C91.9866 30.3738 91.7423 29.9963 91.5119 29.6878C91.2769 29.3794 90.9958 29.2229 90.664 29.2229C90.3322 29.2229 90.0742 29.3794 89.8392 29.6878C89.6042 29.9963 89.3691 30.3784 89.1295 30.8387C88.8899 31.2991 88.6042 31.7502 88.2724 32.2014C87.9406 32.6525 87.5351 33.03 87.0513 33.3384C86.572 33.6469 85.9776 33.7988 85.2679 33.7988C84.3647 33.7988 83.6551 33.5272 83.1344 32.9886C82.6136 32.45 82.3556 31.695 82.3556 30.7328C82.3556 29.9641 82.5491 29.2229 82.9408 28.5001C83.3325 27.7774 84.0053 27.1191 84.9638 26.5252C85.9177 25.9314 87.2264 25.448 88.8807 25.0705C89.1987 24.9968 89.489 24.9094 89.7608 24.8127C90.0327 24.716 90.2816 24.6009 90.5166 24.472C90.7516 24.3431 90.9774 24.1958 91.194 24.0301C91.4105 23.8644 91.641 23.671 91.8806 23.4454C92.604 22.7825 93.2123 22.2255 93.71 21.7744C94.0971 21.4199 94.4335 21.1114 94.7468 20.8214C94.6961 20.8076 94.6547 20.7938 94.604 20.78C93.9773 20.5866 93.3137 20.3611 92.6041 20.1033C91.8944 19.8455 91.2124 19.6245 90.5488 19.4358C89.8853 19.247 89.3369 19.1549 88.8991 19.1549C88.4613 19.1549 88.1572 19.2286 87.9867 19.3713C87.8116 19.514 87.7287 19.6844 87.7287 19.8777C87.7287 20.0296 87.7747 20.1769 87.8623 20.3288C87.9498 20.4808 88.125 20.6235 88.383 20.757C88.6825 20.9089 88.8945 21.1253 89.0143 21.4107C89.1341 21.6961 89.194 22.0045 89.194 22.336C89.194 22.8792 88.9682 23.2935 88.5166 23.5882C88.065 23.8828 87.5536 24.0301 86.9821 24.0301C85.973 24.0301 85.1619 23.694 84.5444 23.0127C83.927 22.336 83.6182 21.3646 83.6182 20.1033C83.6182 18.7176 83.9223 17.4056 84.5306 16.1534C85.1389 14.9013 86.0375 13.8885 87.231 13.0967C88.4199 12.3095 89.8714 11.9136 91.5903 11.9136C92.8391 11.9136 93.8575 12.0655 94.6408 12.3739C95.4242 12.6824 96.0417 13.0645 96.5025 13.5248C96.9633 13.9852 97.332 14.4363 97.6085 14.8875C97.885 15.3386 98.1292 15.7207 98.3412 16.0245C98.5531 16.333 98.8066 16.4849 99.1107 16.4849C99.4886 16.4849 99.8204 16.333 100.106 16.0245C100.392 15.7161 100.682 15.334 100.977 14.8875C101.272 14.4409 101.599 13.9806 101.959 13.5248C102.318 13.0645 102.742 12.6824 103.221 12.3739C103.7 12.0655 104.295 11.9136 105.005 11.9136C105.968 11.9136 106.673 12.2128 107.115 12.8159H107.106ZM127.137 31.3681C127.137 28.095 129.211 23.869 129.211 20.0158C129.211 15.0854 125.935 12.1023 119.506 12.1023C112.58 12.1023 109.553 14.754 109.553 17.3227C109.553 18.8557 110.382 20.3887 112.373 20.3887C114.032 20.3887 115.069 19.6429 115.442 18.5243C116.023 16.9084 117.059 16.2041 118.926 16.2041C121.704 16.2041 122.451 18.8557 122.451 21.1345C117.474 20.7616 108.018 21.093 108.018 28.2193C108.018 31.7824 110.424 33.6469 113.824 33.6469C116.437 33.6469 118.635 32.3211 120.253 30.5809C120.045 31.6582 119.921 32.7354 119.921 33.8126C119.921 37.1686 121.621 39.8202 125.271 39.8202C129.211 39.8202 130.248 37.7901 130.248 36.4642C130.248 33.4812 127.137 34.4341 127.137 31.3681ZM121.663 25.1948C120.833 27.7221 119.465 28.6336 117.889 28.6336C116.23 28.6336 115.193 27.515 115.193 26.2306C115.193 23.3718 118.718 22.916 122.202 22.916C122.078 23.6618 121.87 24.4076 121.663 25.1948ZM155.505 18.0271C157.744 16.6598 158.906 14.6711 158.906 12.1852C158.906 7.1305 154.095 4.18884 144.722 4.18884H135.515C131.243 4.18884 131.119 8.41489 133.441 10.155C134.354 10.8594 134.644 11.4808 134.644 12.5995V24.7805C134.644 25.8991 134.354 26.5206 133.441 27.2249C131.119 28.9651 131.243 33.1911 135.225 33.1911L144.722 33.2326C155.961 33.274 160.979 30.208 160.979 24.9048C160.979 21.7974 159.238 19.4358 155.505 18.0271ZM141.487 11.2323C141.487 8.99494 142.773 7.91771 144.722 7.91771C149.823 7.91771 151.648 9.24353 151.648 12.1852C151.648 15.1268 149.823 16.5355 144.722 16.5355C142.773 16.5355 141.487 15.4583 141.487 13.221V11.2323ZM146.132 29.5037H144.722C142.773 29.5037 141.487 28.4265 141.487 26.1891V23.5789C141.487 21.3416 142.773 20.2644 144.722 20.2644H146.132C151.731 20.2644 153.722 21.7974 153.722 24.9048C153.722 28.0122 151.731 29.5037 146.132 29.5037ZM173.67 12.1852C167.947 12.1852 163.053 15.6655 163.053 22.916C163.053 30.1666 167.947 33.6469 173.67 33.6469C179.393 33.6469 184.329 30.1666 184.329 22.916C184.329 15.6655 179.352 12.1852 173.67 12.1852ZM173.67 29.7523C171.265 29.7523 170.103 26.9764 170.103 22.916C170.103 18.8557 171.265 16.0798 173.67 16.0798C176.076 16.0798 177.278 18.8557 177.278 22.916C177.278 26.9764 176.076 29.7523 173.67 29.7523ZM198.969 29.4208C198.969 31.2438 197.393 33.6469 193.411 33.6469C190.011 33.6469 188.144 31.741 188.144 27.3078V18.7729C188.144 14.6297 180.472 8.37346 173.463 8.37346C168.942 8.37346 168.652 9.9893 165.873 9.9893C161.601 9.9893 161.643 0.75 168.859 0.75C174.748 0.75 181.135 5.51466 185.739 10.2379C186.402 10.9008 187.107 11.1908 187.688 11.1908C188.352 11.1908 188.891 10.8179 189.14 10.2379C189.969 8.33203 189.72 5.72182 192.333 5.72182H192.623C193.909 5.72182 194.78 6.50903 194.78 8.12487V12.1023H197.02C198.098 12.1023 198.886 12.8895 198.886 13.9668V14.3811C198.886 15.4583 198.098 16.2455 197.02 16.2455H194.78V25.3191C194.78 27.5564 195.651 28.095 197.102 27.7636C198.513 27.4321 198.969 28.3022 198.969 29.4208Z" fill="#5FE09D"/>
</svg>
