<svg width="298" height="50" viewBox="0 0 298 50" fill="none" xmlns="http://www.w3.org/2000/svg">
<path d="M45.8576 10.989C44.2555 10.989 42.8968 10.4853 41.7894 9.47802C40.6821 8.4707 40.1323 7.14286 40.1323 5.49451C40.1323 3.84615 40.6821 2.51832 41.7894 1.51099C42.8968 0.503663 44.2476 0 45.8576 0C47.4676 0 48.8734 0.503663 49.9573 1.51099C51.0411 2.51832 51.583 3.84615 51.583 5.49451C51.583 7.14286 51.0411 8.4707 49.9573 9.47802C48.8734 10.4853 47.5069 10.989 45.8576 10.989ZM41.4046 49.0385V14.9725H50.3107V49.0385H41.4046ZM145.89 50C143.392 50 141.154 49.5803 139.175 48.7332C137.196 47.8861 135.625 46.6499 134.471 45.0244C133.316 43.399 132.735 41.4148 132.735 39.0797C132.735 36.7445 133.308 34.7909 134.471 33.2036C135.625 31.6239 137.227 30.4335 139.277 29.6322C141.327 28.8309 143.667 28.4264 146.314 28.4264H155.927V26.5034C155.927 24.9008 155.409 23.5806 154.372 22.558C153.335 21.5278 151.686 21.0089 149.424 21.0089C147.162 21.0089 145.56 21.5049 144.476 22.4817C143.392 23.4661 142.686 24.7405 142.356 26.2973L134.157 23.6187C134.722 21.8788 135.625 20.2839 136.874 18.8492C138.123 17.4069 139.795 16.2393 141.892 15.3465C143.989 14.4536 146.542 14.011 149.558 14.011C154.176 14.011 157.828 15.1328 160.514 17.3764C163.199 19.62 164.542 22.8709 164.542 27.1291V39.8352C164.542 41.2088 165.202 41.8956 166.522 41.8956H169.349V49.0385H163.411C161.668 49.0385 160.231 48.6264 159.1 47.8022C157.969 46.978 157.403 45.8791 157.403 44.5055V44.4368H156.06C155.872 44.9863 155.448 45.7036 154.788 46.5965C154.128 47.4893 153.092 48.2753 151.678 48.9622C150.264 49.649 148.332 49.9924 145.882 49.9924L145.89 50ZM147.445 42.9945C149.942 42.9945 151.977 42.323 153.555 40.9646C155.134 39.6139 155.927 37.8205 155.927 35.5769V34.8901H146.95C145.301 34.8901 144.005 35.2335 143.063 35.9203C142.12 36.6071 141.649 37.5687 141.649 38.8049C141.649 40.0412 142.144 41.0485 143.133 41.8269C144.123 42.6053 145.56 42.9945 147.445 42.9945ZM204.832 10.4853H184.993V20.1236H204.832V29.7619H184.993V39.4002H204.832V49.0385H175.074V0.84707H204.832V10.4853ZM214.751 20.1236H204.832V10.4853H214.751V20.1236ZM214.751 39.4002H204.832V29.7619H214.751V39.4002ZM232.233 39.4002H222.314V20.1236H232.233V39.4002ZM255.213 20.1236H232.233V10.4853H255.213V20.1236ZM255.213 49.0385H232.233V39.4002H255.213V49.0385ZM265.132 39.4002H255.213V20.1236H265.132V39.4002ZM83.0919 23.3516H90.066V14.9725H56.8214V23.3516H74.1544V32.0208H83.0841V23.3516H83.0919ZM65.2327 32.0208V40.667H56.8214V49.0461H90.066V40.667H74.1623V32.0208H65.2327ZM121.049 23.3516H128.023V14.9725H94.7782V23.3516H112.111V32.0208H121.041V23.3516H121.049ZM103.189 32.0208V40.667H94.7782V49.0461H128.023V40.667H112.119V32.0208H103.189ZM286.4 49.0385C283.911 49.0385 281.884 48.283 280.337 46.7796C278.782 45.2686 278.012 43.254 278.012 40.7357V19.9786H268.549V12.2711H278.012V0.84707H287.625V12.2634H298V19.971H287.625V39.1026C287.625 40.583 288.34 41.3233 289.762 41.3233H297.089V49.0308H286.408L286.4 49.0385ZM34.1792 7.89835C32.8362 5.70055 30.9749 3.99878 28.5952 2.77778C26.2156 1.56441 23.4668 0.961538 20.3567 0.961538H9.33017V9.2033H19.4379C21.6526 9.2033 23.4432 9.79853 24.8098 10.989C26.1763 12.1795 26.8596 13.8049 26.8596 15.8654V16.5522C26.8596 18.6126 26.1763 20.2381 24.8098 21.4286C23.4432 22.619 21.6526 23.2143 19.4379 23.2143H9.33017V9.2033H0V49.0385H9.33017V31.456H20.3567C23.3725 31.456 26.0742 30.8532 28.4539 29.6398C30.8335 28.4264 32.7184 26.7094 34.1085 24.4887C35.4986 22.268 36.1898 19.6734 36.1898 16.6972V15.7357C36.1898 12.7137 35.5222 10.1038 34.1792 7.90598V7.89835Z" fill="#181818"/>
</svg>
