<svg width="29" height="30" viewBox="0 0 29 30" fill="none" xmlns="http://www.w3.org/2000/svg">
<g clip-path="url(#clip0_3025_15599)">
<path d="M6.452 18.5263C6.452 20.1893 5.11891 21.5477 3.48411 21.5477C1.84952 21.5477 0.514648 20.1893 0.514648 18.5263C0.514648 16.8632 1.84974 15.5049 3.48433 15.5049H6.45223L6.452 18.5263ZM7.94811 18.5263C7.94811 16.8632 9.2832 15.5049 10.9178 15.5049C12.5524 15.5049 13.8875 16.863 13.8875 18.5263V26.0894C13.8875 27.7524 12.5526 29.1108 10.9178 29.1108C9.2832 29.1108 7.94811 27.7524 7.94811 26.0894V18.5263Z" fill="white"/>
<path d="M10.9178 6.39718C9.2832 6.39718 7.94811 5.04088 7.94811 3.37761C7.94811 1.71456 9.2832 0.356445 10.9178 0.356445C12.5524 0.356445 13.8875 1.71479 13.8875 3.37784V6.39741L10.9178 6.39718ZM10.9178 7.91934C12.5524 7.91934 13.8875 9.27768 13.8875 10.9407C13.8875 12.6038 12.5526 13.9621 10.9178 13.9621H3.48411C1.84952 13.9621 0.514648 12.604 0.514648 10.9407C0.514648 9.27768 1.84974 7.91934 3.48433 7.91934H10.9178Z" fill="white"/>
<path d="M22.8403 10.9407C22.8403 9.27768 24.1733 7.91934 25.8081 7.91934C27.4427 7.91934 28.7778 9.27768 28.7778 10.9407C28.7778 12.6038 27.4427 13.9621 25.8081 13.9621H22.8403V10.9407ZM21.3441 10.9407C21.3441 12.6038 20.0091 13.9621 18.3745 13.9621C16.7399 13.9621 15.4048 12.604 15.4048 10.9407V3.37761C15.4048 1.71456 16.7397 0.356445 18.3745 0.356445C20.0091 0.356445 21.3441 1.71479 21.3441 3.37784V10.9407Z" fill="white"/>
<path d="M18.3745 23.0698C20.0091 23.0698 21.3441 24.4261 21.3441 26.0894C21.3441 27.7524 20.0091 29.1108 18.3745 29.1108C16.7399 29.1108 15.4048 27.7524 15.4048 26.0894V23.0698H18.3745ZM18.3745 21.5477C16.7399 21.5477 15.4048 20.1893 15.4048 18.5263C15.4048 16.8632 16.7397 15.5049 18.3745 15.5049H25.8081C27.4427 15.5049 28.7778 16.863 28.7778 18.5263C28.7778 20.1893 27.4427 21.5477 25.8081 21.5477H18.3745Z" fill="white"/>
</g>
<defs>
<clipPath id="clip0_3025_15599">
<rect width="28.5439" height="29.0409" fill="white" transform="translate(0.374023 0.212891)"/>
</clipPath>
</defs>
</svg>
