<svg width="27" height="28" viewBox="0 0 27 28" fill="none" xmlns="http://www.w3.org/2000/svg">
<path d="M5.69258 17.5694C5.69258 19.1381 4.42504 20.4067 2.85765 20.4067C1.29026 20.4067 0.0227158 19.1381 0.0227158 17.5694C0.0227158 16.0007 1.29026 14.7321 2.85765 14.7321H5.69258V17.5694ZM7.11004 17.5694C7.11004 16.0007 8.37759 14.7321 9.94498 14.7321C11.5124 14.7321 12.7799 16.0007 12.7799 17.5694V24.6627C12.7799 26.2314 11.5124 27.5 9.94498 27.5C8.37759 27.5 7.11004 26.2314 7.11004 24.6627V17.5694ZM9.94498 6.17464C8.37759 6.17464 7.11004 4.90603 7.11004 3.33732C7.11004 1.76861 8.37759 0.5 9.94498 0.5C11.5124 0.5 12.7799 1.76861 12.7799 3.33732V6.17464H9.94498ZM9.94498 7.61603C11.5124 7.61603 12.7799 8.88464 12.7799 10.4534C12.7799 12.0221 11.5124 13.2907 9.94498 13.2907H2.83493C1.26754 13.2907 0 12.0221 0 10.4534C0 8.88464 1.26754 7.61603 2.83493 7.61603H9.94498ZM21.3074 10.4534C21.3074 8.88464 22.575 7.61603 24.1424 7.61603C25.7097 7.61603 26.9773 8.88464 26.9773 10.4534C26.9773 12.0221 25.7097 13.2907 24.1424 13.2907H21.3074V10.4534ZM19.89 10.4534C19.89 12.0221 18.6224 13.2907 17.055 13.2907C15.4876 13.2907 14.2201 12.0221 14.2201 10.4534V3.33732C14.2201 1.76861 15.4876 0.5 17.055 0.5C18.6224 0.5 19.89 1.76861 19.89 3.33732V10.4534ZM17.055 21.8254C18.6224 21.8254 19.89 23.094 19.89 24.6627C19.89 26.2314 18.6224 27.5 17.055 27.5C15.4876 27.5 14.2201 26.2314 14.2201 24.6627V21.8254H17.055ZM17.055 20.4067C15.4876 20.4067 14.2201 19.1381 14.2201 17.5694C14.2201 16.0007 15.4876 14.7321 17.055 14.7321H24.1651C25.7325 14.7321 27 16.0007 27 17.5694C27 19.1381 25.7325 20.4067 24.1651 20.4067H17.055Z" fill="#1B1B1B"/>
</svg>
