<svg width="35" height="36" viewBox="0 0 35 36" fill="none" xmlns="http://www.w3.org/2000/svg">
<g id="devicon:slack" clip-path="url(#clip0_2989_944)">
<g id="Group 480">
<path id="Vector" d="M8.02004 21.6309C8.02004 23.5972 6.44386 25.2033 4.51094 25.2033C2.57829 25.2033 1 23.5972 1 21.6309C1 19.6646 2.57855 18.0586 4.5112 18.0586H8.0203L8.02004 21.6309ZM9.78895 21.6309C9.78895 19.6646 11.3675 18.0586 13.3002 18.0586C15.2328 18.0586 16.8114 19.6644 16.8114 21.6309V30.5732C16.8114 32.5395 15.2331 34.1455 13.3002 34.1455C11.3675 34.1455 9.78895 32.5395 9.78895 30.5732V21.6309Z" fill="#DE1C59"/>
<path id="Vector_2" d="M13.3002 7.28778C11.3675 7.28778 9.78895 5.68415 9.78895 3.71758C9.78895 1.75128 11.3675 0.145508 13.3002 0.145508C15.2328 0.145508 16.8114 1.75155 16.8114 3.71785V7.28805L13.3002 7.28778ZM13.3002 9.0875C15.2328 9.0875 16.8114 10.6935 16.8114 12.6598C16.8114 14.6261 15.2331 16.2322 13.3002 16.2322H4.51094C2.57829 16.2322 1 14.6264 1 12.6598C1 10.6935 2.57855 9.0875 4.5112 9.0875H13.3002Z" fill="#35CEF0"/>
<path id="Vector_3" d="M27.3968 12.6598C27.3968 10.6935 28.973 9.0875 30.9059 9.0875C32.8385 9.0875 34.4171 10.6935 34.4171 12.6598C34.4171 14.6261 32.8385 16.2322 30.9059 16.2322H27.3968V12.6598ZM25.6279 12.6598C25.6279 14.6261 24.0493 16.2322 22.1167 16.2322C20.184 16.2322 18.6055 14.6264 18.6055 12.6598V3.71758C18.6055 1.75128 20.1838 0.145508 22.1167 0.145508C24.0493 0.145508 25.6279 1.75155 25.6279 3.71785V12.6598Z" fill="#2EB57D"/>
<path id="Vector_4" d="M22.1167 27.003C24.0493 27.003 25.6279 28.6066 25.6279 30.5732C25.6279 32.5395 24.0493 34.1455 22.1167 34.1455C20.184 34.1455 18.6055 32.5395 18.6055 30.5732V27.003H22.1167ZM22.1167 25.2033C20.184 25.2033 18.6055 23.5972 18.6055 21.6309C18.6055 19.6646 20.1838 18.0586 22.1167 18.0586H30.9059C32.8385 18.0586 34.4171 19.6644 34.4171 21.6309C34.4171 23.5972 32.8385 25.2033 30.9059 25.2033H22.1167Z" fill="#EBB02E"/>
</g>
</g>
<defs>
<clipPath id="clip0_2989_944">
<rect width="34.385" height="34.9837" fill="white" transform="translate(0.5 0.145508)"/>
</clipPath>
</defs>
</svg>


