<svg width="364" height="146" viewBox="0 0 364 146" fill="none" xmlns="http://www.w3.org/2000/svg">
    <path
        d="M362 59.5C362 27.7436 336.256 2 304.5 2H59.5C27.7436 2 2 27.7436 2 59.5C2 91.2564 27.7436 117 59.5 117H304.5C336.256 117 362 91.2564 362 59.5Z"
        fill="#05793C" />
    <path
        d="M362 59.5C362 27.7436 336.256 2 304.5 2H59.5C27.7436 2 2 27.7436 2 59.5C2 91.2564 27.7436 117 59.5 117H304.5C336.256 117 362 91.2564 362 59.5Z"
        stroke="#05793C" stroke-width="3" />
    <path d="M213.5 144C279.5 145.2 325 115.5 339 106L249 104L211 117.5C231 114.5 221 138.5 213.5 144Z"
        fill="#05793C" />
    <path d="M339 105C325 114.5 279.5 145.2 213.5 144C221 138.5 231 116 211 116.5" stroke="#05793C"
        stroke-width="3.2" />
</svg>