<svg width="69" height="48" viewBox="0 0 69 48" fill="none" xmlns="http://www.w3.org/2000/svg">
<path d="M46.1297 4.84762C49.3228 6.05566 52.8535 7.21024 55.7069 9.12067C57.2512 10.1546 58.6753 11.8587 59.7914 13.3533C62.1277 16.4822 63.3981 20.0758 64.5775 23.7541C65.5893 26.9097 63.5685 28.2209 60.7819 27.836C59.4811 27.6564 58.1872 27.9454 56.8678 27.8025C56.491 27.7616 56.3973 28.0601 56.6357 28.3273C57.1667 28.9224 58.5468 28.9114 59.2739 28.9076C59.9376 28.9041 60.5924 28.5785 61.253 28.4857C61.829 28.4048 62.5194 28.6426 63.0503 28.4724C63.9314 28.1899 65.4614 27.4227 65.9498 26.6294C67.1476 24.684 66.0186 21.7443 65.3168 19.7387C64.5259 17.4783 62.9477 15.5786 61.128 14.0883C59.5727 12.8145 58.5072 11.0376 56.7971 9.98465C55.2365 9.02376 53.5952 7.54678 51.812 7.07917C50.1877 6.65325 48.1511 6.45796 46.6921 5.74323C45.7574 5.28539 45.1279 5.16884 44.0763 5.50601C42.7201 5.94085 41.2543 5.98147 39.9418 6.61901C39.3688 6.89735 38.9818 7.57919 38.4384 7.93927C37.8313 8.34155 37.2 8.70617 36.5791 9.0859C35.2881 9.87547 34.2563 10.8487 33.0151 11.7049C31.6697 12.633 30.1784 13.3009 28.8973 14.3139C27.5103 15.4106 25.9239 16.7311 24.2179 17.2781C20.4824 18.4758 16.5025 19.7282 12.8626 21.1942C11.2867 21.8289 9.47153 22.77 8.1939 23.8797C7.35784 24.6059 6.37907 25.5517 5.40387 26.0254C4.67143 26.3812 4.15823 27.0551 3.39582 27.3323C2.07091 27.8141 4.34843 29.41 4.90757 29.55C6.78429 30.0196 9.37471 29.5351 11.2543 29.3665C13.1074 29.2003 14.9492 29.3086 16.8005 29.3397C18.3859 29.3664 20.0185 29.5195 21.5989 29.4777C23.7523 29.4206 25.9514 28.9764 28.1098 29.104C30.0528 29.2189 31.8016 28.9432 33.7239 28.7426C36.5195 28.451 39.3467 28.5807 42.1494 28.6434C43.88 28.682 45.6078 28.6491 47.3371 28.669C48.923 28.6871 50.6986 28.883 52.2628 28.5408C53.3356 28.3062 54.4365 27.6181 55.5369 27.5536C56.5198 27.4959 57.7514 27.5735 58.7376 27.7033C59.8899 27.855 61.4084 27.8838 62.4573 27.2864C63.3798 26.7609 64.8036 25.3202 64.9867 24.2109C65.1839 23.0162 65.2594 21.6668 64.8861 20.5024C64.8178 20.2894 64.3816 18.9997 64.8866 19.8016C65.6961 21.0871 66.4671 22.6239 66.9323 24.0749C67.035 24.3949 67.3032 24.8844 67.2507 25.2239C67.16 25.8107 66.6888 26.4441 66.5292 27.0316C66.335 27.7469 66.2319 28.3534 65.7914 28.9447C65.1228 29.8422 63.7634 30.0453 62.7573 30.3679C60.5834 31.0649 57.8229 29.8666 55.6932 29.3676C52.3832 28.5921 49.6321 29.4487 46.4694 30.4109C44.7724 30.9273 42.9724 30.5377 41.288 30.1707C39.8161 29.85 38.13 30.2521 36.6587 30.4039C30.0716 31.0834 23.4657 31.0843 16.8937 30.4108C13.6165 30.0749 10.0572 30.0985 6.86265 29.2484C6.44016 29.1359 4.15273 28.934 4.13394 28.3468C4.11213 27.6652 6.54155 27.786 6.96255 27.7651C9.34795 27.6465 11.9117 28.3716 14.2921 28.6177C16.5572 28.852 18.7979 29.2064 21.0479 29.5542C22.0606 29.7108 22.9857 30.024 24.0046 29.9574" stroke="white" stroke-width="1.35344" stroke-linecap="round"/>
<path d="M24.1572 22.71C23.4606 22.9062 21.0936 22.8691 21.4584 24.1258C21.8892 25.6097 22.5497 25.4774 23.8931 25.0467C25.6208 24.4927 26.1348 21.8783 23.9462 22.052C22.7659 22.1457 18.6945 23.4042 21.6221 24.6363C22.2392 24.896 23.5006 24.4411 23.6817 23.7632C23.8424 23.1618 22.3432 23.4618 22.508 24.59" stroke="white" stroke-width="1.35344" stroke-linecap="round"/>
<path d="M37.0147 18.583C36.3258 18.7126 35.5771 18.8188 34.8164 19.0627C33.6353 19.4414 33.7958 19.9638 34.2058 21.06C34.6389 22.2182 38.8309 21.1695 37.7138 19.71C37.2301 19.0781 36.3544 18.369 35.5331 18.3324C34.9733 18.3076 33.6681 18.4761 33.4449 19.0771C33.2536 19.592 32.7459 20.0186 32.9229 20.5706C33.2971 21.7378 35.0757 21.6711 35.8787 21.0491C37.3652 19.8976 39.1983 17.5217 36.2734 17.5196C34.5216 17.5183 32.0576 18.7222 33.7182 20.8661C34.1573 21.4329 37.7458 20.1609 37.5099 19.4251C37.44 19.2072 36.7152 17.5082 37.46 17.8648C38.5997 18.4105 38.1062 18.9086 37.2111 19.1956" stroke="white" stroke-width="1.35344" stroke-linecap="round"/>
<path d="M42.5167 23.7906C41.6477 23.3764 40.4202 23.6526 39.513 23.8654C37.9525 24.2315 39.6105 24.8622 40.2993 24.952C41.8111 25.1489 42.5909 24.9674 43.7341 24.0758C45.0107 23.0803 43.5495 22.679 42.4988 22.7204C41.6312 22.7545 40.9633 22.7123 40.1298 22.9796C39.4288 23.2043 38.7002 24.2774 39.093 25.0135C39.6065 25.9759 41.4017 25.0489 42.0752 24.8329C42.4306 24.719 43.4436 23.8368 42.7209 23.7251" stroke="white" stroke-width="1.35344" stroke-linecap="round"/>
<path d="M41.9691 12.2563C41.551 12.3904 41.107 12.4904 40.6639 12.3996C40.6159 12.3898 42.0218 12.1387 42.5451 12.2968C43.8943 12.7046 45.1674 13.2991 46.3717 14.0475C49.2322 15.825 50.8109 18.4171 52.3089 21.3267" stroke="white" stroke-width="1.35344" stroke-linecap="round"/>
<path d="M48.8277 11.8597C48.7278 11.3284 51.4639 12.5241 51.8619 12.7384C52.7914 13.239 53.622 14.0343 54.2867 14.8384" stroke="white" stroke-width="1.35344" stroke-linecap="round"/>
</svg>
