<svg width="67" height="57" viewBox="0 0 67 57" fill="none" xmlns="http://www.w3.org/2000/svg">
<path d="M7.54323 38.1321C7.03674 36.286 6.56983 34.2807 6.76082 32.3356C6.90278 30.8898 7.48642 29.4811 7.55447 27.9966C7.61838 26.6022 8.71828 25.7652 9.44788 24.69C10.3955 23.2934 11.4144 22.1109 12.6681 20.9768C13.3566 20.3539 13.7498 19.4182 14.4618 18.7664C15.2734 18.0233 16.0541 17.2694 16.8772 16.5334C17.8754 15.6407 19.078 14.8731 20.3155 14.3693C21.602 13.8456 22.7036 12.9603 23.9515 12.4523C25.6996 11.7407 27.4551 11.2444 29.1902 10.5381C30.0274 10.1973 30.9864 10.1883 31.8615 9.88745C32.737 9.58647 34.2051 9.44329 35.1309 9.45433C37.3305 9.48055 39.2702 9.08015 41.4706 9.46993C41.96 9.55661 42.599 9.45271 43.0393 9.71704C43.5609 10.0302 44.1821 10.4055 44.7373 10.6395C47.4569 11.7854 49.8897 12.8626 52.4173 14.5137C57.2545 17.6736 61.0061 21.9316 63.1773 27.2651C64.0407 29.3861 65.1528 31.4375 64.1788 33.7489C63.4185 35.5534 61.9855 36.9349 60.2023 37.6608C59.1407 38.093 58.0791 38.5252 57.0175 38.9573C56.0687 39.3435 55.0803 39.3414 54.0764 39.5116C53.6029 39.5918 53.2941 39.8897 52.7951 39.8512C52.229 39.8075 51.6759 39.8521 51.1092 39.8823C49.9842 39.9424 48.6312 40.2178 47.5399 40.0856C44.513 39.7191 41.6348 40.8905 38.7214 41.4916C37.0865 41.829 35.2244 42.5877 33.684 43.2147C32.0878 43.8645 30.408 43.6716 28.769 44.1357C27.6551 44.4512 26.4135 44.4273 25.3511 44.8598C23.3154 45.6885 20.8675 44.8469 18.857 45.538C16.8711 46.2207 14.3509 44.0681 12.6828 43.2468C11.3323 42.5818 9.87373 41.1745 9.31888 39.8116C9.09179 39.2537 8.54082 38.4299 8.04972 38.0351C7.50836 37.5999 7.25883 36.3606 7.00272 35.7314C6.47306 34.4304 6.8706 34.9713 7.54735 35.7281C8.19542 36.4528 8.55233 36.957 8.94786 37.8272C9.29189 38.5842 10.3363 39.3691 10.9909 39.8953C11.6315 40.4103 12.1181 41.4477 12.812 41.8353C16.5715 43.9356 20.665 44.9547 24.9874 44.0858C30.0593 43.0662 34.8396 40.7788 39.6588 38.8169C41.4334 38.0945 43.0947 37.3467 45.0122 37.2442C48.3759 37.0646 51.6163 38.1104 54.985 37.6008C57.7023 37.1897 60.2245 35.9046 62.7562 34.874C63.265 34.6669 63.7462 33.9418 63.1934 34.696C62.9135 35.0779 62.5857 35.4186 62.2734 35.7742C61.0764 37.1375 58.8372 38.0638 57.0758 38.2663C55.778 38.4154 54.4942 38.4803 53.1987 38.2795C52.1995 38.1245 51.2664 37.7256 50.2286 37.8385C47.7891 38.1037 45.2635 37.8457 43.0098 38.7631C41.3723 39.4297 39.7347 40.0964 38.0972 40.763" stroke="white" stroke-width="1.47689" stroke-linecap="round"/>
<path d="M55.5805 18.7983C56.0954 20.063 53.9831 20.6347 53.2839 19.624C52.9907 19.2003 52.7766 18.8846 52.5731 18.3846C52.3786 17.9068 53.4025 17.7194 53.7701 17.5698C55.0494 17.049 55.7183 18.8486 54.8198 19.6418C54.085 20.2906 52.8453 20.6628 52.3966 19.5606C52.1325 18.9118 52.1127 18.6813 52.7985 18.4021" stroke="white" stroke-width="1.47689" stroke-linecap="round"/>
<path d="M48.5394 21.8812C49.1565 21.7156 50.5501 24.856 48.4694 24.0937C48.2783 24.0236 46.6783 23.5722 46.9988 23.1636C47.3546 22.7099 47.8971 22.3611 48.4283 22.1449C49.0827 21.8784 49.084 22.1317 49.5244 22.5722C49.7729 22.8209 49.9923 23.1386 50.1412 23.4616C50.6921 24.6564 49.7221 24.5661 48.9495 24.4684C47.6165 24.2999 46.0915 22.8777 47.9773 22.11" stroke="white" stroke-width="1.47689" stroke-linecap="round"/>
<path d="M42.632 14.8915C44.2496 14.233 45.5936 17.469 43.3938 17.2992C42.7581 17.2501 41.8959 16.3021 41.6605 15.7238C41.2761 14.7795 42.6705 15.3298 42.9371 15.6409" stroke="white" stroke-width="1.47689" stroke-linecap="round"/>
<path d="M23.2704 17.755C24.1283 17.4058 25.9764 16.3986 26.8027 17.312C27.93 18.5581 27.271 19.0235 25.9063 19.5211C25.2048 19.7768 23.2692 19.3071 22.7941 18.7011C22.0264 17.722 25.1467 17.8375 25.6777 18.3038" stroke="white" stroke-width="1.47689" stroke-linecap="round"/>
<path d="M18.9685 26.4922C20.0322 26.0592 21.5911 29.3346 19.6446 29.2259C17.0146 29.0791 19.0831 26.4724 19.9119 27.2001" stroke="white" stroke-width="1.47689" stroke-linecap="round"/>
<path d="M34.8924 32.8944C35.8734 32.495 36.8471 31.7948 37.3727 33.0859C37.6121 33.674 36.2993 34.5056 35.8424 34.6916C34.8317 35.103 34.4611 35.0537 34.0353 34.0077C33.6855 33.1486 35.7271 32.6633 36.2877 33.1029C36.6893 33.4179 37.3533 34.5846 37.1428 35.0843C36.751 36.0141 35.4939 35.4779 34.8883 35.2984C33.7261 34.9539 36.9358 33.1545 37.1056 33.0854C38.4706 32.5297 37.9678 33.8596 38.0209 34.6783" stroke="white" stroke-width="1.47689" stroke-linecap="round"/>
<path d="M35.6177 22.336C36.5114 21.9722 37.2631 21.5494 37.7191 22.6696C38.0379 23.4527 36.8196 23.6208 36.1862 23.8517C35.1067 24.2452 33.0097 22.5241 34.4696 21.9298C35.7982 21.3889 36.5505 20.8721 37.2003 22.4682C38.0804 24.63 36.0526 24.5369 34.5003 23.8828" stroke="white" stroke-width="1.47689" stroke-linecap="round"/>
<path d="M57.2614 24.0059C57.6879 25.0536 58.1145 26.1013 58.541 27.1491C58.9205 28.0814 58.8267 28.4388 58.7967 29.3867C58.752 30.8011 57.1522 32.2245 55.7875 32.4559C55.2347 32.5496 53.7533 32.9637 53.3322 32.594" stroke="white" stroke-width="0.843939" stroke-linecap="round"/>
<path d="M53.5232 26.6223C53.9705 28.202 52.4763 29.0767 51.2945 29.7014C49.7882 30.4976 47.7263 31.1073 46.036 30.7622" stroke="white" stroke-width="0.843939" stroke-linecap="round"/>
<path d="M47.0625 32.7454C47.1737 33.1594 41.7188 34.2656 41.4007 34.3951" stroke="white" stroke-width="0.843939" stroke-linecap="round"/>
<path d="M35.6733 38.0337L30.9896 39.9403" stroke="white" stroke-width="0.843939" stroke-linecap="round"/>
<path d="M25.2123 40.7663C25.8311 40.5144 23.8771 41.0071 23.2141 40.9246C22.0907 40.7847 21.2075 40.674 20.1388 40.3444C18.8869 39.9583 17.5713 39.7195 16.3946 39.2237C14.4597 38.4084 11.7831 37.2841 10.9425 35.219" stroke="white" stroke-width="0.843939" stroke-linecap="round"/>
<path d="M26.9211 37.4488C24.5303 37.3214 22.3614 37.1601 20.1153 36.2883C19.1577 35.9166 17.897 35.7907 17.0699 35.1258C16.5575 34.7139 15.2711 33.5473 14.6976 33.4708C14.1241 33.3943 13.0906 32.0544 12.7346 31.54C12.3455 30.9775 12.1468 30.1257 11.8895 29.4938C11.3237 28.1039 11.9141 27.3481 12.0146 26.0457" stroke="white" stroke-width="0.843939" stroke-linecap="round"/>
<path d="M28.2902 33.8326C27.5226 34.1451 25.2483 34.6346 24.5021 34.0643C23.8286 33.5497 22.6583 33.4098 22.3101 32.5544" stroke="white" stroke-width="0.843939" stroke-linecap="round"/>
<path d="M14.7857 25.3574C14.73 25.0291 15.4359 23.9781 15.5972 23.5954C15.8456 23.0058 16.2924 22.2481 16.6877 21.744C17.3177 20.9406 18.0483 20.0497 18.6171 19.2114" stroke="white" stroke-width="0.843939" stroke-linecap="round"/>
<path d="M23.8413 19.7035C24.8189 22.1052 27.3848 21.7552 29.4641 20.9088C29.9142 20.7255 30.4002 20.3504 30.7336 20.0037C31.1657 19.5545 31.9588 19.4831 32.3821 18.9565C32.9809 18.2116 34.9314 17.8095 35.8098 17.4519C37.0174 16.9603 39.1995 16.3888 38.5719 14.5804C38.1511 13.3678 35.9644 12.525 34.7156 12.8865C33.6965 13.1814 32.7307 13.464 31.7313 13.8708C30.128 14.5235 28.2493 15.3286 26.5374 15.597C25.5089 15.7582 23.1638 16.43 23.7169 17.7886" stroke="white" stroke-width="0.843939" stroke-linecap="round"/>
<path d="M37.3176 23.8261C38.4193 23.3776 40.6422 22.4545 41.7094 23.3486C42.7112 24.1877 44.5672 26.251 42.6789 27.3096C40.712 28.4123 38.0136 29.1433 35.7653 28.656C33.8 28.2301 32.8864 28.4691 31.0859 29.2021C30.1763 29.5724 29.5747 29.8744 28.6019 29.7765C27.9825 29.7141 26.5763 29.2203 26.2017 28.6789C25.4509 27.5938 28.1841 26.8891 28.804 26.6367C29.2063 26.473 30.3955 26.2157 30.5726 25.7954C30.7653 25.3382 30.7365 24.8713 31.1765 24.5668C32.1928 23.8636 33.3996 23.4556 34.5704 22.9789" stroke="white" stroke-width="0.843939" stroke-linecap="round"/>
</svg>
