<svg width="61" height="37" viewBox="0 0 61 37" fill="none" xmlns="http://www.w3.org/2000/svg">
<path d="M44.8741 4.30384C45.1255 4.59117 44.5763 4.27762 44.4749 4.21311C42.6537 3.05414 40.2079 2.59476 38.1691 1.93576C36.2002 1.29937 34.2502 1.36416 32.2081 1.36416C30.6468 1.36416 29.1464 1.3331 27.6262 1.69079C26.942 1.85178 26.2587 1.83077 25.6029 2.09908C24.4914 2.55375 23.4486 3.03094 22.3638 3.55078C20.3086 4.53556 18.1458 4.61378 16.0579 5.3654C14.4784 5.93402 12.988 6.66871 11.3127 6.9169C8.26327 7.36867 5.35947 8.95352 3.89091 11.7438C3.00278 13.4312 2.18631 15.0844 1.83132 16.9608C1.47004 18.8704 1.54418 20.8094 1.75873 22.7404C2.07346 25.5729 3.24655 27.8069 5.41519 29.7448C6.92305 31.0923 8.38773 31.8494 10.233 32.6301C13.3578 33.9521 17.3839 34.1275 20.6399 33.2833C22.553 32.7873 24.3815 32.0846 26.2652 31.4959C27.0704 31.2443 27.9331 31.205 28.7512 31.006C29.8798 30.7315 30.9171 30.1393 32.0538 29.8628C33.5076 29.5091 34.9816 29.0645 36.4815 28.9736C37.2103 28.9294 38.7214 29.2616 39.403 28.8829C40.4374 28.3082 39.9848 28.5199 39.403 27.4856C38.9061 26.6022 38.5332 25.3781 37.6792 24.7909C35.4671 23.2701 33.6072 21.1273 31.7181 19.2382C31.09 18.6101 30.5366 17.926 29.9307 17.2784C29.465 16.7805 28.8288 16.3082 28.4609 15.736C28.2324 15.3805 27.8202 15.0827 28.4972 15.0827C29.6663 15.0827 30.85 15.0319 32.0175 15.0918C34.8612 15.2376 37.8556 16.0606 40.4737 17.1241C42.781 18.0615 44.9201 19.3332 47.3329 19.9912C49.6285 20.6173 51.8344 21.3589 54.1741 21.8603C55.6662 22.1801 57.1308 22.5495 58.5836 23.0035C58.9128 23.1064 59.141 23.2485 59.4909 23.2485C60.1837 23.2485 59.8992 22.4189 59.8992 21.8694C59.8992 19.9064 59.3061 18.2537 58.511 16.48C56.9076 12.9031 54.9216 9.8597 51.9784 7.24353C51.2504 6.59643 50.6833 5.6355 49.7736 5.15672C49.1327 4.81939 48.3745 4.70722 47.6868 4.50345C46.9803 4.29413 46.2502 4.28494 45.5274 4.10424C45.0364 3.98149 43.2998 3.2547 44.5475 3.94092C48.0762 5.88173 51.631 8.4852 53.8565 11.889C54.856 13.4176 55.554 15.2444 56.1792 16.9518C56.5009 17.8303 56.6842 18.752 57.1228 19.583C57.4293 20.1637 57.89 20.6413 58.139 21.2524C58.28 21.5984 58.9193 23.3039 58.9193 22.323C58.9193 20.283 58.5718 18.2063 57.6128 16.3892C56.881 15.0028 57.0738 16.0607 57.4132 17.0062C57.9162 18.4077 58.364 20.1118 58.4293 21.6153C58.4631 22.3915 58.4184 23.063 57.4857 23.0852C54.9622 23.1453 52.5884 23.1191 50.1728 22.3412C48.2509 21.7223 46.2247 21.5392 44.3116 20.8895C42.6883 20.3382 41.3073 19.2287 39.648 18.6756C38.1771 18.1853 36.7228 17.7134 35.2385 17.3328C33.9704 17.0077 32.7411 16.5228 31.4822 16.1896C31.0952 16.0872 29.4767 15.8911 29.595 16.1352C30.0663 17.1072 30.8375 17.8713 31.2826 18.8934C31.5133 19.423 31.6895 19.9563 32.1718 20.3088C33.05 20.9506 33.8261 21.642 34.7485 22.2686C36.004 23.1214 37.26 24.2666 37.8878 25.6619C38.151 26.2468 39.6077 27.6563 38.5955 28.148C38.0966 28.3903 37.521 28.2762 36.9987 28.4383C36.5022 28.5924 36.0189 28.7649 35.5288 28.9283C33.411 29.6342 31.4491 30.206 29.4317 31.2147C27.728 32.0665 26.1029 33.1559 24.3326 33.864C22.8586 34.4536 21.0467 34.7549 19.4694 34.9709C16.0126 35.4445 11.8548 35.5248 8.52727 34.354C7.17569 33.8784 5.1482 33.1728 4.28106 31.9405C3.43881 30.7436 2.04454 29.3208 1.668 27.8939C1.08718 25.6929 1.54431 23.3196 1.10547 21.1254" stroke="white" stroke-width="1.55565" stroke-linecap="round"/>
<path d="M13.5136 30.1087C12.1459 30.1087 10.4065 28.729 9.59401 27.7134C8.12537 25.8776 6.98299 23.8715 6.49101 21.5346C6.04913 19.4357 6.10716 17.4968 6.5636 15.4103C7.06121 13.1355 9.29827 12.4 11.0639 11.1641" stroke="white" stroke-width="1.55565" stroke-linecap="round"/>
<path d="M49.607 11.8142C51.0087 13.3434 52.22 15.2725 52.22 17.3669" stroke="white" stroke-width="1.55565" stroke-linecap="round"/>
<path d="M17.6008 10.8358C16.8126 10.9343 16.5217 12.9405 17.2561 13.3218C19.471 14.4719 21.2497 12.9399 23.1536 11.8973C24.0752 11.3926 24.9886 10.9469 26.0298 10.7541C26.8488 10.6024 27.795 10.5317 28.5611 10.2007C29.5879 9.75699 32.8823 7.37321 30.8204 6.26293C29.7417 5.6821 28.5455 5.77299 27.3635 5.77299C25.3574 5.77299 23.2629 6.18179 21.4115 6.98878C19.6504 7.75647 18.7779 9.2028 17.6825 10.6634C17.277 11.2041 16.7168 11.579 16.2943 12.1423" stroke="white" stroke-width="1.55565" stroke-linecap="round"/>
<path d="M24.6223 21.2861C23.7274 21.2861 22.4124 22.1559 22.3449 23.1007C22.2538 24.3758 22.7611 24.7074 24.0234 24.9879C24.8976 25.1822 28.2286 26.3031 28.6144 24.8699C28.938 23.668 28.3868 22.9046 27.562 22.1026C26.6532 21.2192 25.6466 21.2861 24.459 21.2861" stroke="white" stroke-width="1.55565" stroke-linecap="round"/>
<path d="M14.3318 20.1444C13.9465 20.2408 14.2363 21.088 14.5949 21.088C15.6666 21.088 16.1844 19.186 16.0285 18.3752C15.866 17.5302 14.3003 18.1456 13.987 18.602C13.6006 19.1651 13.8207 20.1301 14.3318 20.5255C16.5916 22.2737 18.575 17.2274 15.0123 18.4387C14.2409 18.701 13.5364 19.5062 14.0052 20.3622C14.6165 21.4784 16.1469 20.3677 16.6182 19.8178" stroke="white" stroke-width="1.55565" stroke-linecap="round"/>
<path d="M24.1326 19.1651C23.8989 18.6199 23.0944 19.2953 23.0257 19.6732C22.8974 20.3785 22.9359 21.1154 23.57 21.5423C24.8693 22.4168 25.421 20.7032 25.421 19.6641C25.421 18.7848 23.8377 18.4994 23.6608 19.4282C23.5745 19.8811 23.5434 20.4627 24.0691 20.6078C24.5028 20.7274 24.7858 20.577 24.7858 20.145" stroke="white" stroke-width="1.55565" stroke-linecap="round"/>
<path d="M34.0925 5.28174C33.8788 5.56664 33.2289 5.5012 32.913 5.70817C32.3241 6.094 32.4041 7.1716 32.4774 7.77684C32.5701 8.5411 32.9251 8.85654 33.6842 8.85654C34.6404 8.85654 35.2768 8.04861 35.5804 7.17802C36.2714 5.19737 33.1 5.36289 31.9966 5.4632C31.2456 5.53147 30.598 5.72595 30.2636 6.43402C29.6349 7.7655 32.9954 8.2107 33.8112 8.13977C35.6013 7.9841 33.7154 5.45367 32.6408 5.31803C30.5418 5.05311 30.803 7.28998 32.6408 7.40484C33.1485 7.43658 33.772 7.52963 34.0199 6.98748C34.2049 6.58282 33.9276 6.23494 33.5118 6.4068C32.7083 6.7389 31.847 7.3072 31.8605 8.29401C31.8689 8.90844 32.5279 8.53956 32.7859 8.38474" stroke="white" stroke-width="1.55565" stroke-linecap="round"/>
<path d="M40.4629 9.85231C40.3883 9.49792 39.6655 8.9763 39.9911 9.50753C40.3307 10.0617 41.0482 10.8432 41.7876 10.4511C43.265 9.66762 41.3887 6.55422 40.1453 7.91066C39.8101 8.27631 39.4909 9.26439 39.7915 9.72528C39.9881 10.0268 40.9269 10.3307 41.1887 9.99748C41.9426 9.03806 40.194 8.59367 39.9729 9.03573" stroke="white" stroke-width="1.55565" stroke-linecap="round"/>
<path d="M45.6909 15.5709C45.6726 15.4243 45.4193 16.0766 46.0992 16.2877C46.7857 16.5007 47.2119 15.5805 46.6436 15.1898C46.0002 14.7475 45.6463 15.4013 45.6909 15.9701C45.7209 16.3523 46.1575 16.738 46.5529 16.5054C46.9154 16.2922 46.704 15.7065 46.6708 15.4076" stroke="white" stroke-width="1.55565" stroke-linecap="round"/>
</svg>
